{"glyphs":{"0":{"ha":815,"x_min":36,"x_max":779,"o":"m 523 759 q 389 826 471 826 q 268 743 306 826 q 231 475 231 660 q 264 228 231 314 q 370 116 297 142 l 370 109 q 275 170 319 117 q 213 487 213 247 q 255 761 213 676 q 393 845 298 845 q 533 765 481 845 l 523 759 m 376 939 q 600 841 505 939 q 722 473 722 716 q 631 157 722 273 q 386 41 541 41 q 132 167 228 41 q 36 499 36 292 q 129 819 36 699 q 376 939 222 939 m 373 876 q 218 784 266 876 q 170 486 170 691 q 389 97 170 97 q 586 484 586 97 q 537 786 586 696 q 373 876 488 876 m 561 912 q 721 753 664 867 q 779 481 779 640 q 654 89 779 215 q 404 -14 554 -14 q 283 7 334 -14 q 172 80 232 28 l 178 85 q 395 3 277 3 q 663 127 566 3 q 759 473 759 252 q 710 741 759 635 q 561 906 662 846 l 561 912 z "},"1":{"ha":833,"x_min":155,"x_max":627,"o":"m 466 912 l 466 126 l 549 56 l 256 56 l 342 126 l 342 723 q 263 703 303 703 q 167 753 201 703 l 172 753 q 262 720 214 720 q 342 743 307 720 l 342 785 q 235 751 296 751 q 178 767 201 751 q 155 806 155 783 q 187 841 155 840 q 216 815 216 842 q 214 806 216 810 q 214 801 214 802 q 232 790 214 790 q 320 825 277 790 q 385 912 363 859 l 466 912 m 500 900 l 518 891 l 518 126 l 627 0 l 280 0 l 265 18 l 588 18 l 500 121 l 500 900 z "},"2":{"ha":833,"x_min":80,"x_max":763,"o":"m 711 245 l 711 56 l 80 56 q 168 248 104 165 q 350 404 231 330 q 494 511 457 471 q 566 697 566 591 q 518 829 566 781 q 385 878 469 878 q 265 837 312 878 q 218 732 218 795 q 248 649 218 682 q 323 615 277 615 q 406 656 368 615 l 417 650 q 369 565 408 597 q 275 532 330 532 q 146 581 197 532 q 96 704 96 629 q 177 868 96 803 q 380 932 258 932 q 605 858 513 932 q 696 675 696 783 q 476 397 696 519 l 372 340 q 191 158 258 277 q 187 153 189 156 l 231 153 q 424 327 283 250 l 517 377 q 681 506 630 438 q 732 660 732 573 q 618 876 732 790 l 623 882 q 752 660 752 814 q 530 362 752 483 l 437 311 q 256 153 288 231 l 467 153 q 640 170 597 153 q 697 245 682 187 l 711 245 m 763 221 l 763 0 l 146 0 l 134 18 l 745 18 l 745 221 l 763 221 m 557 693 q 397 822 517 822 q 312 792 347 822 q 277 719 277 762 q 339 633 277 660 l 339 624 q 282 657 304 630 q 260 722 260 685 q 299 807 260 772 q 397 841 338 841 q 512 799 466 841 q 557 693 557 757 m 459 619 q 394 512 436 546 q 284 478 352 478 q 148 554 195 478 l 153 554 l 161 548 q 223 504 199 515 q 281 493 248 493 q 443 625 417 493 l 459 619 z "},"3":{"ha":833,"x_min":70,"x_max":764,"o":"m 220 353 q 210 274 210 313 q 382 92 210 92 q 517 145 469 92 q 565 294 565 198 q 512 454 565 389 q 380 519 458 519 q 308 509 357 519 l 300 507 l 327 581 l 333 581 q 375 580 359 580 q 492 623 446 580 q 538 734 538 666 q 488 847 538 800 q 366 894 437 894 q 256 857 299 894 q 214 761 214 819 q 232 701 214 724 q 279 678 250 678 q 317 694 299 678 l 327 689 q 228 629 302 629 q 138 666 174 629 q 102 758 102 703 q 148 860 102 810 q 389 943 226 943 q 587 885 510 943 q 664 739 664 828 q 623 625 664 673 q 513 559 583 576 q 497 549 496 555 q 511 538 498 543 q 708 293 708 476 q 622 106 708 174 q 385 39 536 39 q 170 98 247 39 q 70 279 94 156 l 76 281 q 220 353 161 309 m 280 337 q 279 330 279 332 q 272 252 272 271 q 355 111 272 154 l 355 104 q 281 158 310 117 q 253 254 253 199 q 262 332 253 283 l 263 337 l 280 337 m 522 408 q 386 460 469 460 q 328 452 351 460 l 322 450 l 317 468 q 387 478 358 478 q 526 408 487 478 l 522 408 m 673 472 q 744 377 724 420 q 764 275 764 334 q 667 63 764 144 q 409 -17 569 -17 q 153 77 241 -17 l 153 81 l 159 75 q 406 -1 267 -1 q 650 77 555 -1 q 745 275 745 154 q 730 363 745 326 q 673 458 715 401 q 667 466 671 461 l 673 472 m 618 890 q 691 828 659 880 q 722 720 722 777 q 677 594 722 650 q 566 524 633 538 l 552 538 q 663 606 621 557 q 704 718 704 655 q 624 885 704 806 q 618 890 622 886 m 519 748 l 513 757 q 376 834 458 834 q 304 810 332 834 q 275 748 275 786 q 300 703 275 721 q 303 701 301 703 l 296 690 q 256 749 256 707 q 290 822 256 793 q 376 851 324 851 q 470 824 431 851 q 526 748 509 797 l 519 748 m 377 656 q 254 583 331 583 q 146 637 198 583 l 142 640 l 142 644 q 148 640 147 641 l 171 623 q 252 600 201 600 q 315 618 284 600 q 361 666 345 637 l 377 656 z "},"4":{"ha":833,"x_min":37,"x_max":787,"o":"m 450 912 l 450 906 q 341 635 428 793 q 143 351 254 478 l 139 346 l 139 329 l 174 329 l 178 334 q 369 596 299 471 q 491 889 439 720 l 493 895 l 507 886 l 505 877 q 196 329 403 540 l 437 329 l 437 627 q 441 629 439 628 q 551 732 517 677 l 564 732 l 564 329 l 597 329 l 597 705 l 615 701 l 615 329 q 705 310 675 329 q 736 254 736 291 q 723 219 736 233 q 690 205 710 205 q 647 237 647 205 q 652 256 647 250 l 656 261 q 658 267 658 264 q 623 283 658 283 l 610 283 l 564 283 l 564 127 l 644 56 l 353 56 l 437 123 l 437 229 l 60 229 l 45 246 l 437 246 l 437 283 l 37 283 l 37 306 l 41 310 q 210 604 138 425 q 282 912 282 783 l 450 912 m 733 307 q 770 283 754 304 q 787 238 787 262 q 769 188 787 208 q 726 168 751 168 q 673 184 701 168 l 673 193 q 718 180 699 180 q 757 197 741 180 q 773 239 773 214 q 768 266 773 257 q 737 302 763 275 q 733 307 736 304 m 723 0 l 382 0 l 366 18 l 685 18 l 597 121 l 597 239 l 615 239 l 615 127 l 723 0 z "},"5":{"ha":833,"x_min":47,"x_max":768,"o":"m 132 913 l 486 913 l 509 913 q 602 923 577 913 q 627 962 626 932 q 622 970 628 969 q 614 964 620 970 q 595 957 606 957 q 564 987 564 957 q 597 1019 564 1019 q 644 993 623 1019 q 665 936 665 967 q 607 839 665 869 q 425 808 549 808 l 193 808 l 193 578 l 204 587 q 231 606 218 598 l 231 772 l 428 772 l 486 772 l 574 782 q 661 833 627 794 q 695 921 695 873 q 677 993 695 955 l 681 993 l 686 985 q 709 909 709 943 q 646 797 709 840 q 484 753 583 753 l 429 753 l 249 753 l 249 615 q 387 648 312 648 q 623 562 534 648 q 713 336 713 476 q 620 109 713 192 q 366 25 526 25 q 149 84 234 25 q 47 248 64 144 l 56 252 q 205 342 155 302 q 199 269 199 304 q 244 129 199 179 q 374 79 290 79 q 517 151 465 79 q 569 349 569 223 q 518 528 569 465 q 373 590 467 590 q 175 473 250 590 l 132 500 l 132 913 m 640 581 q 734 473 700 542 q 768 322 768 404 q 665 66 768 164 q 396 -31 562 -31 q 193 26 287 -31 l 193 33 q 393 -11 294 -11 q 651 80 555 -11 q 747 325 747 171 q 640 576 747 474 l 640 581 m 266 320 q 259 254 259 281 q 290 161 259 201 q 375 104 321 121 l 375 96 q 277 151 315 104 q 240 264 240 197 q 249 325 240 292 l 266 320 m 536 447 l 529 457 q 379 537 468 537 q 294 517 330 537 q 218 447 259 498 l 203 455 q 380 553 267 553 q 542 447 492 553 l 536 447 z "},"6":{"ha":833,"x_min":57,"x_max":758,"o":"m 545 711 q 544 722 544 718 q 395 891 531 891 q 312 865 353 891 q 246 796 271 840 q 189 454 189 698 q 238 176 189 258 q 382 87 291 87 q 514 165 462 87 q 566 359 566 242 q 524 531 566 469 q 406 593 481 593 q 311 556 348 593 q 262 450 273 519 q 237 415 256 415 q 208 454 208 415 q 270 596 208 538 q 425 654 333 654 q 616 570 543 654 q 688 350 688 487 q 607 123 688 210 q 394 36 526 36 q 156 149 243 36 q 84 299 111 208 q 57 485 57 391 q 158 815 57 684 q 413 947 260 947 q 570 904 502 947 q 674 783 638 861 l 667 780 l 631 762 q 545 711 574 732 m 528 765 l 522 769 l 494 798 q 408 835 458 835 q 311 786 351 835 q 256 616 277 744 l 254 610 l 236 588 q 406 852 258 852 q 483 827 448 852 q 528 765 517 802 m 602 909 q 689 846 644 892 q 758 751 734 800 l 750 747 q 669 716 677 720 l 583 675 l 577 673 l 570 686 q 734 760 642 730 q 602 905 696 835 l 602 909 m 541 417 q 408 534 481 534 q 313 429 338 534 q 259 363 297 363 q 252 363 257 363 q 252 351 252 353 q 404 112 252 165 l 410 110 l 410 105 q 285 177 335 105 q 235 357 235 250 q 236 382 235 363 q 256 380 244 380 q 291 413 281 380 l 297 434 q 411 551 332 551 q 495 513 457 551 q 545 417 532 475 l 541 417 m 669 555 q 724 467 700 533 q 748 336 748 400 q 638 71 748 175 q 422 -20 543 -20 q 242 46 325 -20 l 236 51 l 236 55 q 422 -2 337 -2 q 625 84 534 -2 q 730 332 730 183 q 673 547 730 439 l 669 555 z "},"7":{"ha":833,"x_min":82,"x_max":779,"o":"m 726 912 q 633 641 712 789 l 569 519 q 473 104 473 338 l 474 56 l 292 56 q 317 214 292 115 q 492 549 355 363 l 576 665 q 628 755 602 700 l 256 755 l 256 741 l 256 727 q 161 592 256 592 q 100 613 128 592 l 131 613 q 159 608 146 608 q 238 721 238 608 l 239 749 l 239 772 l 635 772 l 639 780 q 648 808 646 797 l 199 808 l 199 779 q 131 638 199 638 q 96 648 111 638 q 82 673 82 659 q 112 705 82 705 q 134 696 123 705 q 145 690 140 690 q 163 742 163 690 l 164 779 l 164 912 l 726 912 m 779 886 q 688 613 766 755 l 621 492 q 536 123 536 338 q 542 9 536 75 l 543 0 l 329 0 l 319 18 l 520 18 q 515 110 515 63 q 608 505 515 339 l 671 618 q 762 878 743 747 l 764 886 l 779 886 z "},"8":{"ha":833,"x_min":48,"x_max":789,"o":"m 271 537 q 105 722 105 609 q 149 844 105 794 q 311 956 193 893 q 426 1024 389 996 l 447 1040 q 461 1058 462 1050 q 456 1065 461 1063 l 446 1070 q 430 1101 430 1077 q 467 1140 430 1140 q 500 1121 486 1140 q 515 1078 515 1102 q 393 949 515 1019 l 311 901 q 214 770 214 845 q 241 702 214 730 q 336 640 267 673 q 442 600 394 612 q 600 757 600 646 q 564 835 600 803 q 477 867 528 867 q 385 811 410 867 q 366 791 377 791 q 345 825 345 791 q 380 891 345 865 q 467 918 415 918 q 602 871 547 918 q 657 755 657 823 q 622 655 657 699 q 503 566 587 612 q 512 562 511 563 l 544 549 q 551 545 545 548 q 695 737 695 616 q 685 793 695 770 q 637 865 674 816 q 631 872 635 867 q 711 729 711 823 q 671 619 711 673 q 568 537 631 566 q 693 425 648 494 q 738 276 738 356 q 647 93 738 163 q 413 22 557 22 q 151 97 253 22 q 48 287 48 171 q 98 424 48 366 q 258 532 148 482 l 271 537 m 404 477 q 226 282 226 409 q 317 108 226 184 l 317 102 q 238 180 267 131 q 209 285 209 229 q 385 485 209 425 l 317 507 q 163 291 163 430 q 234 130 163 190 q 427 70 306 70 q 575 117 521 70 q 630 244 630 163 q 579 374 630 319 q 417 473 528 429 l 404 477 m 522 1131 q 557 1062 557 1098 q 461 934 557 994 l 454 930 l 427 930 q 539 1061 539 996 q 515 1124 539 1089 l 522 1131 m 681 475 q 759 394 728 451 q 789 271 789 336 q 688 54 789 136 q 421 -29 587 -29 q 165 54 260 -29 l 165 58 l 176 51 q 284 3 229 17 q 419 -12 339 -12 q 675 66 579 -12 q 772 275 772 144 q 719 427 772 362 l 687 467 q 681 475 686 467 m 580 774 q 496 816 541 816 q 414 774 441 816 l 404 774 q 496 833 433 833 q 586 774 557 833 l 580 774 m 335 850 q 269 755 269 805 q 302 683 269 710 l 298 678 q 252 764 252 716 q 335 872 252 817 l 335 850 z "},"9":{"ha":833,"x_min":68,"x_max":760,"o":"m 559 380 q 338 285 475 285 q 227 310 280 285 q 146 376 173 335 l 146 380 q 336 303 201 303 q 567 420 486 303 q 570 522 570 473 q 532 768 570 691 q 460 849 506 819 q 363 880 414 880 q 238 815 284 880 q 193 642 193 751 q 241 475 193 536 q 372 414 289 414 q 518 530 494 414 l 524 558 q 541 574 527 574 q 562 536 562 574 q 495 397 562 454 q 332 340 429 340 q 142 417 216 340 q 68 613 68 494 q 154 838 68 747 q 368 929 241 929 q 607 810 514 929 q 699 503 699 691 q 628 198 699 337 q 428 -23 556 60 q 156 -107 298 -107 q 115 -85 115 -107 q 144 -64 115 -67 q 421 68 315 -45 q 559 380 526 182 m 524 746 q 382 824 459 824 q 256 633 256 824 q 286 499 256 554 q 368 429 316 444 l 368 424 q 272 491 308 434 q 236 635 236 549 q 274 788 236 734 q 381 843 312 843 q 465 817 426 843 q 524 746 504 790 m 567 888 q 760 503 760 783 q 571 22 760 216 q 383 -111 489 -62 q 174 -159 277 -159 l 157 -158 l 152 -142 q 455 -49 315 -142 q 666 185 590 39 q 742 500 742 330 q 567 881 742 774 l 567 888 z "}," ":{"ha":347,"x_min":0,"x_max":0,"o":""}," ":{"ha":347,"x_min":0,"x_max":0,"o":""},"!":{"ha":449,"x_min":37,"x_max":412,"o":"m 190 907 q 237 795 208 833 q 326 729 265 758 l 319 718 q 229 528 255 618 q 197 294 203 439 l 197 284 l 174 284 l 174 298 q 136 543 174 419 q 37 739 98 667 q 133 802 103 768 q 190 907 163 836 m 412 739 l 404 729 q 289 527 323 624 q 245 274 255 431 l 245 267 l 225 267 q 268 520 225 392 q 379 733 310 648 q 232 880 259 803 l 254 869 q 412 739 303 795 m 191 221 q 254 195 228 221 q 279 133 279 170 q 254 71 279 97 q 191 45 228 45 q 130 71 155 45 q 104 133 104 97 q 130 195 104 170 q 191 221 155 221 m 302 193 q 340 106 340 158 q 306 25 340 60 q 226 -9 271 -9 q 137 31 171 -9 l 142 36 q 220 10 185 10 q 293 40 263 10 q 323 110 323 69 q 296 188 323 149 l 302 193 z "},"\"":{"ha":469,"x_min":46,"x_max":423,"o":"m 165 926 l 120 652 l 66 652 l 46 926 l 165 926 m 111 601 l 87 614 l 152 614 l 205 898 l 220 890 l 168 601 l 111 601 m 368 926 l 322 652 l 269 652 l 248 926 l 368 926 m 313 601 l 289 614 l 354 614 l 407 898 l 423 890 l 370 601 l 313 601 z "},"#":{"ha":814,"x_min":43,"x_max":772,"o":"m 439 319 l 348 319 l 303 0 l 215 0 l 202 16 l 286 16 l 332 338 l 442 338 l 448 376 l 297 376 l 252 56 l 164 56 l 201 319 l 67 319 l 60 338 l 203 338 l 209 376 l 43 376 l 43 433 l 217 433 l 229 517 l 96 517 l 89 536 l 232 536 l 237 575 l 75 575 l 75 633 l 245 633 l 286 926 l 375 926 l 334 633 l 373 633 l 410 897 l 428 892 l 392 633 l 483 633 l 524 926 l 611 926 l 570 633 l 610 633 l 647 897 l 665 892 l 629 633 l 722 633 l 722 575 l 562 575 l 542 433 l 581 433 l 596 536 l 760 536 l 758 621 l 771 606 l 772 517 l 612 517 l 600 433 l 692 433 l 692 376 l 534 376 l 489 56 l 403 56 l 439 319 m 467 517 l 376 517 l 363 433 l 456 433 l 467 517 m 475 575 l 326 575 l 305 433 l 345 433 l 359 536 l 470 536 l 475 575 m 540 0 l 452 0 l 439 16 l 523 16 l 568 338 l 732 338 l 730 422 l 743 407 l 745 319 l 585 319 l 540 0 z "},"$":{"ha":814,"x_min":22,"x_max":792,"o":"m 699 933 q 589 711 623 812 l 588 705 l 584 705 q 424 892 557 854 l 424 594 l 465 583 l 465 848 q 515 818 500 831 q 551 770 530 804 l 545 770 l 540 774 q 482 819 503 808 l 482 578 l 493 574 q 651 505 606 542 q 734 320 734 434 q 651 132 734 209 q 446 54 567 54 q 424 56 439 54 l 424 -70 l 369 -70 l 369 3 l 358 5 q 276 24 304 16 l 213 39 q 126 50 170 50 q 54 35 90 50 l 45 56 q 119 70 83 70 q 281 41 165 70 q 360 24 322 32 l 369 22 l 369 61 q 203 97 318 67 q 117 111 152 111 q 28 84 75 111 l 22 95 l 28 104 q 140 334 106 233 l 151 334 q 221 181 164 239 q 369 113 278 123 l 369 402 l 355 406 q 184 460 220 441 q 132 524 148 479 l 157 511 q 277 448 177 473 l 359 427 l 369 425 l 369 461 l 355 464 q 166 530 216 493 q 107 607 130 559 q 85 708 85 656 q 161 889 85 822 q 369 956 238 956 l 369 1048 l 424 1048 l 424 952 q 465 943 447 948 l 465 1024 l 482 1011 l 482 943 q 567 922 498 940 q 627 913 602 913 q 694 938 663 913 l 699 933 m 481 110 q 585 163 548 124 q 622 260 622 203 q 580 367 622 319 q 525 412 553 397 q 431 445 496 427 l 422 448 l 422 107 q 430 107 427 107 q 456 110 432 107 q 464 110 459 110 l 464 398 q 597 307 572 374 l 592 307 q 481 374 551 357 l 481 110 m 368 607 l 368 846 q 293 814 321 842 q 264 743 264 786 q 337 637 264 682 l 337 632 q 245 745 245 671 q 281 829 245 794 q 368 865 317 865 l 368 901 q 252 860 300 901 q 203 760 203 818 q 359 609 203 650 l 368 607 m 743 905 l 736 895 q 663 755 692 817 l 636 697 l 633 689 l 616 695 q 623 708 622 707 l 652 772 q 726 913 690 856 l 743 905 m 699 500 q 792 309 792 433 q 712 110 792 199 q 517 5 631 21 l 487 1 l 481 0 l 481 -122 l 406 -122 l 391 -104 l 464 -104 l 464 19 q 586 47 519 19 q 722 154 671 82 q 772 312 772 227 q 699 496 772 420 l 699 500 m 218 307 q 258 204 230 241 q 351 131 286 168 l 351 127 q 249 189 291 142 q 199 302 208 237 l 218 307 z "},"%":{"ha":869,"x_min":23,"x_max":850,"o":"m 690 924 l 204 50 l 145 50 l 629 924 l 690 924 m 716 909 l 727 890 l 238 -1 l 173 -1 l 162 17 l 229 17 l 716 909 m 253 848 q 218 861 235 861 q 170 832 183 861 q 157 725 157 802 q 203 552 157 600 l 194 552 q 152 613 163 576 q 140 727 140 651 q 155 844 140 812 q 213 876 171 876 q 258 848 240 876 l 253 848 m 198 953 q 327 885 277 953 q 377 710 377 818 q 332 546 377 604 q 204 488 286 488 q 71 551 119 488 q 23 726 23 614 q 71 891 23 829 q 198 953 119 953 m 199 898 q 130 857 151 898 q 109 720 109 815 q 204 535 109 535 q 292 716 292 535 q 199 898 292 898 m 322 920 l 332 920 q 406 832 380 889 q 433 705 433 776 q 381 527 433 596 q 250 458 330 458 q 193 475 216 458 l 203 475 q 238 469 221 469 q 365 535 315 469 q 416 704 416 602 q 322 920 416 831 m 671 361 q 635 375 653 375 q 578 300 578 375 l 575 216 l 577 182 q 621 66 585 103 l 612 66 q 569 128 581 92 q 557 241 557 165 q 573 358 557 327 q 631 390 589 390 q 676 361 658 390 l 671 361 m 616 467 q 745 399 694 467 q 795 225 795 332 q 750 60 795 119 q 622 2 705 2 q 489 65 538 2 q 441 240 441 129 q 489 405 441 343 q 616 467 536 467 m 617 412 q 548 371 569 412 q 527 235 527 330 q 622 50 527 50 q 710 230 710 50 q 617 412 710 412 m 740 435 l 750 435 q 824 347 798 404 q 850 220 850 290 q 800 42 850 111 q 667 -27 749 -27 q 610 -11 633 -27 l 621 -11 q 657 -17 637 -17 q 784 50 734 -17 q 834 218 834 116 q 740 435 834 345 z "},"&":{"ha":1114,"x_min":92,"x_max":1012,"o":"m 380 629 q 362 754 362 696 q 408 900 362 845 q 528 955 453 955 q 645 909 597 955 q 694 800 694 864 q 509 612 694 670 q 660 313 581 428 q 677 364 671 336 q 561 586 606 472 l 570 590 q 732 788 732 656 q 700 888 732 836 l 694 897 q 749 778 749 850 q 585 574 749 649 q 680 387 632 461 q 683 452 683 420 q 677 534 683 502 l 684 530 q 855 431 774 460 q 709 235 774 349 q 863 123 789 123 q 913 140 892 123 l 925 151 q 943 159 935 159 q 966 140 966 159 q 921 83 966 111 q 832 55 876 55 q 684 106 764 55 q 436 1 587 1 q 196 92 296 1 l 200 98 q 436 19 309 19 q 668 117 578 19 q 643 137 654 127 q 420 61 545 61 q 184 139 276 61 q 92 340 92 218 q 158 513 92 445 q 368 626 224 581 l 380 629 m 416 520 q 294 324 294 452 q 330 205 294 254 q 429 136 365 156 l 429 127 q 319 190 361 137 q 277 317 277 243 q 409 538 277 458 l 406 547 q 397 570 401 558 q 275 473 319 538 q 232 324 232 408 q 287 175 232 235 q 425 115 342 115 q 592 195 517 115 q 416 520 504 316 m 542 686 q 615 803 615 724 q 590 874 615 846 q 526 903 564 903 q 450 814 450 903 q 490 663 450 743 q 497 667 495 666 l 515 673 q 524 677 517 674 q 491 802 491 756 q 545 870 491 870 q 591 848 567 870 l 587 841 l 581 844 q 547 855 563 855 q 505 800 505 855 q 542 686 505 751 m 890 383 q 783 243 813 302 l 781 237 l 786 231 q 892 165 844 165 q 916 169 902 165 l 916 163 q 880 153 899 153 q 764 237 817 153 q 878 393 814 329 l 890 383 m 1012 104 q 957 31 998 61 q 872 1 917 1 q 764 39 809 1 l 764 45 q 857 18 809 18 q 992 106 942 18 l 995 111 l 1012 104 z "},"'":{"ha":267,"x_min":46,"x_max":220,"o":"m 165 927 l 120 654 l 66 654 l 46 927 l 165 927 m 111 602 l 87 615 l 152 615 l 205 899 l 220 891 l 168 602 l 111 602 z "},"(":{"ha":617,"x_min":88,"x_max":516,"o":"m 499 1023 l 516 1006 l 516 927 q 486 928 495 928 q 372 876 416 928 q 315 755 330 829 q 300 534 300 682 q 359 50 300 163 q 465 -7 382 5 l 465 -68 q 235 22 337 -68 q 121 203 155 94 q 88 505 88 312 q 115 757 88 661 q 205 926 142 854 q 311 1009 254 982 q 465 1046 369 1036 l 465 985 q 307 909 365 974 q 251 786 267 865 q 235 547 235 707 q 286 129 235 235 q 343 47 307 83 q 295 225 309 109 q 281 558 281 342 q 345 871 281 785 q 484 945 400 945 l 499 945 l 499 1023 m 516 -54 l 516 -130 q 353 -86 428 -119 q 235 -2 278 -52 l 235 1 q 446 -101 317 -82 l 487 -107 q 499 -109 489 -107 l 499 -38 l 516 -54 z "},")":{"ha":617,"x_min":102,"x_max":530,"o":"m 102 1046 q 296 975 204 1040 q 465 524 465 854 q 316 9 465 139 q 102 -82 227 -68 l 102 -18 q 194 30 163 3 q 250 106 226 56 q 299 290 285 178 q 314 598 314 402 q 267 878 314 791 q 102 986 219 965 l 102 1046 m 328 993 q 481 812 433 928 q 530 508 530 696 q 437 62 530 216 q 146 -130 345 -92 l 135 -117 q 423 68 334 -80 q 511 511 511 216 q 470 798 511 695 q 316 993 428 901 l 328 993 z "},"*":{"ha":486,"x_min":28,"x_max":463,"o":"m 245 701 q 202 562 209 654 l 201 551 l 187 569 q 238 713 193 661 q 224 732 232 722 q 164 577 164 650 l 64 650 q 172 725 118 664 q 123 727 141 727 q 74 724 104 727 l 53 738 q 90 741 78 741 q 176 729 127 741 q 194 753 186 741 q 90 770 140 770 q 28 762 59 770 l 66 879 q 203 787 103 821 q 161 949 203 884 l 284 949 q 240 789 240 894 q 275 802 256 795 q 318 916 288 873 l 323 890 q 281 805 300 854 q 380 879 347 837 l 418 762 q 356 774 389 774 q 253 755 311 774 q 382 650 310 677 l 282 577 q 283 590 283 585 q 245 701 283 636 m 330 722 q 450 652 385 671 l 332 558 l 311 560 l 422 647 q 292 732 358 667 q 382 750 336 750 q 444 741 415 750 l 412 853 l 431 842 l 463 722 q 395 732 431 732 q 330 722 361 732 z "},"+":{"ha":815,"x_min":104,"x_max":711,"o":"m 337 779 l 422 779 l 422 538 l 458 538 l 458 741 l 477 730 l 477 538 l 656 538 l 656 453 l 422 453 l 422 227 l 337 227 l 337 397 l 138 397 l 126 416 l 337 416 l 337 453 l 104 453 l 104 538 l 337 538 l 337 779 m 477 397 l 477 156 l 389 156 l 374 172 l 458 172 l 458 416 l 696 416 l 696 500 l 711 486 l 711 397 l 477 397 z "},",":{"ha":363,"x_min":23,"x_max":288,"o":"m 209 206 q 229 113 229 159 q 28 -121 229 -56 l 23 -111 l 30 -105 q 100 35 100 -47 q 64 136 100 93 q 77 140 72 138 q 209 206 151 168 m 276 186 q 288 111 288 144 q 63 -168 288 -81 l 54 -149 l 66 -144 q 224 -33 180 -99 q 269 106 269 35 q 257 195 269 140 l 276 186 z "},"-":{"ha":436,"x_min":0,"x_max":436,"o":"m 338 524 l 368 444 l 28 444 l 0 524 l 338 524 m 436 395 l 73 395 l 58 414 l 410 414 l 379 507 l 401 491 l 436 395 z "},".":{"ha":370,"x_min":67,"x_max":303,"o":"m 155 221 q 217 195 191 221 q 243 133 243 170 q 217 71 243 97 q 155 45 191 45 q 93 71 119 45 q 67 133 67 97 q 93 195 67 170 q 155 221 119 221 m 266 193 q 303 106 303 158 q 269 25 303 60 q 189 -9 235 -9 q 100 31 134 -9 l 105 36 q 184 10 149 10 q 257 40 227 10 q 287 110 287 69 q 260 188 287 149 l 266 193 z "},"/":{"ha":667,"x_min":-33,"x_max":743,"o":"m 698 1042 l 31 -66 l -33 -66 l 634 1042 l 698 1042 m -20 -106 l 52 -106 l 730 1022 l 743 1008 l 62 -125 l -13 -125 l -20 -106 z "},":":{"ha":370,"x_min":66,"x_max":302,"o":"m 154 721 q 216 695 191 721 q 242 633 242 669 q 216 571 242 597 q 154 545 191 545 q 92 571 118 545 q 66 633 66 597 q 92 695 66 669 q 154 721 118 721 m 265 693 q 302 606 302 658 q 268 526 302 560 q 189 491 234 491 q 100 531 134 491 l 104 536 q 183 511 148 511 q 256 540 226 511 q 286 610 286 569 q 259 688 286 648 l 265 693 m 154 221 q 216 195 191 221 q 242 133 242 170 q 216 71 242 97 q 154 45 191 45 q 92 71 118 45 q 66 133 66 97 q 92 195 66 170 q 154 221 118 221 m 265 193 q 302 106 302 158 q 268 25 302 60 q 189 -9 234 -9 q 100 31 134 -9 l 104 36 q 183 10 148 10 q 256 40 226 10 q 286 110 286 69 q 259 188 286 149 l 265 193 z "},";":{"ha":363,"x_min":23,"x_max":300,"o":"m 209 206 q 229 113 229 159 q 28 -121 229 -56 l 23 -111 l 30 -105 q 100 35 100 -47 q 64 136 100 93 q 77 140 72 138 q 209 206 151 168 m 276 186 q 288 111 288 144 q 63 -168 288 -81 l 54 -149 l 66 -144 q 224 -33 180 -99 q 269 106 269 35 q 257 195 269 140 l 276 186 m 151 721 q 213 695 187 721 q 239 633 239 669 q 213 571 239 597 q 151 545 187 545 q 89 571 115 545 q 63 633 63 597 q 89 695 63 669 q 151 721 115 721 m 262 693 q 300 606 300 658 q 266 526 300 560 q 185 491 231 491 q 96 531 130 491 l 101 536 q 180 511 144 511 q 253 540 222 511 q 283 610 283 569 q 256 688 283 648 l 262 693 z "},"<":{"ha":694,"x_min":58,"x_max":637,"o":"m 637 865 l 637 796 l 243 542 l 637 277 l 637 95 l 58 486 l 58 496 l 637 865 z "},"=":{"ha":815,"x_min":104,"x_max":711,"o":"m 656 654 l 656 569 l 104 569 l 104 654 l 656 654 m 696 616 l 711 601 l 711 513 l 139 513 l 127 532 l 696 532 l 696 616 m 656 422 l 656 337 l 104 337 l 104 422 l 656 422 m 696 385 l 711 370 l 711 281 l 139 281 l 127 300 l 696 300 l 696 385 z "},">":{"ha":694,"x_min":58,"x_max":637,"o":"m 58 95 l 58 163 l 452 417 l 58 683 l 58 865 l 637 473 l 637 463 l 58 95 z "},"?":{"ha":603,"x_min":23,"x_max":585,"o":"m 73 582 q 23 709 23 642 q 91 849 23 795 q 267 903 159 903 q 453 843 378 903 q 527 692 527 783 q 496 582 527 629 q 389 484 465 535 l 317 436 q 255 375 282 412 q 229 314 227 337 l 231 277 q 224 260 231 267 q 208 254 218 253 q 180 276 193 254 q 168 326 168 298 q 271 524 168 418 q 362 633 339 593 q 386 720 386 673 q 352 813 386 778 q 262 849 318 849 q 182 820 216 849 q 148 749 148 790 q 203 671 148 705 q 197 667 197 667 l 160 646 q 73 582 121 623 m 485 863 q 585 677 585 790 q 536 537 585 602 q 391 415 511 504 l 353 387 q 283 290 283 336 q 302 234 283 266 l 277 241 q 265 290 265 264 q 290 355 265 326 q 378 430 314 385 q 528 559 488 505 q 569 685 569 614 q 545 784 569 737 q 480 857 521 830 l 485 863 m 288 660 l 273 652 q 121 555 173 594 l 115 551 l 104 566 l 111 570 q 252 660 201 633 q 197 751 197 695 q 219 799 197 779 q 275 818 241 818 q 371 745 339 818 l 367 745 q 273 800 326 800 q 214 747 214 800 q 288 660 214 691 m 271 221 q 333 195 307 221 q 359 133 359 170 q 333 71 359 97 q 271 45 307 45 q 209 71 235 45 q 183 133 183 97 q 209 195 183 170 q 271 221 235 221 m 381 193 q 419 106 419 158 q 385 25 419 60 q 304 -9 351 -9 q 216 31 250 -9 l 220 36 q 300 10 264 10 q 372 40 342 10 q 403 110 403 69 q 376 188 403 148 l 381 193 z "},"@":{"ha":1000,"x_min":33,"x_max":962,"o":"m 573 267 q 433 201 504 201 q 326 252 371 201 l 326 255 q 435 217 368 217 q 558 275 497 217 l 568 286 q 680 218 612 218 q 863 324 785 218 q 941 570 941 429 q 885 770 941 685 q 722 901 828 856 l 723 909 q 899 780 836 870 q 962 570 962 690 q 879 311 962 422 q 686 199 796 199 q 573 267 616 199 m 257 75 l 257 80 q 500 3 345 3 q 681 32 604 3 q 821 127 757 62 l 833 116 q 699 20 787 54 q 500 -14 610 -14 q 365 6 420 -14 q 257 75 311 26 m 548 677 q 520 690 534 690 q 437 621 469 690 q 405 441 405 552 q 446 305 405 331 l 446 301 q 388 450 388 317 q 425 633 388 563 q 520 703 461 703 q 553 681 539 703 l 548 677 m 721 729 l 736 711 l 700 420 q 697 388 697 399 q 721 323 697 347 q 806 420 774 351 q 838 579 838 489 q 740 802 838 710 q 503 895 642 895 q 228 770 342 895 q 113 471 113 646 q 220 198 113 308 q 484 88 326 88 q 741 174 622 88 q 774 189 760 187 q 789 176 789 190 q 742 123 788 153 q 473 44 625 44 q 161 171 289 44 q 33 481 33 298 q 215 844 33 705 q 490 939 341 939 q 781 836 665 939 q 897 578 897 732 q 828 356 897 452 q 666 261 758 261 q 569 354 576 261 q 421 256 511 256 q 298 314 344 256 q 252 468 252 372 q 326 680 252 591 q 503 768 399 768 q 597 747 545 768 q 640 736 624 736 q 678 747 662 736 l 687 741 l 652 465 l 646 406 q 644 374 644 385 q 656 332 644 349 q 688 316 669 316 q 710 319 696 316 q 679 385 679 342 q 682 422 679 395 l 721 729 m 565 482 l 576 583 q 577 597 577 587 q 554 695 577 659 q 492 732 530 732 q 391 654 430 732 q 353 451 353 576 q 375 334 353 376 q 439 292 398 292 q 521 342 488 292 q 565 482 554 392 m 684 816 l 670 820 q 528 841 592 841 q 272 729 374 841 q 170 451 170 618 q 219 263 170 345 q 353 141 267 180 l 347 134 q 151 452 151 227 q 259 742 151 626 q 528 859 367 859 q 684 816 636 859 z "},"A":{"ha":1051,"x_min":0,"x_max":1056,"o":"m 656 926 l 585 846 l 696 550 l 724 565 l 623 832 l 695 915 l 713 907 l 644 828 l 739 575 q 749 583 747 581 l 771 602 q 797 625 791 618 q 851 486 814 547 q 823 488 831 488 q 728 467 758 488 l 851 134 l 953 56 l 610 56 l 704 134 l 629 332 q 514 189 554 257 l 498 193 q 618 342 538 260 l 623 349 l 610 378 q 477 222 530 311 l 465 242 q 374 370 429 298 l 368 378 q 315 190 315 262 q 330 118 315 147 q 400 19 345 88 q 415 0 405 13 l 49 0 l 35 18 l 380 18 l 369 33 q 310 117 324 87 q 296 188 296 147 q 353 394 296 257 l 323 425 q 300 361 314 404 l 278 292 q 260 200 260 237 q 273 137 260 162 q 327 68 286 112 q 339 56 331 64 l 0 56 q 154 191 97 106 q 266 452 210 275 l 269 462 q 165 499 233 492 q 222 615 202 555 q 234 604 232 606 l 264 576 q 302 545 280 561 l 314 575 l 306 582 q 249 630 272 612 l 243 635 l 254 650 q 323 595 290 626 l 415 848 l 343 926 l 656 926 m 488 708 l 414 511 q 420 503 420 505 l 448 472 q 505 396 471 448 l 512 386 q 581 458 541 422 l 488 708 m 458 787 l 350 502 q 439 397 401 449 l 470 354 q 477 345 471 353 q 484 353 483 351 l 493 364 q 500 373 495 367 q 390 505 453 446 l 477 734 l 458 787 m 857 592 q 931 425 871 531 q 914 427 916 427 l 859 431 q 805 435 822 435 q 791 434 802 435 l 905 134 l 1056 0 l 663 0 l 650 18 l 1010 18 l 888 126 l 768 446 q 821 452 791 452 q 902 446 857 452 l 894 460 q 836 605 850 541 l 857 592 z "},"a":{"ha":1051,"x_min":0,"x_max":1056,"o":"m 656 926 l 585 846 l 696 550 l 724 565 l 623 832 l 695 915 l 713 907 l 644 828 l 739 575 q 749 583 747 581 l 771 602 q 797 625 791 618 q 851 486 814 547 q 823 488 831 488 q 728 467 758 488 l 851 134 l 953 56 l 610 56 l 704 134 l 629 332 q 514 189 554 257 l 498 193 q 618 342 538 260 l 623 349 l 610 378 q 477 222 530 311 l 465 242 q 374 370 429 298 l 368 378 q 315 190 315 262 q 330 118 315 147 q 400 19 345 88 q 415 0 405 13 l 49 0 l 35 18 l 380 18 l 369 33 q 310 117 324 87 q 296 188 296 147 q 353 394 296 257 l 323 425 q 300 361 314 404 l 278 292 q 260 200 260 237 q 273 137 260 162 q 327 68 286 112 q 339 56 331 64 l 0 56 q 154 191 97 106 q 266 452 210 275 l 269 462 q 165 499 233 492 q 222 615 202 555 q 234 604 232 606 l 264 576 q 302 545 280 561 l 314 575 l 306 582 q 249 630 272 612 l 243 635 l 254 650 q 323 595 290 626 l 415 848 l 343 926 l 656 926 m 488 708 l 414 511 q 420 503 420 505 l 448 472 q 505 396 471 448 l 512 386 q 581 458 541 422 l 488 708 m 458 787 l 350 502 q 439 397 401 449 l 470 354 q 477 345 471 353 q 484 353 483 351 l 493 364 q 500 373 495 367 q 390 505 453 446 l 477 734 l 458 787 m 857 592 q 931 425 871 531 q 914 427 916 427 l 859 431 q 805 435 822 435 q 791 434 802 435 l 905 134 l 1056 0 l 663 0 l 650 18 l 1010 18 l 888 126 l 768 446 q 821 452 791 452 q 902 446 857 452 l 894 460 q 836 605 850 541 l 857 592 z "},"B":{"ha":898,"x_min":9,"x_max":838,"o":"m 45 833 q 408 940 207 940 q 646 874 553 940 q 738 705 738 809 q 578 520 738 567 l 578 513 q 617 502 594 509 q 735 574 692 519 q 779 705 779 628 q 699 876 779 801 l 699 880 l 707 873 q 795 698 795 805 q 642 492 795 550 q 746 405 709 461 q 783 278 783 349 q 709 116 783 177 q 514 56 636 56 l 28 56 l 122 136 l 122 429 q 28 421 82 429 l 23 441 q 122 447 83 447 l 122 483 l 105 483 q 9 477 67 483 l 39 543 l 50 542 q 90 540 77 540 q 122 538 111 540 l 122 793 l 45 833 m 258 844 l 258 538 q 268 538 265 538 l 280 538 q 292 538 283 538 l 292 815 q 406 842 350 842 q 506 819 469 842 q 569 741 543 796 l 550 751 q 405 828 499 828 q 310 798 352 828 l 310 538 l 338 538 q 531 581 468 538 q 595 713 595 624 q 542 839 595 791 q 404 886 490 886 q 258 844 329 886 m 258 482 l 258 109 l 292 109 l 292 441 q 361 445 340 445 q 524 424 473 445 q 604 344 574 403 l 596 344 q 513 409 563 391 q 366 427 463 427 l 310 425 l 310 109 l 332 109 l 430 112 q 621 298 621 125 q 558 445 621 406 q 322 485 495 485 q 258 482 305 485 m 766 435 q 838 264 838 378 q 758 73 838 149 q 526 0 679 0 l 65 0 l 54 18 l 481 18 q 683 47 621 18 q 820 269 820 111 q 758 429 820 357 l 766 435 z "},"b":{"ha":898,"x_min":9,"x_max":838,"o":"m 45 833 q 408 940 207 940 q 646 874 553 940 q 738 705 738 809 q 578 520 738 567 l 578 513 q 617 502 594 509 q 735 574 692 519 q 779 705 779 628 q 699 876 779 801 l 699 880 l 707 873 q 795 698 795 805 q 642 492 795 550 q 746 405 709 461 q 783 278 783 349 q 709 116 783 177 q 514 56 636 56 l 28 56 l 122 136 l 122 429 q 28 421 82 429 l 23 441 q 122 447 83 447 l 122 483 l 105 483 q 9 477 67 483 l 39 543 l 50 542 q 90 540 77 540 q 122 538 111 540 l 122 793 l 45 833 m 258 844 l 258 538 q 268 538 265 538 l 280 538 q 292 538 283 538 l 292 815 q 406 842 350 842 q 506 819 469 842 q 569 741 543 796 l 550 751 q 405 828 499 828 q 310 798 352 828 l 310 538 l 338 538 q 531 581 468 538 q 595 713 595 624 q 542 839 595 791 q 404 886 490 886 q 258 844 329 886 m 258 482 l 258 109 l 292 109 l 292 441 q 361 445 340 445 q 524 424 473 445 q 604 344 574 403 l 596 344 q 513 409 563 391 q 366 427 463 427 l 310 425 l 310 109 l 332 109 l 430 112 q 621 298 621 125 q 558 445 621 406 q 322 485 495 485 q 258 482 305 485 m 766 435 q 838 264 838 378 q 758 73 838 149 q 526 0 679 0 l 65 0 l 54 18 l 481 18 q 683 47 621 18 q 820 269 820 111 q 758 429 820 357 l 766 435 z "},"C":{"ha":808,"x_min":33,"x_max":790,"o":"m 741 905 l 733 892 q 627 679 672 785 l 621 663 l 612 668 q 540 831 597 771 q 402 892 483 892 q 258 817 316 892 q 186 499 186 723 q 253 197 186 307 q 438 88 319 88 q 590 152 533 88 q 657 333 646 215 q 680 361 660 361 q 707 317 707 361 q 677 181 707 252 q 416 32 614 32 q 136 156 240 32 q 33 490 33 279 q 140 817 33 685 q 408 948 248 948 q 581 911 484 948 q 665 891 632 891 q 730 911 701 891 l 741 905 m 544 787 q 427 837 482 837 q 252 502 252 837 q 292 248 252 349 q 407 117 333 146 l 407 110 q 279 233 327 126 q 231 503 231 340 q 424 854 231 854 q 544 796 489 854 l 544 787 m 765 321 q 671 65 754 153 q 439 -22 588 -22 q 228 47 326 -22 l 228 53 q 437 -4 315 -4 q 656 82 572 -4 q 718 176 698 124 q 744 315 737 229 l 745 330 l 765 321 m 790 872 l 783 859 q 665 629 709 733 l 646 638 l 654 655 q 713 773 688 726 l 768 869 l 774 882 l 790 872 z "},"c":{"ha":808,"x_min":33,"x_max":790,"o":"m 741 905 l 733 892 q 627 679 672 785 l 621 663 l 612 668 q 540 831 597 771 q 402 892 483 892 q 258 817 316 892 q 186 499 186 723 q 253 197 186 307 q 438 88 319 88 q 590 152 533 88 q 657 333 646 215 q 680 361 660 361 q 707 317 707 361 q 677 181 707 252 q 416 32 614 32 q 136 156 240 32 q 33 490 33 279 q 140 817 33 685 q 408 948 248 948 q 581 911 484 948 q 665 891 632 891 q 730 911 701 891 l 741 905 m 544 787 q 427 837 482 837 q 252 502 252 837 q 292 248 252 349 q 407 117 333 146 l 407 110 q 279 233 327 126 q 231 503 231 340 q 424 854 231 854 q 544 796 489 854 l 544 787 m 765 321 q 671 65 754 153 q 439 -22 588 -22 q 228 47 326 -22 l 228 53 q 437 -4 315 -4 q 656 82 572 -4 q 718 176 698 124 q 744 315 737 229 l 745 330 l 765 321 m 790 872 l 783 859 q 665 629 709 733 l 646 638 l 654 655 q 713 773 688 726 l 768 869 l 774 882 l 790 872 z "},"D":{"ha":839,"x_min":28,"x_max":807,"o":"m 48 926 l 315 926 q 606 850 511 926 q 746 502 746 739 q 623 146 746 256 q 499 76 568 96 q 316 56 430 56 l 28 56 l 121 127 l 121 848 l 48 926 m 254 869 l 254 108 l 291 108 l 291 824 q 355 829 326 829 q 443 818 411 829 q 508 777 475 807 q 354 811 436 811 q 308 808 336 811 l 308 108 q 423 120 384 108 q 498 169 463 133 q 596 504 596 269 q 490 818 596 734 q 286 869 425 869 l 254 869 m 70 0 l 60 18 l 308 18 q 586 69 491 18 q 790 489 790 178 q 699 798 790 697 l 671 828 q 663 838 670 829 q 807 492 807 747 q 665 98 807 224 q 308 0 555 0 l 70 0 z "},"d":{"ha":839,"x_min":28,"x_max":807,"o":"m 48 926 l 315 926 q 606 850 511 926 q 746 502 746 739 q 623 146 746 256 q 499 76 568 96 q 316 56 430 56 l 28 56 l 121 127 l 121 848 l 48 926 m 254 869 l 254 108 l 291 108 l 291 824 q 355 829 326 829 q 443 818 411 829 q 508 777 475 807 q 354 811 436 811 q 308 808 336 811 l 308 108 q 423 120 384 108 q 498 169 463 133 q 596 504 596 269 q 490 818 596 734 q 286 869 425 869 l 254 869 m 70 0 l 60 18 l 308 18 q 586 69 491 18 q 790 489 790 178 q 699 798 790 697 l 671 828 q 663 838 670 829 q 807 492 807 747 q 665 98 807 224 q 308 0 555 0 l 70 0 z "},"E":{"ha":863,"x_min":0,"x_max":877,"o":"m 763 926 l 752 913 q 642 718 683 828 q 632 741 635 734 q 552 846 595 823 q 399 870 509 870 q 277 867 348 870 l 277 555 l 320 555 l 320 831 q 418 836 372 836 q 545 817 505 836 q 618 746 586 799 q 604 756 608 753 q 525 808 549 800 q 429 816 500 816 q 351 813 407 816 l 337 812 l 337 555 l 462 555 l 549 675 l 549 382 l 462 496 l 277 496 l 277 115 l 320 115 l 320 464 l 467 464 l 485 446 l 337 446 l 337 115 q 534 135 475 115 q 625 212 592 155 l 661 274 q 669 289 663 278 q 713 170 687 214 q 800 65 739 125 l 39 65 l 142 144 l 142 446 q 39 411 85 439 l 30 425 q 142 464 71 455 l 142 496 q 126 497 131 497 q 0 446 57 497 q 142 555 31 555 l 142 844 l 39 926 l 763 926 m 795 878 l 791 872 q 680 686 708 761 l 669 700 q 786 892 714 805 l 795 878 m 596 652 l 596 353 l 579 361 l 579 661 l 596 652 m 877 61 l 842 0 l 101 0 l 90 18 l 833 18 l 856 61 q 718 254 758 151 l 740 245 q 866 72 777 159 l 877 61 z "},"e":{"ha":863,"x_min":0,"x_max":877,"o":"m 763 926 l 752 913 q 642 718 683 828 q 632 741 635 734 q 552 846 595 823 q 399 870 509 870 q 277 867 348 870 l 277 555 l 320 555 l 320 831 q 418 836 372 836 q 545 817 505 836 q 618 746 586 799 q 604 756 608 753 q 525 808 549 800 q 429 816 500 816 q 351 813 407 816 l 337 812 l 337 555 l 462 555 l 549 675 l 549 382 l 462 496 l 277 496 l 277 115 l 320 115 l 320 464 l 467 464 l 485 446 l 337 446 l 337 115 q 534 135 475 115 q 625 212 592 155 l 661 274 q 669 289 663 278 q 713 170 687 214 q 800 65 739 125 l 39 65 l 142 144 l 142 446 q 39 411 85 439 l 30 425 q 142 464 71 455 l 142 496 q 126 497 131 497 q 0 446 57 497 q 142 555 31 555 l 142 844 l 39 926 l 763 926 m 795 878 l 791 872 q 680 686 708 761 l 669 700 q 786 892 714 805 l 795 878 m 596 652 l 596 353 l 579 361 l 579 661 l 596 652 m 877 61 l 842 0 l 101 0 l 90 18 l 833 18 l 856 61 q 718 254 758 151 l 740 245 q 866 72 777 159 l 877 61 z "},"F":{"ha":766,"x_min":0,"x_max":798,"o":"m 43 926 l 747 926 q 687 838 705 870 q 641 736 669 806 l 635 722 q 547 842 591 814 q 399 869 503 869 l 361 868 l 295 869 l 270 869 l 270 552 l 311 552 l 311 832 l 331 833 q 420 835 373 835 q 593 763 559 835 q 521 806 560 795 q 401 817 482 817 q 328 814 372 817 l 328 552 l 431 552 l 539 667 l 539 382 l 425 495 l 270 495 l 270 153 l 357 65 l 24 65 l 134 153 l 134 445 q 43 406 82 445 l 30 420 q 134 463 69 463 l 134 495 q 114 496 120 496 q 5 445 51 496 l 0 456 q 134 552 31 544 l 134 838 l 43 926 m 798 884 q 676 677 701 771 l 662 686 q 786 896 688 793 l 798 884 m 589 643 l 589 350 l 571 360 l 571 653 l 589 643 m 467 438 l 328 438 l 328 148 l 448 0 l 55 0 l 38 18 l 410 18 l 311 140 l 311 456 l 448 456 l 467 438 z "},"f":{"ha":766,"x_min":0,"x_max":798,"o":"m 43 926 l 747 926 q 687 838 705 870 q 641 736 669 806 l 635 722 q 547 842 591 814 q 399 869 503 869 l 361 868 l 295 869 l 270 869 l 270 552 l 311 552 l 311 832 l 331 833 q 420 835 373 835 q 593 763 559 835 q 521 806 560 795 q 401 817 482 817 q 328 814 372 817 l 328 552 l 431 552 l 539 667 l 539 382 l 425 495 l 270 495 l 270 153 l 357 65 l 24 65 l 134 153 l 134 445 q 43 406 82 445 l 30 420 q 134 463 69 463 l 134 495 q 114 496 120 496 q 5 445 51 496 l 0 456 q 134 552 31 544 l 134 838 l 43 926 m 798 884 q 676 677 701 771 l 662 686 q 786 896 688 793 l 798 884 m 589 643 l 589 350 l 571 360 l 571 653 l 589 643 m 467 438 l 328 438 l 328 148 l 448 0 l 55 0 l 38 18 l 410 18 l 311 140 l 311 456 l 448 456 l 467 438 z "},"G":{"ha":947,"x_min":33,"x_max":919,"o":"m 795 902 l 668 652 q 601 815 656 759 q 457 871 547 871 q 259 772 330 871 q 188 495 188 673 q 509 102 188 102 l 618 102 l 618 454 l 448 454 q 368 460 392 454 q 321 487 344 467 l 321 504 q 370 480 346 486 q 450 474 395 474 l 618 474 l 618 511 l 430 511 l 399 511 q 298 584 298 511 q 315 633 298 612 q 356 653 332 653 q 387 640 374 653 q 400 610 400 627 q 378 575 400 580 l 362 572 q 354 565 354 570 q 376 556 354 556 l 399 556 l 847 556 l 753 465 l 753 130 l 840 56 l 494 56 l 425 56 q 283 77 339 56 q 169 151 227 98 q 33 486 33 276 q 161 823 33 702 q 429 930 274 930 q 587 905 498 930 q 708 880 679 880 q 795 902 751 880 m 836 859 l 720 631 l 703 639 l 820 867 l 836 859 m 618 756 l 606 765 q 465 820 529 820 q 332 765 388 820 q 273 659 291 724 q 255 485 255 593 q 282 275 255 348 q 382 144 309 203 l 382 137 q 269 269 303 184 q 234 500 234 354 q 294 750 234 661 q 464 839 355 839 q 618 760 559 839 l 618 756 m 876 517 l 806 448 l 806 130 l 919 0 l 650 2 l 406 -1 q 370 1 382 -1 q 284 38 328 5 l 298 38 q 425 18 345 18 l 458 18 l 881 18 l 787 122 l 787 454 l 865 533 l 876 517 z "},"g":{"ha":947,"x_min":33,"x_max":919,"o":"m 795 902 l 668 652 q 601 815 656 759 q 457 871 547 871 q 259 772 330 871 q 188 495 188 673 q 509 102 188 102 l 618 102 l 618 454 l 448 454 q 368 460 392 454 q 321 487 344 467 l 321 504 q 370 480 346 486 q 450 474 395 474 l 618 474 l 618 511 l 430 511 l 399 511 q 298 584 298 511 q 315 633 298 612 q 356 653 332 653 q 387 640 374 653 q 400 610 400 627 q 378 575 400 580 l 362 572 q 354 565 354 570 q 376 556 354 556 l 399 556 l 847 556 l 753 465 l 753 130 l 840 56 l 494 56 l 425 56 q 283 77 339 56 q 169 151 227 98 q 33 486 33 276 q 161 823 33 702 q 429 930 274 930 q 587 905 498 930 q 708 880 679 880 q 795 902 751 880 m 836 859 l 720 631 l 703 639 l 820 867 l 836 859 m 618 756 l 606 765 q 465 820 529 820 q 332 765 388 820 q 273 659 291 724 q 255 485 255 593 q 282 275 255 348 q 382 144 309 203 l 382 137 q 269 269 303 184 q 234 500 234 354 q 294 750 234 661 q 464 839 355 839 q 618 760 559 839 l 618 756 m 876 517 l 806 448 l 806 130 l 919 0 l 650 2 l 406 -1 q 370 1 382 -1 q 284 38 328 5 l 298 38 q 425 18 345 18 l 458 18 l 881 18 l 787 122 l 787 454 l 865 533 l 876 517 z "},"H":{"ha":872,"x_min":5,"x_max":872,"o":"m 44 926 l 363 926 l 271 836 l 271 543 q 307 538 286 540 l 307 829 l 381 902 l 395 890 l 325 821 l 325 538 l 347 536 q 448 531 399 531 q 570 538 519 531 l 570 850 l 487 926 l 800 926 l 707 836 l 707 129 l 789 56 l 477 56 l 570 135 l 570 422 q 452 409 513 409 q 334 415 395 409 l 325 416 l 325 129 l 437 0 l 86 0 l 68 18 l 399 18 l 307 119 l 307 431 l 327 430 q 456 423 416 423 q 570 441 522 423 l 570 465 q 421 456 506 456 q 355 458 376 456 l 286 464 q 271 465 282 465 l 271 129 l 357 56 l 44 56 l 135 135 l 135 431 q 44 387 78 431 l 30 393 q 135 448 69 443 l 135 473 q 15 416 59 473 l 5 422 q 135 538 45 520 l 135 843 l 44 926 m 829 888 l 760 821 l 760 129 l 872 0 l 520 0 l 503 18 l 833 18 l 743 121 l 743 827 l 818 902 l 829 888 z "},"h":{"ha":872,"x_min":5,"x_max":872,"o":"m 44 926 l 363 926 l 271 836 l 271 543 q 307 538 286 540 l 307 829 l 381 902 l 395 890 l 325 821 l 325 538 l 347 536 q 448 531 399 531 q 570 538 519 531 l 570 850 l 487 926 l 800 926 l 707 836 l 707 129 l 789 56 l 477 56 l 570 135 l 570 422 q 452 409 513 409 q 334 415 395 409 l 325 416 l 325 129 l 437 0 l 86 0 l 68 18 l 399 18 l 307 119 l 307 431 l 327 430 q 456 423 416 423 q 570 441 522 423 l 570 465 q 421 456 506 456 q 355 458 376 456 l 286 464 q 271 465 282 465 l 271 129 l 357 56 l 44 56 l 135 135 l 135 431 q 44 387 78 431 l 30 393 q 135 448 69 443 l 135 473 q 15 416 59 473 l 5 422 q 135 538 45 520 l 135 843 l 44 926 m 829 888 l 760 821 l 760 129 l 872 0 l 520 0 l 503 18 l 833 18 l 743 121 l 743 827 l 818 902 l 829 888 z "},"I":{"ha":425,"x_min":28,"x_max":425,"o":"m 28 926 l 349 926 l 258 833 l 258 127 l 344 56 l 28 56 l 122 134 l 122 841 l 28 926 m 380 887 l 311 819 l 311 127 l 425 0 l 72 0 l 55 18 l 385 18 l 292 121 l 292 825 l 368 901 l 380 887 z "},"i":{"ha":425,"x_min":28,"x_max":425,"o":"m 28 926 l 349 926 l 258 833 l 258 127 l 344 56 l 28 56 l 122 134 l 122 841 l 28 926 m 380 887 l 311 819 l 311 127 l 425 0 l 72 0 l 55 18 l 385 18 l 292 121 l 292 825 l 368 901 l 380 887 z "},"J":{"ha":713,"x_min":-28,"x_max":676,"o":"m 648 926 l 557 834 l 557 330 l 557 309 q 591 239 557 258 q 505 95 583 151 q 311 39 427 39 q 36 206 97 39 l 26 232 q 10 259 20 252 q -28 271 0 266 l 175 422 q 164 288 164 355 q 200 141 164 196 q 298 87 237 87 q 421 281 421 87 l 421 842 l 329 926 l 648 926 m 676 888 l 610 820 l 610 324 l 610 298 l 619 256 q 656 220 628 239 q 598 102 647 163 q 322 -20 500 -20 q 105 58 186 -20 l 105 63 q 201 10 156 24 q 312 -5 245 -5 q 523 58 430 -5 q 636 214 615 121 q 598 257 605 239 q 591 328 591 275 l 591 827 l 666 902 l 676 888 m 238 406 l 237 397 q 224 286 224 321 q 322 107 224 155 l 312 107 q 205 275 205 138 q 220 406 205 344 l 238 406 z "},"j":{"ha":713,"x_min":-28,"x_max":676,"o":"m 648 926 l 557 834 l 557 330 l 557 309 q 591 239 557 258 q 505 95 583 151 q 311 39 427 39 q 36 206 97 39 l 26 232 q 10 259 20 252 q -28 271 0 266 l 175 422 q 164 288 164 355 q 200 141 164 196 q 298 87 237 87 q 421 281 421 87 l 421 842 l 329 926 l 648 926 m 676 888 l 610 820 l 610 324 l 610 298 l 619 256 q 656 220 628 239 q 598 102 647 163 q 322 -20 500 -20 q 105 58 186 -20 l 105 63 q 201 10 156 24 q 312 -5 245 -5 q 523 58 430 -5 q 636 214 615 121 q 598 257 605 239 q 591 328 591 275 l 591 827 l 666 902 l 676 888 m 238 406 l 237 397 q 224 286 224 321 q 322 107 224 155 l 312 107 q 205 275 205 138 q 220 406 205 344 l 238 406 z "},"K":{"ha":940,"x_min":28,"x_max":981,"o":"m 33 926 l 351 926 l 256 836 l 256 427 l 294 469 l 294 831 l 370 905 l 380 890 l 310 822 l 310 490 l 520 741 q 566 839 566 795 q 540 888 566 865 q 477 919 514 911 l 477 926 l 835 926 l 835 919 q 582 728 718 890 l 488 616 l 738 130 l 852 56 l 500 56 l 589 122 l 420 458 l 310 323 l 310 130 l 420 0 l 73 0 l 54 18 l 380 18 l 294 122 l 294 332 l 412 477 l 397 507 l 256 340 l 256 130 l 338 56 l 28 56 l 121 135 l 121 845 l 33 926 m 869 864 q 669 747 768 857 l 550 615 l 789 130 l 981 0 l 550 0 l 531 18 l 924 18 l 779 117 l 531 615 l 657 758 q 861 878 756 868 l 869 864 z "},"k":{"ha":940,"x_min":28,"x_max":981,"o":"m 33 926 l 351 926 l 256 836 l 256 427 l 294 469 l 294 831 l 370 905 l 380 890 l 310 822 l 310 490 l 520 741 q 566 839 566 795 q 540 888 566 865 q 477 919 514 911 l 477 926 l 835 926 l 835 919 q 582 728 718 890 l 488 616 l 738 130 l 852 56 l 500 56 l 589 122 l 420 458 l 310 323 l 310 130 l 420 0 l 73 0 l 54 18 l 380 18 l 294 122 l 294 332 l 412 477 l 397 507 l 256 340 l 256 130 l 338 56 l 28 56 l 121 135 l 121 845 l 33 926 m 869 864 q 669 747 768 857 l 550 615 l 789 130 l 981 0 l 550 0 l 531 18 l 924 18 l 779 117 l 531 615 l 657 758 q 861 878 756 868 l 869 864 z "},"L":{"ha":760,"x_min":28,"x_max":802,"o":"m 28 926 l 352 926 l 256 833 l 256 108 l 262 108 l 286 106 l 292 106 l 292 826 l 366 900 l 375 885 l 309 818 l 309 106 q 368 103 340 103 q 531 151 475 103 q 605 309 586 199 q 736 56 669 123 l 28 56 l 121 132 l 121 840 l 28 926 m 802 61 l 772 0 l 64 0 l 47 18 l 764 18 l 784 61 q 665 265 709 153 l 662 273 l 684 264 l 688 253 q 797 68 734 153 l 802 61 z "},"l":{"ha":760,"x_min":28,"x_max":802,"o":"m 28 926 l 352 926 l 256 833 l 256 108 l 262 108 l 286 106 l 292 106 l 292 826 l 366 900 l 375 885 l 309 818 l 309 106 q 368 103 340 103 q 531 151 475 103 q 605 309 586 199 q 736 56 669 123 l 28 56 l 121 132 l 121 840 l 28 926 m 802 61 l 772 0 l 64 0 l 47 18 l 764 18 l 784 61 q 665 265 709 153 l 662 273 l 684 264 l 688 253 q 797 68 734 153 l 802 61 z "},"M":{"ha":1016,"x_min":-23,"x_max":1021,"o":"m 941 926 l 848 831 l 848 135 l 932 56 l 620 56 l 714 135 l 714 591 l 499 0 l 434 0 l 429 18 l 488 18 l 714 649 l 714 753 l 462 56 l 414 56 l 229 604 l 229 245 q 238 143 229 173 q 283 77 248 113 l 344 0 l -11 0 l -23 18 l 310 18 l 285 56 l -18 56 l -3 63 q 96 147 72 104 q 120 281 120 189 l 120 842 l 31 926 l 381 926 l 283 837 l 475 269 l 499 328 l 326 831 l 414 897 l 429 886 l 344 826 l 505 353 l 680 837 l 597 926 l 941 926 m 174 765 l 174 278 q 195 124 174 166 q 283 63 216 82 l 277 73 q 211 206 211 119 l 211 256 l 211 657 l 174 765 m 979 873 l 903 818 l 903 134 l 1021 0 l 661 0 l 651 18 l 979 18 l 885 125 l 885 829 l 965 884 l 979 873 z "},"m":{"ha":1016,"x_min":-23,"x_max":1021,"o":"m 941 926 l 848 831 l 848 135 l 932 56 l 620 56 l 714 135 l 714 591 l 499 0 l 434 0 l 429 18 l 488 18 l 714 649 l 714 753 l 462 56 l 414 56 l 229 604 l 229 245 q 238 143 229 173 q 283 77 248 113 l 344 0 l -11 0 l -23 18 l 310 18 l 285 56 l -18 56 l -3 63 q 96 147 72 104 q 120 281 120 189 l 120 842 l 31 926 l 381 926 l 283 837 l 475 269 l 499 328 l 326 831 l 414 897 l 429 886 l 344 826 l 505 353 l 680 837 l 597 926 l 941 926 m 174 765 l 174 278 q 195 124 174 166 q 283 63 216 82 l 277 73 q 211 206 211 119 l 211 256 l 211 657 l 174 765 m 979 873 l 903 818 l 903 134 l 1021 0 l 661 0 l 651 18 l 979 18 l 885 125 l 885 829 l 965 884 l 979 873 z "},"N":{"ha":834,"x_min":-14,"x_max":825,"o":"m 802 926 q 702 852 724 886 q 668 697 668 801 l 668 653 l 668 56 l 553 56 l 233 677 l 233 309 l 233 278 l 241 180 q 302 80 254 113 l 308 75 q 214 275 214 106 l 215 339 l 215 710 l 178 781 l 178 391 q 203 147 178 205 q 317 63 227 90 l 376 0 l 9 0 l -2 18 l 338 18 l 302 56 l -14 56 q 96 136 69 85 q 123 308 123 186 l 123 850 l 33 926 l 376 926 l 280 861 l 608 221 l 608 302 l 327 850 l 422 915 l 435 902 l 351 845 l 608 339 l 608 656 l 608 692 q 589 849 608 810 q 494 926 570 889 l 802 926 m 825 876 l 813 855 q 742 810 761 843 q 724 699 724 777 l 724 0 l 578 0 l 569 18 l 705 18 l 705 692 q 730 826 705 788 q 825 876 755 863 z "},"n":{"ha":834,"x_min":-14,"x_max":825,"o":"m 802 926 q 702 852 724 886 q 668 697 668 801 l 668 653 l 668 56 l 553 56 l 233 677 l 233 309 l 233 278 l 241 180 q 302 80 254 113 l 308 75 q 214 275 214 106 l 215 339 l 215 710 l 178 781 l 178 391 q 203 147 178 205 q 317 63 227 90 l 376 0 l 9 0 l -2 18 l 338 18 l 302 56 l -14 56 q 96 136 69 85 q 123 308 123 186 l 123 850 l 33 926 l 376 926 l 280 861 l 608 221 l 608 302 l 327 850 l 422 915 l 435 902 l 351 845 l 608 339 l 608 656 l 608 692 q 589 849 608 810 q 494 926 570 889 l 802 926 m 825 876 l 813 855 q 742 810 761 843 q 724 699 724 777 l 724 0 l 578 0 l 569 18 l 705 18 l 705 692 q 730 826 705 788 q 825 876 755 863 z "},"O":{"ha":867,"x_min":33,"x_max":834,"o":"m 553 774 l 542 781 q 422 817 477 817 q 244 467 244 817 q 355 127 244 210 l 349 120 q 252 247 281 168 q 223 458 223 325 q 421 835 223 835 q 553 774 511 835 m 408 935 q 672 810 573 935 q 770 476 770 685 q 673 161 770 279 q 412 44 576 44 q 181 127 282 44 q 33 488 33 249 q 134 814 33 693 q 408 935 236 935 m 408 876 q 179 473 179 876 q 405 101 179 101 q 565 200 510 101 q 620 488 620 298 q 567 788 620 703 q 408 876 511 876 m 625 900 q 778 740 722 853 q 834 478 834 627 q 723 125 834 260 q 432 -9 612 -9 q 216 69 317 -9 l 216 73 q 427 11 300 11 q 707 139 597 11 q 816 467 816 267 q 766 726 816 615 q 625 892 716 838 l 625 900 z "},"o":{"ha":867,"x_min":33,"x_max":834,"o":"m 553 774 l 542 781 q 422 817 477 817 q 244 467 244 817 q 355 127 244 210 l 349 120 q 252 247 281 168 q 223 458 223 325 q 421 835 223 835 q 553 774 511 835 m 408 935 q 672 810 573 935 q 770 476 770 685 q 673 161 770 279 q 412 44 576 44 q 181 127 282 44 q 33 488 33 249 q 134 814 33 693 q 408 935 236 935 m 408 876 q 179 473 179 876 q 405 101 179 101 q 565 200 510 101 q 620 488 620 298 q 567 788 620 703 q 408 876 511 876 m 625 900 q 778 740 722 853 q 834 478 834 627 q 723 125 834 260 q 432 -9 612 -9 q 216 69 317 -9 l 216 73 q 427 11 300 11 q 707 139 597 11 q 816 467 816 267 q 766 726 816 615 q 625 892 716 838 l 625 900 z "},"P":{"ha":821,"x_min":5,"x_max":808,"o":"m 66 926 l 370 926 q 646 872 564 926 q 751 686 751 805 q 711 559 751 613 q 599 482 671 506 q 370 458 527 458 l 287 458 l 287 130 l 370 56 l 54 56 l 149 135 l 149 407 q 137 408 140 408 q 43 387 88 408 l 37 399 q 119 425 83 425 l 143 425 l 149 425 l 149 458 q 127 460 133 460 q 12 425 55 460 l 5 435 q 138 511 46 511 l 149 511 l 149 844 l 66 926 m 287 856 l 287 516 l 296 516 l 313 515 q 322 516 316 515 l 322 819 l 397 819 q 519 803 484 819 q 580 740 555 788 q 517 788 555 774 q 411 802 479 802 l 341 802 l 341 516 q 538 555 475 516 q 601 679 601 595 q 545 816 601 773 q 365 859 489 859 q 287 856 333 859 m 716 853 q 783 782 758 833 q 808 665 808 730 q 694 454 808 518 q 399 405 608 405 q 341 406 365 405 l 341 126 l 448 0 l 108 0 l 90 18 l 409 18 l 322 119 l 322 425 q 448 421 381 421 q 707 483 623 421 q 792 672 792 545 q 776 764 792 725 q 716 853 760 803 z "},"p":{"ha":821,"x_min":5,"x_max":808,"o":"m 66 926 l 370 926 q 646 872 564 926 q 751 686 751 805 q 711 559 751 613 q 599 482 671 506 q 370 458 527 458 l 287 458 l 287 130 l 370 56 l 54 56 l 149 135 l 149 407 q 137 408 140 408 q 43 387 88 408 l 37 399 q 119 425 83 425 l 143 425 l 149 425 l 149 458 q 127 460 133 460 q 12 425 55 460 l 5 435 q 138 511 46 511 l 149 511 l 149 844 l 66 926 m 287 856 l 287 516 l 296 516 l 313 515 q 322 516 316 515 l 322 819 l 397 819 q 519 803 484 819 q 580 740 555 788 q 517 788 555 774 q 411 802 479 802 l 341 802 l 341 516 q 538 555 475 516 q 601 679 601 595 q 545 816 601 773 q 365 859 489 859 q 287 856 333 859 m 716 853 q 783 782 758 833 q 808 665 808 730 q 694 454 808 518 q 399 405 608 405 q 341 406 365 405 l 341 126 l 448 0 l 108 0 l 90 18 l 409 18 l 322 119 l 322 425 q 448 421 381 421 q 707 483 623 421 q 792 672 792 545 q 776 764 792 725 q 716 853 760 803 z "},"Q":{"ha":890,"x_min":33,"x_max":922,"o":"m 531 806 q 522 810 525 809 q 430 835 468 835 q 283 741 328 835 q 239 435 239 648 q 376 111 239 192 l 369 111 q 259 219 297 133 q 222 448 222 306 q 269 754 222 661 q 422 848 315 848 q 531 811 486 848 l 531 806 m 617 111 q 764 49 678 49 q 867 75 810 49 l 871 72 q 819 -8 840 28 l 769 -98 l 766 -104 q 572 16 654 -84 q 431 -16 502 -16 q 251 43 318 -16 l 254 47 q 422 3 345 3 q 559 30 497 3 q 555 36 557 34 q 537 60 546 52 q 407 36 474 36 q 139 166 245 36 q 33 492 33 296 q 137 818 33 693 q 410 942 241 942 q 676 819 575 942 q 777 496 777 696 q 742 287 777 374 q 623 117 707 201 l 617 111 m 582 213 q 628 501 628 312 q 399 888 628 888 q 176 481 176 888 q 238 195 176 299 q 408 92 300 92 q 496 111 453 92 q 389 186 456 186 q 373 184 385 186 l 420 243 q 541 172 470 229 l 549 165 q 568 191 557 176 l 571 196 q 452 266 526 240 l 462 281 q 573 220 521 259 l 582 213 m 636 893 q 786 745 730 854 q 842 492 842 636 q 715 120 842 275 q 836 80 754 87 l 836 76 q 797 72 810 72 q 688 117 736 72 q 823 494 823 254 q 636 889 823 755 l 636 893 m 922 41 q 819 -122 867 -31 l 814 -130 l 798 -121 q 850 -33 821 -75 l 903 45 l 907 50 l 922 41 z "},"q":{"ha":890,"x_min":33,"x_max":922,"o":"m 531 806 q 522 810 525 809 q 430 835 468 835 q 283 741 328 835 q 239 435 239 648 q 376 111 239 192 l 369 111 q 259 219 297 133 q 222 448 222 306 q 269 754 222 661 q 422 848 315 848 q 531 811 486 848 l 531 806 m 617 111 q 764 49 678 49 q 867 75 810 49 l 871 72 q 819 -8 840 28 l 769 -98 l 766 -104 q 572 16 654 -84 q 431 -16 502 -16 q 251 43 318 -16 l 254 47 q 422 3 345 3 q 559 30 497 3 q 555 36 557 34 q 537 60 546 52 q 407 36 474 36 q 139 166 245 36 q 33 492 33 296 q 137 818 33 693 q 410 942 241 942 q 676 819 575 942 q 777 496 777 696 q 742 287 777 374 q 623 117 707 201 l 617 111 m 582 213 q 628 501 628 312 q 399 888 628 888 q 176 481 176 888 q 238 195 176 299 q 408 92 300 92 q 496 111 453 92 q 389 186 456 186 q 373 184 385 186 l 420 243 q 541 172 470 229 l 549 165 q 568 191 557 176 l 571 196 q 452 266 526 240 l 462 281 q 573 220 521 259 l 582 213 m 636 893 q 786 745 730 854 q 842 492 842 636 q 715 120 842 275 q 836 80 754 87 l 836 76 q 797 72 810 72 q 688 117 736 72 q 823 494 823 254 q 636 889 823 755 l 636 893 m 922 41 q 819 -122 867 -31 l 814 -130 l 798 -121 q 850 -33 821 -75 l 903 45 l 907 50 l 922 41 z "},"R":{"ha":882,"x_min":23,"x_max":915,"o":"m 60 844 q 406 937 220 937 q 643 875 549 937 q 736 716 736 812 q 675 577 736 637 q 508 489 614 516 q 635 238 555 360 q 796 51 715 116 l 786 47 q 588 -50 685 13 l 578 -57 l 574 -35 q 453 410 531 227 l 450 416 q 325 382 404 395 l 319 381 l 319 127 l 439 0 l 88 0 l 77 18 l 400 18 l 302 123 l 302 396 l 316 398 q 446 429 393 406 q 441 439 441 437 l 434 458 q 431 467 433 460 q 272 440 389 454 l 264 439 l 264 136 l 342 56 l 42 56 l 130 136 l 130 364 l 125 363 q 54 344 85 355 l 48 342 l 42 355 q 89 371 72 367 l 125 380 l 130 381 l 130 416 q 31 399 90 416 l 23 396 q 37 440 24 406 q 46 471 38 443 q 48 477 47 473 q 96 475 79 475 q 130 477 114 475 l 130 810 q 65 842 98 829 l 60 844 m 264 862 l 264 496 q 302 500 284 496 l 302 833 q 391 844 339 844 q 571 757 524 844 q 483 813 521 798 q 392 828 445 828 q 319 820 351 828 l 319 500 l 327 501 q 525 578 460 526 q 590 715 590 631 q 532 839 590 790 q 385 888 473 888 q 264 862 313 888 m 592 455 q 743 182 635 315 q 915 32 811 98 q 623 -94 760 -9 l 617 -98 l 604 -87 q 880 37 733 -3 q 572 454 684 168 l 568 465 q 776 705 776 544 q 722 850 776 772 q 791 692 791 788 q 592 455 791 536 z "},"r":{"ha":882,"x_min":23,"x_max":915,"o":"m 60 844 q 406 937 220 937 q 643 875 549 937 q 736 716 736 812 q 675 577 736 637 q 508 489 614 516 q 635 238 555 360 q 796 51 715 116 l 786 47 q 588 -50 685 13 l 578 -57 l 574 -35 q 453 410 531 227 l 450 416 q 325 382 404 395 l 319 381 l 319 127 l 439 0 l 88 0 l 77 18 l 400 18 l 302 123 l 302 396 l 316 398 q 446 429 393 406 q 441 439 441 437 l 434 458 q 431 467 433 460 q 272 440 389 454 l 264 439 l 264 136 l 342 56 l 42 56 l 130 136 l 130 364 l 125 363 q 54 344 85 355 l 48 342 l 42 355 q 89 371 72 367 l 125 380 l 130 381 l 130 416 q 31 399 90 416 l 23 396 q 37 440 24 406 q 46 471 38 443 q 48 477 47 473 q 96 475 79 475 q 130 477 114 475 l 130 810 q 65 842 98 829 l 60 844 m 264 862 l 264 496 q 302 500 284 496 l 302 833 q 391 844 339 844 q 571 757 524 844 q 483 813 521 798 q 392 828 445 828 q 319 820 351 828 l 319 500 l 327 501 q 525 578 460 526 q 590 715 590 631 q 532 839 590 790 q 385 888 473 888 q 264 862 313 888 m 592 455 q 743 182 635 315 q 915 32 811 98 q 623 -94 760 -9 l 617 -98 l 604 -87 q 880 37 733 -3 q 572 454 684 168 l 568 465 q 776 705 776 544 q 722 850 776 772 q 791 692 791 788 q 592 455 791 536 z "},"S":{"ha":770,"x_min":-14,"x_max":757,"o":"m 665 918 q 608 819 629 871 q 553 694 567 718 l 550 690 q 546 702 547 698 q 515 787 527 763 q 478 832 503 810 q 338 887 416 887 q 217 847 265 887 q 169 745 169 806 q 340 590 169 631 l 455 562 q 700 304 700 503 q 616 117 700 193 q 409 41 532 41 q 236 65 332 41 l 157 85 q 77 96 109 96 q -8 70 36 96 l -14 79 q 104 321 71 206 l 117 317 q 202 152 131 211 q 389 93 273 93 q 533 135 479 93 q 587 248 587 177 q 512 384 587 330 q 292 454 458 422 q 106 538 164 479 q 49 700 49 596 q 126 874 49 807 q 326 941 203 941 q 511 912 406 941 q 585 899 561 899 q 657 922 618 899 l 665 918 m 707 890 l 701 880 q 653 790 673 833 q 600 679 606 690 l 596 674 l 580 681 l 583 687 q 640 804 602 732 l 686 893 l 689 899 l 707 890 m 509 755 q 349 834 434 834 q 263 804 297 834 q 229 728 229 774 q 298 625 229 678 l 303 622 l 300 616 q 210 732 210 656 q 248 819 210 785 q 347 852 286 852 q 449 827 406 852 q 513 758 493 802 l 509 755 m 665 486 q 757 294 757 416 q 656 75 757 165 q 412 -15 556 -15 q 280 0 339 -15 l 172 26 q 90 36 134 36 q 19 20 52 36 l 11 40 q 83 56 46 56 q 176 44 123 56 l 280 19 q 412 4 342 4 q 643 91 547 4 q 738 300 738 177 q 665 481 738 404 l 665 486 m 182 290 q 316 117 207 168 l 316 112 q 163 287 190 149 l 182 290 m 97 510 l 120 497 q 251 431 142 457 l 360 404 q 508 356 471 376 q 561 295 545 336 l 556 292 q 490 344 526 328 q 353 384 454 360 q 157 443 207 418 q 97 510 106 467 z "},"s":{"ha":770,"x_min":-14,"x_max":757,"o":"m 665 918 q 608 819 629 871 q 553 694 567 718 l 550 690 q 546 702 547 698 q 515 787 527 763 q 478 832 503 810 q 338 887 416 887 q 217 847 265 887 q 169 745 169 806 q 340 590 169 631 l 455 562 q 700 304 700 503 q 616 117 700 193 q 409 41 532 41 q 236 65 332 41 l 157 85 q 77 96 109 96 q -8 70 36 96 l -14 79 q 104 321 71 206 l 117 317 q 202 152 131 211 q 389 93 273 93 q 533 135 479 93 q 587 248 587 177 q 512 384 587 330 q 292 454 458 422 q 106 538 164 479 q 49 700 49 596 q 126 874 49 807 q 326 941 203 941 q 511 912 406 941 q 585 899 561 899 q 657 922 618 899 l 665 918 m 707 890 l 701 880 q 653 790 673 833 q 600 679 606 690 l 596 674 l 580 681 l 583 687 q 640 804 602 732 l 686 893 l 689 899 l 707 890 m 509 755 q 349 834 434 834 q 263 804 297 834 q 229 728 229 774 q 298 625 229 678 l 303 622 l 300 616 q 210 732 210 656 q 248 819 210 785 q 347 852 286 852 q 449 827 406 852 q 513 758 493 802 l 509 755 m 665 486 q 757 294 757 416 q 656 75 757 165 q 412 -15 556 -15 q 280 0 339 -15 l 172 26 q 90 36 134 36 q 19 20 52 36 l 11 40 q 83 56 46 56 q 176 44 123 56 l 280 19 q 412 4 342 4 q 643 91 547 4 q 738 300 738 177 q 665 481 738 404 l 665 486 m 182 290 q 316 117 207 168 l 316 112 q 163 287 190 149 l 182 290 m 97 510 l 120 497 q 251 431 142 457 l 360 404 q 508 356 471 376 q 561 295 545 336 l 556 292 q 490 344 526 328 q 353 384 454 360 q 157 443 207 418 q 97 510 106 467 z "},"T":{"ha":804,"x_min":-33,"x_max":827,"o":"m 784 926 q 776 910 778 914 l 730 829 q 686 720 706 785 l 684 717 l 677 722 l 675 730 q 620 838 656 808 q 509 867 583 867 q 448 865 478 867 l 439 865 l 439 130 l 519 56 l 210 56 l 304 135 l 304 810 l 256 810 q 157 783 186 810 q 122 686 127 755 l 104 686 q 145 797 112 766 q 256 828 179 828 l 297 827 l 304 827 l 304 861 q 239 865 270 865 q 113 829 151 865 q 70 709 74 793 l 62 709 q -28 919 33 803 l -33 926 l 784 926 m 827 883 q 728 685 780 823 l 726 678 l 711 691 l 713 697 q 810 892 763 838 l 813 897 l 827 883 m 646 777 q 524 811 593 811 q 491 809 508 811 l 494 127 l 602 0 l 255 0 l 239 18 l 564 18 l 473 122 l 473 829 l 510 829 q 603 819 576 829 q 646 777 631 808 z "},"t":{"ha":804,"x_min":-33,"x_max":827,"o":"m 784 926 q 776 910 778 914 l 730 829 q 686 720 706 785 l 684 717 l 677 722 l 675 730 q 620 838 656 808 q 509 867 583 867 q 448 865 478 867 l 439 865 l 439 130 l 519 56 l 210 56 l 304 135 l 304 810 l 256 810 q 157 783 186 810 q 122 686 127 755 l 104 686 q 145 797 112 766 q 256 828 179 828 l 297 827 l 304 827 l 304 861 q 239 865 270 865 q 113 829 151 865 q 70 709 74 793 l 62 709 q -28 919 33 803 l -33 926 l 784 926 m 827 883 q 728 685 780 823 l 726 678 l 711 691 l 713 697 q 810 892 763 838 l 813 897 l 827 883 m 646 777 q 524 811 593 811 q 491 809 508 811 l 494 127 l 602 0 l 255 0 l 239 18 l 564 18 l 473 122 l 473 829 l 510 829 q 603 819 576 829 q 646 777 631 808 z "},"U":{"ha":844,"x_min":23,"x_max":829,"o":"m 806 926 l 685 829 l 685 391 q 677 217 685 270 q 646 130 669 164 q 420 43 588 43 q 172 130 242 43 q 115 393 115 199 l 115 843 l 23 926 l 343 926 l 251 836 l 251 392 l 252 288 q 294 144 252 186 q 436 102 336 102 q 587 166 546 102 q 621 390 621 218 l 623 829 l 517 926 l 806 926 m 829 880 l 737 803 l 737 382 q 705 112 737 175 q 445 -16 638 -16 q 194 68 278 -16 l 199 65 l 223 52 q 437 3 307 3 q 686 121 625 3 q 718 377 718 184 l 718 811 l 819 894 l 829 880 m 372 889 l 305 822 l 305 318 l 304 271 l 326 185 q 385 123 341 159 l 386 117 q 307 184 329 140 q 286 320 286 228 l 286 829 l 362 903 l 372 889 z "},"u":{"ha":844,"x_min":23,"x_max":829,"o":"m 806 926 l 685 829 l 685 391 q 677 217 685 270 q 646 130 669 164 q 420 43 588 43 q 172 130 242 43 q 115 393 115 199 l 115 843 l 23 926 l 343 926 l 251 836 l 251 392 l 252 288 q 294 144 252 186 q 436 102 336 102 q 587 166 546 102 q 621 390 621 218 l 623 829 l 517 926 l 806 926 m 829 880 l 737 803 l 737 382 q 705 112 737 175 q 445 -16 638 -16 q 194 68 278 -16 l 199 65 l 223 52 q 437 3 307 3 q 686 121 625 3 q 718 377 718 184 l 718 811 l 819 894 l 829 880 m 372 889 l 305 822 l 305 318 l 304 271 l 326 185 q 385 123 341 159 l 386 117 q 307 184 329 140 q 286 320 286 228 l 286 829 l 362 903 l 372 889 z "},"V":{"ha":861,"x_min":-33,"x_max":976,"o":"m 933 1140 l 941 1133 q 795 949 852 1047 q 661 644 739 852 l 463 126 l 543 56 l 231 56 l 320 130 l 72 836 l -33 926 l 304 926 l 208 830 l 432 193 l 458 256 l 258 821 l 328 889 l 340 876 l 279 817 l 467 280 l 611 664 q 675 903 675 835 q 625 1022 675 972 l 637 1025 q 933 1140 835 1063 m 970 1099 l 976 1083 q 709 622 846 982 l 517 123 l 623 0 l 273 0 l 258 18 l 583 18 l 498 119 l 692 627 l 729 723 q 844 951 778 848 q 970 1099 911 1055 z "},"v":{"ha":861,"x_min":-33,"x_max":976,"o":"m 933 1140 l 941 1133 q 795 949 852 1047 q 661 644 739 852 l 463 126 l 543 56 l 231 56 l 320 130 l 72 836 l -33 926 l 304 926 l 208 830 l 432 193 l 458 256 l 258 821 l 328 889 l 340 876 l 279 817 l 467 280 l 611 664 q 675 903 675 835 q 625 1022 675 972 l 637 1025 q 933 1140 835 1063 m 970 1099 l 976 1083 q 709 622 846 982 l 517 123 l 623 0 l 273 0 l 258 18 l 583 18 l 498 119 l 692 627 l 729 723 q 844 951 778 848 q 970 1099 911 1055 z "},"W":{"ha":1097,"x_min":-41,"x_max":1214,"o":"m 1173 1158 q 1031 951 1079 1055 q 918 610 983 848 l 801 183 l 814 130 l 898 56 l 589 56 l 677 130 l 557 565 l 441 140 l 557 0 l 211 0 l 197 18 l 520 18 l 418 136 l 547 600 l 524 680 l 385 172 l 396 130 l 475 56 l 165 56 l 258 130 l 60 840 l -41 926 l 290 926 l 197 840 l 353 281 l 376 363 l 245 830 l 307 885 l 323 874 l 267 824 l 385 397 l 530 926 l 594 926 l 770 287 l 792 363 l 636 926 l 655 926 l 801 397 l 865 627 q 924 907 924 842 q 857 1021 924 980 q 1027 1090 936 1046 q 1162 1168 1118 1133 l 1173 1158 m 1214 1107 q 1080 905 1133 1017 q 972 590 1027 792 l 852 152 l 983 0 l 635 0 l 619 18 l 941 18 l 831 145 l 956 600 q 1063 910 1012 802 q 1198 1118 1114 1019 l 1214 1107 z "},"w":{"ha":1097,"x_min":-41,"x_max":1214,"o":"m 1173 1158 q 1031 951 1079 1055 q 918 610 983 848 l 801 183 l 814 130 l 898 56 l 589 56 l 677 130 l 557 565 l 441 140 l 557 0 l 211 0 l 197 18 l 520 18 l 418 136 l 547 600 l 524 680 l 385 172 l 396 130 l 475 56 l 165 56 l 258 130 l 60 840 l -41 926 l 290 926 l 197 840 l 353 281 l 376 363 l 245 830 l 307 885 l 323 874 l 267 824 l 385 397 l 530 926 l 594 926 l 770 287 l 792 363 l 636 926 l 655 926 l 801 397 l 865 627 q 924 907 924 842 q 857 1021 924 980 q 1027 1090 936 1046 q 1162 1168 1118 1133 l 1173 1158 m 1214 1107 q 1080 905 1133 1017 q 972 590 1027 792 l 852 152 l 983 0 l 635 0 l 619 18 l 941 18 l 831 145 l 956 600 q 1063 910 1012 802 q 1198 1118 1114 1019 l 1214 1107 z "},"X":{"ha":969,"x_min":-33,"x_max":964,"o":"m 865 926 l 715 828 l 498 552 l 747 144 l 865 56 l 515 56 l 601 139 l 446 391 l 255 144 l 366 0 l -5 0 l -15 18 l 330 18 l 233 144 l 437 408 l 418 438 l 196 157 l 279 56 l -33 56 l 126 157 l 389 490 l 177 835 l 48 926 l 406 926 l 317 848 l 469 602 l 493 633 l 366 835 l 441 907 l 454 895 l 389 835 l 504 646 l 651 835 l 566 926 l 865 926 m 889 874 l 757 796 l 565 547 l 799 161 l 964 0 l 543 0 l 531 18 l 921 18 l 783 152 l 543 547 l 745 808 l 879 888 l 889 874 z "},"x":{"ha":969,"x_min":-33,"x_max":964,"o":"m 865 926 l 715 828 l 498 552 l 747 144 l 865 56 l 515 56 l 601 139 l 446 391 l 255 144 l 366 0 l -5 0 l -15 18 l 330 18 l 233 144 l 437 408 l 418 438 l 196 157 l 279 56 l -33 56 l 126 157 l 389 490 l 177 835 l 48 926 l 406 926 l 317 848 l 469 602 l 493 633 l 366 835 l 441 907 l 454 895 l 389 835 l 504 646 l 651 835 l 566 926 l 865 926 m 889 874 l 757 796 l 565 547 l 799 161 l 964 0 l 543 0 l 531 18 l 921 18 l 783 152 l 543 547 l 745 808 l 879 888 l 889 874 z "},"Y":{"ha":891,"x_min":-33,"x_max":1006,"o":"m 976 1164 l 980 1159 l 973 1152 q 773 895 852 1025 q 730 825 743 846 l 477 421 l 477 146 l 576 56 l 245 56 l 343 146 l 343 421 l 180 671 l 145 728 q 66 838 97 803 q -25 920 35 872 l -33 926 l 310 926 l 226 838 l 452 498 l 473 532 l 272 838 l 343 906 l 357 895 l 296 838 l 484 549 l 635 788 q 701 944 701 892 q 644 1043 701 987 q 968 1160 841 1090 l 976 1164 m 1006 1124 l 1006 1096 l 1000 1089 q 902 981 943 1035 q 780 798 861 926 l 534 412 l 534 146 l 655 0 l 231 0 l 222 18 l 619 18 l 516 146 l 516 416 l 766 811 l 806 873 q 1006 1124 911 1041 z "},"y":{"ha":891,"x_min":-33,"x_max":1006,"o":"m 976 1164 l 980 1159 l 973 1152 q 773 895 852 1025 q 730 825 743 846 l 477 421 l 477 146 l 576 56 l 245 56 l 343 146 l 343 421 l 180 671 l 145 728 q 66 838 97 803 q -25 920 35 872 l -33 926 l 310 926 l 226 838 l 452 498 l 473 532 l 272 838 l 343 906 l 357 895 l 296 838 l 484 549 l 635 788 q 701 944 701 892 q 644 1043 701 987 q 968 1160 841 1090 l 976 1164 m 1006 1124 l 1006 1096 l 1000 1089 q 902 981 943 1035 q 780 798 861 926 l 534 412 l 534 146 l 655 0 l 231 0 l 222 18 l 619 18 l 516 146 l 516 416 l 766 811 l 806 873 q 1006 1124 911 1041 z "},"Z":{"ha":890,"x_min":23,"x_max":867,"o":"m 768 926 l 224 113 l 267 113 l 800 911 l 812 895 l 290 113 l 357 113 l 411 115 l 439 115 q 544 136 494 115 q 620 191 594 157 q 674 283 652 233 q 795 56 731 134 l 23 56 l 526 810 l 512 811 l 425 812 q 255 786 302 812 q 187 675 208 759 l 173 691 q 229 787 186 749 q 296 821 257 812 q 423 829 334 829 q 527 827 479 829 l 537 827 l 564 865 q 470 869 516 869 q 277 857 330 869 q 186 804 224 844 q 137 718 156 772 l 132 729 q 35 918 98 807 l 31 926 l 768 926 m 867 61 l 832 0 l 58 0 l 43 18 l 821 18 l 846 61 q 723 277 768 156 l 746 268 q 861 67 781 165 l 867 61 z "},"z":{"ha":890,"x_min":23,"x_max":867,"o":"m 768 926 l 224 113 l 267 113 l 800 911 l 812 895 l 290 113 l 357 113 l 411 115 l 439 115 q 544 136 494 115 q 620 191 594 157 q 674 283 652 233 q 795 56 731 134 l 23 56 l 526 810 l 512 811 l 425 812 q 255 786 302 812 q 187 675 208 759 l 173 691 q 229 787 186 749 q 296 821 257 812 q 423 829 334 829 q 527 827 479 829 l 537 827 l 564 865 q 470 869 516 869 q 277 857 330 869 q 186 804 224 844 q 137 718 156 772 l 132 729 q 35 918 98 807 l 31 926 l 768 926 m 867 61 l 832 0 l 58 0 l 43 18 l 821 18 l 846 61 q 723 277 768 156 l 746 268 q 861 67 781 165 l 867 61 z "},"[":{"ha":608,"x_min":139,"x_max":506,"o":"m 139 1037 l 451 1037 l 451 970 l 290 970 l 290 1 l 329 1 l 329 934 l 490 934 l 490 1000 l 506 982 l 506 915 l 349 915 l 349 1 l 451 1 l 451 -65 l 139 -65 l 139 1037 m 490 -35 l 506 -53 l 506 -120 l 174 -120 l 162 -101 l 490 -101 l 490 -35 z "},"\\":{"ha":718,"x_min":-75,"x_max":736,"o":"m -11 1042 l 650 -66 l 586 -66 l -75 1042 l -11 1042 m 632 -106 l 704 -106 l 31 1022 l 60 1008 l 736 -125 l 662 -125 l 632 -106 z "},"]":{"ha":608,"x_min":102,"x_max":469,"o":"m 102 970 l 102 1037 l 414 1037 l 414 -65 l 102 -65 l 102 1 l 262 1 l 262 915 l 136 915 l 124 934 l 262 934 l 262 970 l 102 970 m 453 1000 l 469 983 l 469 -120 l 137 -120 l 125 -101 l 453 -101 l 453 1000 z "},"^":{"ha":694,"x_min":-38,"x_max":732,"o":"m 732 392 l 663 392 l 410 787 l 144 392 l -38 392 l 353 972 l 364 972 l 732 392 z "},"_":{"ha":694,"x_min":22,"x_max":671,"o":"m 22 -125 l 671 -125 l 671 -204 l 22 -204 l 22 -125 z "},"`":{"ha":694,"x_min":126,"x_max":451,"o":"m 267 1195 l 361 1065 l 281 1065 l 126 1195 l 267 1195 m 451 1019 l 337 1019 l 318 1036 l 412 1036 l 328 1154 l 357 1147 l 451 1019 z "},"{":{"ha":611,"x_min":46,"x_max":509,"o":"m 454 1037 l 454 981 q 322 940 365 981 q 279 817 279 899 q 286 762 279 785 l 305 704 q 315 644 315 673 q 152 503 315 530 l 152 498 q 205 487 182 494 q 353 625 353 517 q 342 685 353 654 l 323 743 q 316 798 316 766 q 359 921 316 881 q 491 962 402 962 l 491 1018 l 509 1009 l 509 953 q 377 912 420 953 q 334 788 334 871 q 342 734 334 755 l 361 675 q 371 620 371 646 q 216 483 371 515 q 319 344 319 444 q 309 281 319 316 l 292 216 q 282 149 282 183 q 372 -9 282 20 q 319 130 319 35 q 329 197 319 164 l 347 262 q 356 324 356 297 q 296 443 356 400 q 356 389 338 418 q 374 315 374 359 q 365 253 374 288 l 347 188 q 338 121 338 155 q 387 -13 338 32 q 454 -18 418 -18 l 454 -74 q 368 -71 425 -71 q 191 -24 240 -71 q 132 144 132 33 q 162 304 132 191 q 174 380 174 349 q 158 431 174 404 q 109 435 129 435 q 79 433 100 435 l 69 450 q 109 452 92 452 q 141 450 117 452 q 46 475 111 472 l 46 526 q 173 621 173 534 q 162 680 173 645 q 132 820 132 779 q 199 996 132 938 q 370 1035 245 1035 q 454 1037 432 1035 m 509 -51 l 509 -120 q 227 -92 340 -120 l 227 -89 q 438 -102 325 -102 l 479 -102 l 491 -102 l 491 -35 l 509 -51 z "},"|":{"ha":694,"x_min":296,"x_max":399,"o":"m 296 926 l 399 926 l 399 -231 l 296 -231 l 296 926 z "},"}":{"ha":611,"x_min":102,"x_max":565,"o":"m 517 530 l 517 480 q 418 454 448 477 q 387 383 387 431 q 399 311 387 355 q 429 152 429 198 q 369 -15 429 41 q 189 -62 319 -62 l 102 -64 l 102 -9 q 235 31 193 -9 q 277 157 277 70 q 267 224 277 190 l 249 288 q 239 350 239 323 q 342 488 239 448 q 288 527 313 502 q 364 496 330 505 q 410 503 384 500 l 410 508 q 243 648 243 535 q 253 707 243 676 l 273 764 q 280 821 280 787 q 259 908 280 861 q 135 939 220 939 l 125 958 q 244 932 201 958 q 102 981 205 981 l 102 1037 q 186 1035 142 1035 q 361 996 314 1035 q 430 822 430 939 q 399 682 430 781 q 388 624 388 648 q 517 530 388 538 m 116 -102 l 218 -99 q 397 -52 347 -99 q 458 115 458 4 q 427 274 458 160 q 416 346 416 317 q 446 416 416 393 q 546 443 477 439 l 546 504 l 565 486 l 565 424 q 465 398 496 420 q 435 327 435 375 q 446 255 435 298 q 477 96 477 141 q 416 -71 477 -14 q 237 -118 366 -118 l 160 -119 l 135 -120 l 116 -102 m 450 550 q 416 606 416 578 q 427 664 416 631 q 458 808 458 759 q 410 956 458 873 q 477 785 477 894 q 446 645 477 733 q 435 596 435 614 q 450 550 435 581 z "},"~":{"ha":926,"x_min":180,"x_max":746,"o":"m 722 1019 l 746 1003 q 662 900 713 939 q 560 861 611 861 q 480 877 530 861 l 441 890 l 401 903 q 322 918 356 918 q 216 858 268 918 q 204 845 212 854 l 180 861 q 368 1004 262 1004 q 488 975 404 1004 q 595 949 562 949 q 722 1019 665 949 z "},"Ä":{"ha":1051,"x_min":0,"x_max":1056,"o":"m 656 926 l 585 846 l 696 550 l 724 565 l 623 832 l 695 915 l 713 907 l 644 828 l 739 575 q 749 583 747 581 l 771 602 q 797 625 791 618 q 851 486 814 547 q 823 488 831 488 q 728 467 758 488 l 851 134 l 953 56 l 610 56 l 704 134 l 629 332 q 514 189 554 257 l 498 193 q 618 342 538 260 l 623 349 l 610 378 q 477 222 530 311 l 465 242 q 374 370 429 298 l 368 378 q 315 190 315 262 q 330 118 315 147 q 400 19 345 88 q 415 0 405 13 l 49 0 l 35 18 l 380 18 l 369 33 q 310 117 324 87 q 296 188 296 147 q 353 394 296 257 l 323 425 q 300 361 314 404 l 278 292 q 260 200 260 237 q 273 137 260 162 q 327 68 286 112 q 339 56 331 64 l 0 56 q 154 191 97 106 q 266 452 210 275 l 269 462 q 165 499 233 492 q 222 615 202 555 q 234 604 232 606 l 264 576 q 302 545 280 561 l 314 575 l 306 582 q 249 630 272 612 l 243 635 l 254 650 q 323 595 290 626 l 415 848 l 343 926 l 656 926 m 488 708 l 414 511 q 420 503 420 505 l 448 472 q 505 396 471 448 l 512 386 q 581 458 541 422 l 488 708 m 458 787 l 350 502 q 439 397 401 449 l 470 354 q 477 345 471 353 q 484 353 483 351 l 493 364 q 500 373 495 367 q 390 505 453 446 l 477 734 l 458 787 m 857 592 q 931 425 871 531 q 914 427 916 427 l 859 431 q 805 435 822 435 q 791 434 802 435 l 905 134 l 1056 0 l 663 0 l 650 18 l 1010 18 l 888 126 l 768 446 q 821 452 791 452 q 902 446 857 452 l 894 460 q 836 605 850 541 l 857 592 m 625 1197 q 671 1178 652 1197 q 690 1132 690 1159 q 671 1086 690 1105 q 625 1067 652 1067 q 578 1086 597 1067 q 559 1132 559 1105 q 578 1178 559 1158 q 625 1197 597 1197 m 709 1168 q 747 1101 747 1151 q 723 1039 747 1064 q 663 1015 699 1015 q 599 1046 623 1015 l 599 1051 q 654 1028 631 1028 q 711 1052 687 1028 q 734 1108 734 1075 q 709 1168 734 1135 m 475 1168 q 513 1101 513 1151 q 488 1039 513 1064 q 429 1015 464 1015 q 365 1046 389 1015 l 365 1051 q 420 1028 397 1028 q 477 1052 453 1028 q 500 1108 500 1075 q 475 1168 500 1135 m 389 1197 q 435 1178 416 1197 q 454 1132 454 1159 q 435 1086 454 1105 q 389 1067 416 1067 q 342 1086 361 1067 q 323 1132 323 1105 q 342 1178 323 1159 q 389 1197 361 1197 z "},"ä":{"ha":1051,"x_min":0,"x_max":1056,"o":"m 656 926 l 585 846 l 696 550 l 724 565 l 623 832 l 695 915 l 713 907 l 644 828 l 739 575 q 749 583 747 581 l 771 602 q 797 625 791 618 q 851 486 814 547 q 823 488 831 488 q 728 467 758 488 l 851 134 l 953 56 l 610 56 l 704 134 l 629 332 q 514 189 554 257 l 498 193 q 618 342 538 260 l 623 349 l 610 378 q 477 222 530 311 l 465 242 q 374 370 429 298 l 368 378 q 315 190 315 262 q 330 118 315 147 q 400 19 345 88 q 415 0 405 13 l 49 0 l 35 18 l 380 18 l 369 33 q 310 117 324 87 q 296 188 296 147 q 353 394 296 257 l 323 425 q 300 361 314 404 l 278 292 q 260 200 260 237 q 273 137 260 162 q 327 68 286 112 q 339 56 331 64 l 0 56 q 154 191 97 106 q 266 452 210 275 l 269 462 q 165 499 233 492 q 222 615 202 555 q 234 604 232 606 l 264 576 q 302 545 280 561 l 314 575 l 306 582 q 249 630 272 612 l 243 635 l 254 650 q 323 595 290 626 l 415 848 l 343 926 l 656 926 m 488 708 l 414 511 q 420 503 420 505 l 448 472 q 505 396 471 448 l 512 386 q 581 458 541 422 l 488 708 m 458 787 l 350 502 q 439 397 401 449 l 470 354 q 477 345 471 353 q 484 353 483 351 l 493 364 q 500 373 495 367 q 390 505 453 446 l 477 734 l 458 787 m 857 592 q 931 425 871 531 q 914 427 916 427 l 859 431 q 805 435 822 435 q 791 434 802 435 l 905 134 l 1056 0 l 663 0 l 650 18 l 1010 18 l 888 126 l 768 446 q 821 452 791 452 q 902 446 857 452 l 894 460 q 836 605 850 541 l 857 592 m 625 1197 q 671 1178 652 1197 q 690 1132 690 1159 q 671 1086 690 1105 q 625 1067 652 1067 q 578 1086 597 1067 q 559 1132 559 1105 q 578 1178 559 1158 q 625 1197 597 1197 m 709 1168 q 747 1101 747 1151 q 723 1039 747 1064 q 663 1015 699 1015 q 599 1046 623 1015 l 599 1051 q 654 1028 631 1028 q 711 1052 687 1028 q 734 1108 734 1075 q 709 1168 734 1135 m 475 1168 q 513 1101 513 1151 q 488 1039 513 1064 q 429 1015 464 1015 q 365 1046 389 1015 l 365 1051 q 420 1028 397 1028 q 477 1052 453 1028 q 500 1108 500 1075 q 475 1168 500 1135 m 389 1197 q 435 1178 416 1197 q 454 1132 454 1159 q 435 1086 454 1105 q 389 1067 416 1067 q 342 1086 361 1067 q 323 1132 323 1105 q 342 1178 323 1159 q 389 1197 361 1197 z "},"Å":{"ha":1051,"x_min":0,"x_max":1056,"o":"m 656 926 l 585 846 l 696 550 l 724 565 l 623 832 l 695 915 l 713 907 l 644 828 l 739 575 q 749 583 747 581 l 771 602 q 797 625 791 618 q 851 486 814 547 q 823 488 831 488 q 728 467 758 488 l 851 134 l 953 56 l 610 56 l 704 134 l 629 332 q 514 189 554 257 l 498 193 q 618 342 538 260 l 623 349 l 610 378 q 477 222 530 311 l 465 242 q 374 370 429 298 l 368 378 q 315 190 315 262 q 330 118 315 147 q 400 19 345 88 q 415 0 405 13 l 49 0 l 35 18 l 380 18 l 369 33 q 310 117 324 87 q 296 188 296 147 q 353 394 296 257 l 323 425 q 300 361 314 404 l 278 292 q 260 200 260 237 q 273 137 260 162 q 327 68 286 112 q 339 56 331 64 l 0 56 q 154 191 97 106 q 266 452 210 275 l 269 462 q 165 499 233 492 q 222 615 202 555 q 234 604 232 606 l 264 576 q 302 545 280 561 l 314 575 l 306 582 q 249 630 272 612 l 243 635 l 254 650 q 323 595 290 626 l 415 848 l 343 926 l 656 926 m 488 708 l 414 511 q 420 503 420 505 l 448 472 q 505 396 471 448 l 512 386 q 581 458 541 422 l 488 708 m 458 787 l 350 502 q 439 397 401 449 l 470 354 q 477 345 471 353 q 484 353 483 351 l 493 364 q 500 373 495 367 q 390 505 453 446 l 477 734 l 458 787 m 857 592 q 931 425 871 531 q 914 427 916 427 l 859 431 q 805 435 822 435 q 791 434 802 435 l 905 134 l 1056 0 l 663 0 l 650 18 l 1010 18 l 888 126 l 768 446 q 821 452 791 452 q 902 446 857 452 l 894 460 q 836 605 850 541 l 857 592 m 590 1213 q 652 1112 652 1181 q 618 1027 652 1063 q 538 992 585 992 q 446 1032 483 992 l 452 1037 q 530 1004 490 1004 q 606 1036 574 1004 q 637 1112 637 1068 q 583 1207 637 1169 l 590 1213 m 497 1234 q 566 1205 537 1234 q 594 1137 594 1177 q 566 1068 594 1096 q 497 1040 537 1040 q 428 1068 456 1040 q 399 1137 399 1096 q 428 1205 399 1177 q 497 1234 456 1234 m 497 1180 q 466 1167 479 1180 q 453 1137 453 1154 q 466 1105 453 1118 q 497 1093 479 1093 q 528 1105 515 1093 q 541 1137 541 1118 q 528 1167 541 1154 q 497 1180 515 1180 z "},"å":{"ha":1051,"x_min":0,"x_max":1056,"o":"m 656 926 l 585 846 l 696 550 l 724 565 l 623 832 l 695 915 l 713 907 l 644 828 l 739 575 q 749 583 747 581 l 771 602 q 797 625 791 618 q 851 486 814 547 q 823 488 831 488 q 728 467 758 488 l 851 134 l 953 56 l 610 56 l 704 134 l 629 332 q 514 189 554 257 l 498 193 q 618 342 538 260 l 623 349 l 610 378 q 477 222 530 311 l 465 242 q 374 370 429 298 l 368 378 q 315 190 315 262 q 330 118 315 147 q 400 19 345 88 q 415 0 405 13 l 49 0 l 35 18 l 380 18 l 369 33 q 310 117 324 87 q 296 188 296 147 q 353 394 296 257 l 323 425 q 300 361 314 404 l 278 292 q 260 200 260 237 q 273 137 260 162 q 327 68 286 112 q 339 56 331 64 l 0 56 q 154 191 97 106 q 266 452 210 275 l 269 462 q 165 499 233 492 q 222 615 202 555 q 234 604 232 606 l 264 576 q 302 545 280 561 l 314 575 l 306 582 q 249 630 272 612 l 243 635 l 254 650 q 323 595 290 626 l 415 848 l 343 926 l 656 926 m 488 708 l 414 511 q 420 503 420 505 l 448 472 q 505 396 471 448 l 512 386 q 581 458 541 422 l 488 708 m 458 787 l 350 502 q 439 397 401 449 l 470 354 q 477 345 471 353 q 484 353 483 351 l 493 364 q 500 373 495 367 q 390 505 453 446 l 477 734 l 458 787 m 857 592 q 931 425 871 531 q 914 427 916 427 l 859 431 q 805 435 822 435 q 791 434 802 435 l 905 134 l 1056 0 l 663 0 l 650 18 l 1010 18 l 888 126 l 768 446 q 821 452 791 452 q 902 446 857 452 l 894 460 q 836 605 850 541 l 857 592 m 590 1213 q 652 1112 652 1181 q 618 1027 652 1063 q 538 992 585 992 q 446 1032 483 992 l 452 1037 q 530 1004 490 1004 q 606 1036 574 1004 q 637 1112 637 1068 q 583 1207 637 1169 l 590 1213 m 497 1234 q 566 1205 537 1234 q 594 1137 594 1177 q 566 1068 594 1096 q 497 1040 537 1040 q 428 1068 456 1040 q 399 1137 399 1096 q 428 1205 399 1177 q 497 1234 456 1234 m 497 1180 q 466 1167 479 1180 q 453 1137 453 1154 q 466 1105 453 1118 q 497 1093 479 1093 q 528 1105 515 1093 q 541 1137 541 1118 q 528 1167 541 1154 q 497 1180 515 1180 z "},"Ç":{"ha":823,"x_min":33,"x_max":790,"o":"m 451 33 l 437 -23 q 507 -108 507 -23 q 470 -206 507 -167 q 378 -245 433 -245 q 272 -178 311 -245 l 277 -174 l 301 -159 q 345 -127 318 -149 q 386 -191 345 -191 q 419 -165 405 -191 q 434 -103 434 -138 q 396 -58 434 -58 q 362 -78 376 -58 l 350 -67 q 367 -19 359 -44 l 368 -14 q 228 47 299 -3 l 228 53 q 373 2 292 11 q 380 29 376 13 l 381 33 q 125 169 218 50 q 33 482 33 288 q 139 815 33 683 q 408 948 246 948 q 581 911 484 948 q 665 891 632 891 q 730 911 701 891 l 741 905 l 733 892 q 627 679 672 785 l 621 663 l 613 668 q 540 831 597 771 q 402 892 484 892 q 259 817 317 892 q 186 499 186 723 q 253 197 186 306 q 438 88 320 88 q 590 152 534 88 q 657 333 647 215 q 680 361 660 361 q 707 320 707 361 q 686 205 707 264 q 634 113 665 146 q 451 33 567 42 m 544 787 q 427 837 482 837 q 252 502 252 837 q 293 247 252 349 q 407 117 334 145 l 408 110 q 279 233 327 126 q 231 503 231 339 q 281 763 231 673 q 425 854 331 854 q 544 796 489 854 l 544 787 m 509 -43 q 555 -148 555 -79 q 515 -244 555 -204 q 419 -285 475 -285 q 335 -255 366 -285 l 335 -249 q 410 -271 373 -271 q 498 -228 460 -271 q 537 -131 537 -186 q 504 -46 537 -85 l 509 -43 m 387 -96 q 417 -73 391 -73 l 417 -80 q 395 -106 405 -87 l 387 -96 m 765 321 q 519 -12 747 37 l 513 -13 l 495 3 q 615 48 556 8 q 706 151 677 90 q 744 315 736 212 l 745 330 l 765 321 m 790 872 l 783 859 q 665 629 709 733 l 646 638 l 654 655 q 713 773 688 726 l 768 869 l 774 882 l 790 872 m 389 -159 l 405 -167 l 393 -175 l 389 -159 z "},"ç":{"ha":823,"x_min":33,"x_max":790,"o":"m 451 33 l 437 -23 q 507 -108 507 -23 q 470 -206 507 -167 q 378 -245 433 -245 q 272 -178 311 -245 l 277 -174 l 301 -159 q 345 -127 318 -149 q 386 -191 345 -191 q 419 -165 405 -191 q 434 -103 434 -138 q 396 -58 434 -58 q 362 -78 376 -58 l 350 -67 q 367 -19 359 -44 l 368 -14 q 228 47 299 -3 l 228 53 q 373 2 292 11 q 380 29 376 13 l 381 33 q 125 169 218 50 q 33 482 33 288 q 139 815 33 683 q 408 948 246 948 q 581 911 484 948 q 665 891 632 891 q 730 911 701 891 l 741 905 l 733 892 q 627 679 672 785 l 621 663 l 613 668 q 540 831 597 771 q 402 892 484 892 q 259 817 317 892 q 186 499 186 723 q 253 197 186 306 q 438 88 320 88 q 590 152 534 88 q 657 333 647 215 q 680 361 660 361 q 707 320 707 361 q 686 205 707 264 q 634 113 665 146 q 451 33 567 42 m 544 787 q 427 837 482 837 q 252 502 252 837 q 293 247 252 349 q 407 117 334 145 l 408 110 q 279 233 327 126 q 231 503 231 339 q 281 763 231 673 q 425 854 331 854 q 544 796 489 854 l 544 787 m 509 -43 q 555 -148 555 -79 q 515 -244 555 -204 q 419 -285 475 -285 q 335 -255 366 -285 l 335 -249 q 410 -271 373 -271 q 498 -228 460 -271 q 537 -131 537 -186 q 504 -46 537 -85 l 509 -43 m 387 -96 q 417 -73 391 -73 l 417 -80 q 395 -106 405 -87 l 387 -96 m 765 321 q 519 -12 747 37 l 513 -13 l 495 3 q 615 48 556 8 q 706 151 677 90 q 744 315 736 212 l 745 330 l 765 321 m 790 872 l 783 859 q 665 629 709 733 l 646 638 l 654 655 q 713 773 688 726 l 768 869 l 774 882 l 790 872 m 389 -159 l 405 -167 l 393 -175 l 389 -159 z "},"É":{"ha":863,"x_min":0,"x_max":877,"o":"m 763 926 l 752 913 q 642 718 683 828 q 632 741 635 734 q 552 846 595 823 q 399 870 509 870 q 277 867 348 870 l 277 555 l 320 555 l 320 831 q 418 836 372 836 q 545 817 505 836 q 618 746 586 799 q 604 756 608 753 q 525 808 549 800 q 429 816 500 816 q 351 813 407 816 l 337 812 l 337 555 l 462 555 l 549 675 l 549 382 l 462 496 l 277 496 l 277 115 l 320 115 l 320 464 l 467 464 l 485 446 l 337 446 l 337 115 q 534 135 475 115 q 625 212 592 155 l 661 274 q 669 289 663 278 q 713 170 687 214 q 800 65 739 125 l 39 65 l 142 144 l 142 446 q 39 411 85 439 l 30 425 q 142 464 71 455 l 142 496 q 126 497 131 497 q 0 446 57 497 q 142 555 31 555 l 142 844 l 39 926 l 763 926 m 795 878 l 791 872 q 680 686 708 761 l 669 700 q 786 892 714 805 l 795 878 m 596 652 l 596 353 l 579 361 l 579 661 l 596 652 m 877 61 l 842 0 l 101 0 l 90 18 l 833 18 l 856 61 q 718 254 758 151 l 740 245 q 866 72 777 159 l 877 61 m 494 1196 l 328 1062 l 256 1062 l 356 1196 l 494 1196 m 286 1005 l 270 1024 l 353 1024 l 520 1159 l 533 1143 l 363 1005 l 286 1005 z "},"é":{"ha":863,"x_min":0,"x_max":877,"o":"m 763 926 l 752 913 q 642 718 683 828 q 632 741 635 734 q 552 846 595 823 q 399 870 509 870 q 277 867 348 870 l 277 555 l 320 555 l 320 831 q 418 836 372 836 q 545 817 505 836 q 618 746 586 799 q 604 756 608 753 q 525 808 549 800 q 429 816 500 816 q 351 813 407 816 l 337 812 l 337 555 l 462 555 l 549 675 l 549 382 l 462 496 l 277 496 l 277 115 l 320 115 l 320 464 l 467 464 l 485 446 l 337 446 l 337 115 q 534 135 475 115 q 625 212 592 155 l 661 274 q 669 289 663 278 q 713 170 687 214 q 800 65 739 125 l 39 65 l 142 144 l 142 446 q 39 411 85 439 l 30 425 q 142 464 71 455 l 142 496 q 126 497 131 497 q 0 446 57 497 q 142 555 31 555 l 142 844 l 39 926 l 763 926 m 795 878 l 791 872 q 680 686 708 761 l 669 700 q 786 892 714 805 l 795 878 m 596 652 l 596 353 l 579 361 l 579 661 l 596 652 m 877 61 l 842 0 l 101 0 l 90 18 l 833 18 l 856 61 q 718 254 758 151 l 740 245 q 866 72 777 159 l 877 61 m 494 1196 l 328 1062 l 256 1062 l 356 1196 l 494 1196 m 286 1005 l 270 1024 l 353 1024 l 520 1159 l 533 1143 l 363 1005 l 286 1005 z "},"Ñ":{"ha":834,"x_min":-14,"x_max":825,"o":"m 802 926 q 702 852 724 886 q 668 697 668 801 l 668 653 l 668 56 l 553 56 l 233 677 l 233 309 l 233 278 l 241 180 q 302 80 254 113 l 308 75 q 214 275 214 106 l 215 339 l 215 710 l 178 781 l 178 391 q 203 147 178 205 q 317 63 227 90 l 376 0 l 9 0 l -2 18 l 338 18 l 302 56 l -14 56 q 96 136 69 85 q 123 308 123 186 l 123 850 l 33 926 l 376 926 l 280 861 l 608 221 l 608 302 l 327 850 l 422 915 l 435 902 l 351 845 l 608 339 l 608 656 l 608 692 q 589 849 608 810 q 494 926 570 889 l 802 926 m 825 876 l 813 855 q 742 810 761 843 q 724 699 724 777 l 724 0 l 578 0 l 569 18 l 705 18 l 705 692 q 730 826 705 788 q 825 876 755 863 m 588 1195 q 589 1177 589 1182 q 558 1094 589 1128 q 484 1060 528 1060 q 357 1099 436 1060 q 293 1122 312 1122 q 241 1069 248 1122 l 193 1069 q 229 1167 193 1128 q 317 1206 264 1206 q 445 1157 361 1206 q 496 1137 477 1137 q 527 1151 515 1137 q 539 1185 539 1165 q 538 1195 539 1189 l 588 1195 m 626 1176 l 640 1164 q 604 1060 640 1102 q 516 1018 568 1018 q 439 1038 482 1018 l 448 1047 q 513 1033 486 1033 q 625 1168 613 1033 l 626 1176 m 298 1090 l 298 1069 q 278 1019 283 1050 l 224 1019 l 213 1035 l 267 1035 q 298 1090 274 1073 z "},"ñ":{"ha":834,"x_min":-14,"x_max":825,"o":"m 802 926 q 702 852 724 886 q 668 697 668 801 l 668 653 l 668 56 l 553 56 l 233 677 l 233 309 l 233 278 l 241 180 q 302 80 254 113 l 308 75 q 214 275 214 106 l 215 339 l 215 710 l 178 781 l 178 391 q 203 147 178 205 q 317 63 227 90 l 376 0 l 9 0 l -2 18 l 338 18 l 302 56 l -14 56 q 96 136 69 85 q 123 308 123 186 l 123 850 l 33 926 l 376 926 l 280 861 l 608 221 l 608 302 l 327 850 l 422 915 l 435 902 l 351 845 l 608 339 l 608 656 l 608 692 q 589 849 608 810 q 494 926 570 889 l 802 926 m 825 876 l 813 855 q 742 810 761 843 q 724 699 724 777 l 724 0 l 578 0 l 569 18 l 705 18 l 705 692 q 730 826 705 788 q 825 876 755 863 m 588 1195 q 589 1177 589 1182 q 558 1094 589 1128 q 484 1060 528 1060 q 357 1099 436 1060 q 293 1122 312 1122 q 241 1069 248 1122 l 193 1069 q 229 1167 193 1128 q 317 1206 264 1206 q 445 1157 361 1206 q 496 1137 477 1137 q 527 1151 515 1137 q 539 1185 539 1165 q 538 1195 539 1189 l 588 1195 m 626 1176 l 640 1164 q 604 1060 640 1102 q 516 1018 568 1018 q 439 1038 482 1018 l 448 1047 q 513 1033 486 1033 q 625 1168 613 1033 l 626 1176 m 298 1090 l 298 1069 q 278 1019 283 1050 l 224 1019 l 213 1035 l 267 1035 q 298 1090 274 1073 z "},"Ö":{"ha":867,"x_min":33,"x_max":834,"o":"m 553 774 l 542 781 q 422 817 477 817 q 244 467 244 817 q 355 127 244 210 l 349 120 q 252 247 281 168 q 223 458 223 325 q 421 835 223 835 q 553 774 511 835 m 408 935 q 672 810 573 935 q 770 476 770 685 q 673 161 770 279 q 412 44 576 44 q 181 127 282 44 q 33 488 33 249 q 134 814 33 693 q 408 935 236 935 m 408 876 q 179 473 179 876 q 405 101 179 101 q 565 200 510 101 q 620 488 620 298 q 567 788 620 703 q 408 876 511 876 m 625 900 q 778 740 722 853 q 834 478 834 627 q 723 125 834 260 q 432 -9 612 -9 q 216 69 317 -9 l 216 73 q 427 11 300 11 q 707 139 597 11 q 816 467 816 267 q 766 726 816 615 q 625 892 716 838 l 625 900 m 523 1197 q 569 1178 550 1197 q 588 1132 588 1159 q 569 1086 588 1105 q 523 1067 550 1067 q 477 1086 496 1067 q 458 1132 458 1105 q 477 1178 458 1159 q 523 1197 496 1197 m 608 1168 q 645 1101 645 1151 q 621 1039 645 1064 q 561 1015 597 1015 q 497 1046 521 1015 l 497 1051 q 552 1028 529 1028 q 609 1052 585 1028 q 633 1108 633 1075 q 608 1168 633 1135 m 374 1168 q 411 1101 411 1150 q 387 1039 411 1064 q 327 1015 363 1015 q 263 1046 287 1015 l 263 1051 q 318 1028 295 1028 q 375 1052 351 1028 q 399 1108 399 1075 q 374 1168 399 1135 m 287 1197 q 333 1178 314 1197 q 352 1132 352 1159 q 333 1086 352 1105 q 287 1067 314 1067 q 241 1086 260 1067 q 222 1132 222 1105 q 241 1178 222 1158 q 287 1197 260 1197 z "},"ö":{"ha":867,"x_min":33,"x_max":834,"o":"m 553 774 l 542 781 q 422 817 477 817 q 244 467 244 817 q 355 127 244 210 l 349 120 q 252 247 281 168 q 223 458 223 325 q 421 835 223 835 q 553 774 511 835 m 408 935 q 672 810 573 935 q 770 476 770 685 q 673 161 770 279 q 412 44 576 44 q 181 127 282 44 q 33 488 33 249 q 134 814 33 693 q 408 935 236 935 m 408 876 q 179 473 179 876 q 405 101 179 101 q 565 200 510 101 q 620 488 620 298 q 567 788 620 703 q 408 876 511 876 m 625 900 q 778 740 722 853 q 834 478 834 627 q 723 125 834 260 q 432 -9 612 -9 q 216 69 317 -9 l 216 73 q 427 11 300 11 q 707 139 597 11 q 816 467 816 267 q 766 726 816 615 q 625 892 716 838 l 625 900 m 523 1197 q 569 1178 550 1197 q 588 1132 588 1159 q 569 1086 588 1105 q 523 1067 550 1067 q 477 1086 496 1067 q 458 1132 458 1105 q 477 1178 458 1159 q 523 1197 496 1197 m 608 1168 q 645 1101 645 1151 q 621 1039 645 1064 q 561 1015 597 1015 q 497 1046 521 1015 l 497 1051 q 552 1028 529 1028 q 609 1052 585 1028 q 633 1108 633 1075 q 608 1168 633 1135 m 374 1168 q 411 1101 411 1150 q 387 1039 411 1064 q 327 1015 363 1015 q 263 1046 287 1015 l 263 1051 q 318 1028 295 1028 q 375 1052 351 1028 q 399 1108 399 1075 q 374 1168 399 1135 m 287 1197 q 333 1178 314 1197 q 352 1132 352 1159 q 333 1086 352 1105 q 287 1067 314 1067 q 241 1086 260 1067 q 222 1132 222 1105 q 241 1178 222 1158 q 287 1197 260 1197 z "},"Ü":{"ha":844,"x_min":23,"x_max":829,"o":"m 806 926 l 685 829 l 685 391 q 677 217 685 270 q 646 130 669 164 q 420 43 588 43 q 172 130 242 43 q 115 393 115 199 l 115 843 l 23 926 l 343 926 l 251 836 l 251 392 l 252 288 q 294 144 252 186 q 436 102 336 102 q 587 166 546 102 q 621 390 621 218 l 623 829 l 517 926 l 806 926 m 829 880 l 737 803 l 737 382 q 705 112 737 175 q 445 -16 638 -16 q 194 68 278 -16 l 199 65 l 223 52 q 437 3 307 3 q 686 121 625 3 q 718 377 718 184 l 718 811 l 819 894 l 829 880 m 372 889 l 305 822 l 305 318 l 304 271 l 326 185 q 385 123 341 159 l 386 117 q 307 184 329 140 q 286 320 286 228 l 286 829 l 362 903 l 372 889 m 549 1197 q 595 1178 576 1197 q 614 1132 614 1159 q 595 1086 614 1105 q 549 1067 576 1067 q 503 1086 522 1067 q 484 1132 484 1105 q 503 1178 484 1159 q 549 1197 522 1197 m 633 1168 q 671 1101 671 1151 q 646 1039 671 1064 q 587 1015 622 1015 q 522 1046 547 1015 l 522 1051 q 578 1028 555 1028 q 635 1052 611 1028 q 659 1108 659 1075 q 633 1168 659 1135 m 399 1168 q 436 1101 436 1150 q 412 1039 436 1064 q 352 1015 388 1015 q 288 1046 313 1015 l 288 1051 q 344 1028 321 1028 q 400 1052 377 1028 q 424 1108 424 1075 q 399 1168 424 1135 m 313 1197 q 359 1178 340 1197 q 378 1132 378 1159 q 359 1086 378 1105 q 313 1067 340 1067 q 267 1086 286 1067 q 248 1132 248 1105 q 267 1178 248 1159 q 313 1197 286 1197 z "},"ü":{"ha":844,"x_min":23,"x_max":829,"o":"m 806 926 l 685 829 l 685 391 q 677 217 685 270 q 646 130 669 164 q 420 43 588 43 q 172 130 242 43 q 115 393 115 199 l 115 843 l 23 926 l 343 926 l 251 836 l 251 392 l 252 288 q 294 144 252 186 q 436 102 336 102 q 587 166 546 102 q 621 390 621 218 l 623 829 l 517 926 l 806 926 m 829 880 l 737 803 l 737 382 q 705 112 737 175 q 445 -16 638 -16 q 194 68 278 -16 l 199 65 l 223 52 q 437 3 307 3 q 686 121 625 3 q 718 377 718 184 l 718 811 l 819 894 l 829 880 m 372 889 l 305 822 l 305 318 l 304 271 l 326 185 q 385 123 341 159 l 386 117 q 307 184 329 140 q 286 320 286 228 l 286 829 l 362 903 l 372 889 m 549 1197 q 595 1178 576 1197 q 614 1132 614 1159 q 595 1086 614 1105 q 549 1067 576 1067 q 503 1086 522 1067 q 484 1132 484 1105 q 503 1178 484 1159 q 549 1197 522 1197 m 633 1168 q 671 1101 671 1151 q 646 1039 671 1064 q 587 1015 622 1015 q 522 1046 547 1015 l 522 1051 q 578 1028 555 1028 q 635 1052 611 1028 q 659 1108 659 1075 q 633 1168 659 1135 m 399 1168 q 436 1101 436 1150 q 412 1039 436 1064 q 352 1015 388 1015 q 288 1046 313 1015 l 288 1051 q 344 1028 321 1028 q 400 1052 377 1028 q 424 1108 424 1075 q 399 1168 424 1135 m 313 1197 q 359 1178 340 1197 q 378 1132 378 1159 q 359 1086 378 1105 q 313 1067 340 1067 q 267 1086 286 1067 q 248 1132 248 1105 q 267 1178 248 1159 q 313 1197 286 1197 z "},"†":{"ha":817,"x_min":46,"x_max":770,"o":"m 220 1037 l 543 1037 l 451 945 l 451 710 l 492 710 l 492 937 l 569 1012 l 581 998 l 511 930 l 511 710 l 612 710 l 721 824 l 721 541 l 607 653 l 451 653 l 451 33 l 538 -59 l 205 -59 l 315 33 l 315 595 l 182 595 l 88 501 l 73 515 l 178 614 l 315 614 l 315 653 l 160 653 l 46 541 l 46 824 l 155 710 l 315 710 l 315 949 l 220 1037 m 770 800 l 770 507 l 752 517 l 752 810 l 770 800 m 648 595 l 509 595 l 509 27 l 629 -120 l 245 -120 l 229 -102 l 591 -102 l 492 20 l 492 614 l 629 614 l 648 595 z "},"°":{"ha":421,"x_min":36,"x_max":372,"o":"m 294 911 q 351 856 330 892 q 372 775 372 819 q 325 659 372 708 q 212 610 277 610 q 93 659 141 610 l 98 663 q 201 625 149 625 q 310 670 264 625 q 355 779 355 715 q 286 905 355 855 l 294 911 m 175 938 q 273 897 233 938 q 314 799 314 857 q 273 701 314 741 q 175 660 233 660 q 77 701 117 660 q 36 799 36 741 q 77 897 36 857 q 175 938 117 938 m 175 880 q 118 856 142 880 q 94 798 94 832 q 118 741 94 765 q 175 717 142 717 q 233 741 210 717 q 257 798 257 764 q 233 857 257 833 q 175 880 210 880 z "},"¢":{"ha":814,"x_min":138,"x_max":677,"o":"m 366 907 l 417 907 l 417 817 q 459 812 435 817 l 459 884 l 476 870 l 476 808 q 531 787 498 801 q 590 770 570 770 q 631 788 614 770 l 637 784 q 549 596 581 693 l 542 596 q 506 709 542 659 q 417 767 470 758 l 417 224 l 427 224 q 459 229 444 224 l 459 724 q 499 693 477 720 l 499 684 l 476 698 l 476 233 q 536 283 510 245 q 568 366 562 320 l 570 390 q 591 412 573 412 q 614 380 614 412 q 588 277 614 325 q 522 206 563 229 q 417 178 484 185 l 417 68 l 366 68 l 366 138 l 355 142 q 279 180 311 158 l 274 191 q 366 155 317 165 l 366 180 q 200 281 261 197 q 138 490 138 365 q 202 711 138 620 q 366 817 265 802 l 366 907 m 366 710 q 305 520 305 667 q 347 296 305 400 l 352 284 l 352 279 q 288 511 288 374 q 366 731 288 681 l 366 765 q 254 511 254 731 q 281 335 254 400 q 366 238 307 270 l 366 710 m 677 758 l 673 751 q 633 675 651 711 l 591 584 l 587 576 l 570 586 q 660 768 608 677 l 677 758 m 661 381 q 612 220 661 285 q 476 137 564 156 l 476 18 l 402 18 l 389 35 l 459 35 l 459 153 q 592 226 541 165 q 643 373 643 287 q 642 391 643 378 l 661 381 z "},"£":{"ha":833,"x_min":-14,"x_max":852,"o":"m 229 150 l 220 138 q 118 178 159 178 q 69 141 69 178 q 81 109 69 129 l 70 106 q 56 140 56 122 q 73 178 56 163 q 117 193 91 193 q 229 150 178 193 m 784 365 q 801 232 801 297 q 592 34 801 34 q 312 136 454 34 q 122 42 220 42 q 26 75 66 42 q -14 155 -14 109 q 36 249 -14 212 q 165 286 86 286 q 280 262 216 286 l 290 258 q 292 283 292 273 q 241 420 292 352 l 79 420 l 52 498 l 205 498 q 156 675 156 580 q 239 867 156 794 q 456 940 321 940 q 656 879 576 940 q 766 707 737 819 l 597 673 l 597 685 q 552 829 597 776 q 433 883 508 883 q 325 850 366 883 q 283 764 283 817 q 321 611 283 708 l 360 517 l 367 498 l 539 498 l 567 420 l 387 420 q 389 386 389 403 q 361 235 389 299 l 391 220 q 418 330 418 271 l 420 381 l 420 388 l 611 388 l 574 498 l 597 487 l 635 371 l 437 371 l 437 353 q 408 212 437 279 q 577 164 490 164 q 684 201 644 164 q 724 299 724 238 q 715 365 724 328 l 784 365 m 256 174 q 123 222 186 222 q 55 202 82 222 q 27 153 27 182 q 50 106 27 123 q 113 88 73 88 q 256 174 211 88 m 843 334 l 844 323 q 852 218 852 256 q 783 48 852 111 q 594 -14 713 -14 q 469 2 523 -14 q 325 66 414 18 l 316 71 q 135 -7 225 -7 q 1 83 41 -7 l 4 83 q 141 9 60 9 q 232 33 184 9 q 311 94 280 57 q 596 4 464 4 q 771 62 709 4 q 833 225 833 120 q 823 342 833 275 l 843 334 m 96 371 l 90 388 l 250 388 l 256 371 l 96 371 m 571 774 q 439 836 513 836 q 340 751 340 836 q 372 628 340 705 q 414 517 404 546 l 402 513 q 323 754 323 693 q 354 826 323 798 q 437 853 386 853 q 575 774 540 853 l 571 774 m 612 627 l 612 644 l 800 681 q 658 893 786 797 q 755 817 705 876 q 822 667 802 762 l 612 627 z "},"§":{"ha":758,"x_min":28,"x_max":730,"o":"m 625 1035 l 632 1032 q 585 950 602 991 q 534 843 547 860 q 529 861 531 855 q 467 969 507 936 q 359 1002 427 1002 q 253 967 295 1002 q 210 880 210 932 q 271 777 210 817 q 240 852 240 811 q 278 936 240 904 q 377 968 316 968 q 497 913 463 968 l 492 910 q 379 951 439 951 q 293 922 327 951 q 259 848 259 893 q 285 784 259 812 q 355 742 311 755 q 598 639 535 689 q 662 503 662 589 q 514 322 662 373 q 625 145 625 262 q 550 -17 625 46 q 356 -81 475 -81 q 217 -60 286 -81 l 161 -44 q 102 -34 127 -34 q 33 -57 71 -34 l 28 -48 q 128 151 98 55 l 138 149 q 287 -26 155 7 q 179 129 202 19 l 197 132 q 257 11 214 55 q 361 -33 300 -33 q 485 8 435 -33 q 534 110 534 49 q 495 168 534 143 q 349 225 455 192 q 160 298 208 270 q 104 370 112 326 l 126 355 q 251 279 145 315 l 357 244 q 518 172 477 204 q 453 237 490 217 q 283 297 416 256 q 118 378 167 332 q 68 499 68 425 q 111 612 68 567 q 229 670 154 658 q 107 846 107 715 q 177 996 107 940 q 365 1051 246 1051 q 510 1027 431 1051 q 564 1016 546 1016 q 625 1035 593 1016 m 302 644 q 193 606 227 633 q 159 526 159 578 q 244 420 159 458 q 194 515 194 459 q 321 613 194 605 l 382 600 l 391 589 q 323 597 347 597 q 244 572 275 597 q 213 511 213 548 q 261 421 213 458 q 395 369 293 397 l 431 359 q 529 399 494 368 q 564 478 564 431 q 503 574 564 539 q 348 630 469 595 q 302 644 332 635 m 602 300 q 694 135 694 241 q 600 -58 694 18 q 358 -134 505 -134 q 256 -121 303 -134 l 178 -101 q 120 -94 151 -94 q 67 -109 90 -94 l 59 -90 q 115 -74 85 -74 q 183 -84 144 -74 l 260 -104 q 357 -115 307 -115 q 585 -43 496 -115 q 674 141 674 29 q 597 298 674 231 l 579 309 q 711 502 711 389 q 625 657 711 595 l 625 661 q 730 501 730 603 q 602 300 730 380 m 681 1010 q 583 818 618 907 l 567 825 q 621 938 580 863 q 661 1014 630 956 l 663 1019 l 681 1010 z "},"•":{"ha":926,"x_min":272,"x_max":657,"o":"m 465 663 q 601 607 545 663 q 657 471 657 551 q 601 334 657 391 q 465 278 545 278 q 328 334 385 278 q 272 471 272 391 q 328 607 272 551 q 465 663 385 663 z "},"¶":{"ha":882,"x_min":33,"x_max":901,"o":"m 338 -69 l 338 513 l 325 514 q 132 564 201 514 l 132 582 q 307 534 205 534 l 326 534 l 338 534 l 338 570 q 107 630 182 570 q 33 815 33 690 q 65 937 33 884 q 153 1013 98 990 q 338 1037 212 1037 l 849 1037 q 841 1025 844 1029 l 795 965 q 760 903 789 956 q 749 884 756 896 l 743 888 q 711 947 728 932 q 633 979 675 979 q 616 975 629 979 l 616 -69 l 541 -69 l 541 922 l 469 922 l 469 -125 l 361 -125 l 347 -106 l 451 -106 l 451 940 l 541 940 l 541 976 l 416 976 l 416 -69 l 338 -69 m 901 1003 q 809 871 854 960 l 800 854 l 785 867 l 787 871 q 884 1014 838 974 l 888 1017 l 901 1003 m 724 898 q 680 922 705 922 q 669 921 674 922 l 667 920 l 667 -125 l 561 -125 l 546 -106 l 650 -106 l 650 940 q 666 941 661 941 q 724 898 711 941 z "},"®":{"ha":1088,"x_min":46,"x_max":1042,"o":"m 288 711 q 496 764 386 764 q 638 728 582 764 q 694 637 694 692 q 657 558 694 593 q 557 508 620 523 q 625 369 581 437 q 711 262 668 300 l 715 258 l 710 256 q 600 201 650 234 l 594 197 l 592 209 q 526 457 569 351 q 465 441 505 447 l 463 441 l 463 300 l 556 205 l 324 205 l 309 224 l 519 224 l 447 296 l 447 452 l 454 453 q 520 471 494 458 q 517 477 517 476 l 513 490 q 511 495 512 492 q 464 486 489 490 l 416 480 l 412 479 l 412 307 l 457 261 l 277 261 l 331 307 l 331 427 q 323 425 326 426 q 298 417 309 421 q 290 414 295 416 l 282 429 q 308 438 300 436 l 323 441 q 331 444 326 442 l 331 467 q 271 456 309 467 l 267 455 l 267 460 q 275 480 268 463 q 280 498 276 484 q 281 501 281 498 q 310 500 300 500 q 328 500 321 500 l 330 501 l 330 691 q 292 709 311 703 l 288 711 m 412 721 l 412 512 q 447 518 427 512 l 447 699 q 496 705 468 705 q 595 661 569 705 q 506 690 551 690 q 462 686 482 690 l 462 519 q 606 637 606 546 q 571 708 606 680 q 483 736 536 736 q 412 721 440 736 m 626 478 q 695 343 648 406 q 808 239 743 281 q 640 165 720 215 l 636 162 l 619 174 q 772 243 690 220 q 605 482 667 316 l 602 489 q 727 629 727 532 q 694 709 727 664 q 741 614 741 672 q 626 478 741 524 m 739 788 l 720 795 q 534 831 618 831 q 188 467 188 831 q 254 238 188 321 q 470 113 321 155 l 459 106 q 235 222 292 156 q 167 462 167 303 q 522 849 167 849 q 739 788 671 849 m 519 935 q 849 805 719 935 q 979 475 979 675 q 854 161 979 279 q 523 44 730 44 q 234 127 361 44 q 46 488 46 248 q 174 814 46 693 q 519 935 302 935 m 512 886 q 127 473 127 886 q 227 190 127 288 q 515 92 327 92 q 797 193 701 92 q 893 489 893 294 q 869 669 893 598 q 789 792 844 740 q 512 886 690 886 m 791 900 q 975 740 907 854 q 1042 479 1042 627 q 905 125 1042 260 q 543 -9 767 -9 q 271 69 398 -9 l 271 73 q 538 11 378 11 q 889 140 753 11 q 1024 475 1024 269 q 962 728 1024 617 q 791 892 900 839 l 791 900 z "},"©":{"ha":1088,"x_min":46,"x_max":1042,"o":"m 739 788 l 720 795 q 534 831 618 831 q 188 467 188 831 q 254 238 188 321 q 470 113 321 155 l 459 106 q 235 222 292 156 q 167 462 167 303 q 522 849 167 849 q 739 788 671 849 m 724 733 l 719 725 q 650 597 679 661 l 646 588 l 640 591 q 593 689 630 652 q 503 725 556 725 q 399 664 435 725 q 363 489 363 603 q 406 308 363 374 q 527 243 450 243 q 669 390 654 243 q 684 407 671 407 q 701 380 701 407 q 650 256 701 302 q 513 209 598 209 q 331 283 398 209 q 263 484 263 357 q 333 680 263 601 q 507 759 403 759 q 620 736 557 759 q 672 725 652 725 q 716 736 698 725 l 724 733 m 605 654 q 529 682 565 682 q 420 486 420 682 q 516 258 420 296 l 516 250 q 433 324 464 260 q 401 486 401 388 q 527 696 401 696 q 605 662 569 696 l 605 654 m 754 374 q 693 220 747 273 q 542 167 639 167 q 399 213 466 167 l 399 216 q 536 182 456 182 q 676 231 625 182 q 735 373 728 280 l 736 382 l 754 374 m 770 705 l 764 697 q 688 559 719 626 l 671 567 l 677 577 q 750 706 704 631 l 755 713 l 770 705 m 519 935 q 849 805 719 935 q 979 475 979 675 q 854 161 979 279 q 523 44 730 44 q 234 127 361 44 q 46 488 46 248 q 174 814 46 693 q 519 935 302 935 m 512 886 q 127 473 127 886 q 227 190 127 288 q 515 92 327 92 q 797 193 701 92 q 893 489 893 294 q 869 669 893 598 q 789 792 844 740 q 512 886 690 886 m 791 900 q 975 740 907 854 q 1042 479 1042 627 q 905 125 1042 260 q 543 -9 767 -9 q 271 69 398 -9 l 271 73 q 538 11 378 11 q 889 140 753 11 q 1024 475 1024 269 q 962 728 1024 617 q 791 892 900 839 l 791 900 z "},"™":{"ha":1216,"x_min":46,"x_max":1169,"o":"m 536 926 q 530 917 532 919 l 503 871 q 477 810 492 852 l 475 808 l 472 810 l 471 815 q 437 876 458 859 q 370 892 415 892 l 334 891 l 329 891 l 329 476 l 376 435 l 191 435 l 248 479 l 248 851 l 240 851 l 219 851 q 166 837 182 851 q 148 785 151 823 l 133 788 l 134 793 q 159 851 138 836 q 231 866 179 866 l 248 865 l 248 889 q 214 891 228 891 q 134 872 157 891 q 108 803 111 853 l 102 803 q 48 922 87 852 l 46 926 l 536 926 m 571 896 q 512 785 539 858 l 511 781 l 496 791 l 498 794 q 556 904 529 873 l 558 907 l 571 896 m 452 837 q 395 856 426 856 q 369 855 383 856 l 369 471 l 435 398 l 227 398 l 214 412 l 408 412 l 354 470 l 354 869 q 377 869 370 869 q 428 863 413 869 q 452 837 444 857 m 1112 926 l 1057 873 l 1057 479 l 1107 435 l 920 435 l 976 479 l 976 728 l 857 398 l 817 398 l 810 412 l 845 412 l 976 765 l 976 829 l 825 435 l 796 435 l 690 731 l 690 542 q 712 456 690 481 l 728 440 l 768 398 l 550 398 l 538 412 l 739 412 l 719 435 l 537 435 l 545 439 q 606 487 592 465 q 619 562 619 510 l 619 878 l 566 926 l 777 926 l 718 876 l 832 555 l 847 593 l 747 870 l 801 907 l 814 897 l 763 864 l 855 614 l 956 876 l 906 926 l 1112 926 m 652 836 l 652 561 q 665 474 652 498 q 718 439 677 450 l 714 445 q 675 520 675 472 l 675 548 l 675 774 l 652 836 m 1145 890 l 1099 859 l 1099 474 l 1169 398 l 954 398 l 943 412 l 1140 412 l 1084 472 l 1084 869 l 1131 900 l 1145 890 z "},"´":{"ha":694,"x_min":302,"x_max":578,"o":"m 539 1196 l 374 1062 l 302 1062 l 401 1196 l 539 1196 m 332 1005 l 315 1024 l 399 1024 l 566 1159 l 578 1143 l 408 1005 l 332 1005 z "},"¨":{"ha":694,"x_min":136,"x_max":559,"o":"m 437 1197 q 483 1178 464 1197 q 502 1132 502 1159 q 483 1086 502 1105 q 437 1067 464 1067 q 391 1086 410 1067 q 372 1132 372 1105 q 391 1178 372 1159 q 437 1197 410 1197 m 521 1168 q 559 1101 559 1151 q 535 1039 559 1064 q 475 1015 511 1015 q 411 1046 435 1015 l 411 1051 q 466 1028 443 1028 q 523 1052 499 1028 q 547 1108 547 1075 q 521 1168 547 1135 m 287 1168 q 325 1101 325 1150 q 300 1039 325 1064 q 241 1015 276 1015 q 177 1046 201 1015 l 177 1051 q 232 1028 209 1028 q 289 1052 265 1028 q 313 1108 313 1075 q 287 1168 313 1135 m 201 1197 q 247 1178 228 1197 q 266 1132 266 1159 q 247 1086 266 1105 q 201 1067 228 1067 q 155 1086 174 1067 q 136 1132 136 1105 q 155 1178 136 1159 q 201 1197 174 1197 z "},"≠":{"ha":694,"x_min":22,"x_max":673,"o":"m 374 635 l 456 810 l 528 777 l 462 635 l 672 635 l 672 558 l 426 558 l 368 433 l 673 433 l 673 355 l 332 355 l 245 171 l 174 205 l 244 355 l 23 355 l 23 433 l 280 433 l 338 558 l 22 558 l 22 635 l 374 635 z "},"Æ":{"ha":1398,"x_min":-23,"x_max":1413,"o":"m 1289 926 q 1173 724 1209 823 q 1168 734 1170 730 q 1104 839 1137 815 q 994 863 1072 863 l 932 863 l 801 863 l 801 562 l 843 562 l 843 829 q 917 831 879 831 q 1072 817 1029 831 q 1141 760 1116 803 q 1131 766 1135 764 q 1049 804 1088 796 q 903 811 1011 811 l 861 810 l 861 562 l 997 562 l 1085 685 l 1085 373 l 991 500 l 801 500 l 801 115 l 843 115 l 843 465 l 991 465 l 1008 448 l 861 448 l 861 115 l 870 116 l 977 114 l 1032 117 q 1166 161 1121 126 q 1227 271 1211 197 q 1299 113 1261 169 l 1324 76 q 1337 56 1327 71 l 560 56 l 673 154 l 673 307 l 594 208 l 587 227 l 673 334 l 673 397 l 560 252 q 496 330 540 274 q 437 396 464 370 l 433 401 l 366 296 q 318 163 318 221 q 335 97 318 124 q 414 7 352 69 l 421 0 l 14 0 l 3 18 l 388 18 l 351 56 l -23 56 q 116 154 47 81 q 277 368 185 226 l 345 473 q 283 498 310 492 l 261 503 q 254 505 259 504 l 322 606 q 328 599 327 600 l 345 581 q 371 555 358 566 l 385 543 q 391 538 386 542 l 408 562 q 402 568 403 566 l 377 596 l 349 629 l 345 635 l 353 653 q 360 646 359 648 l 386 618 l 417 586 l 421 582 l 587 835 l 482 926 l 1289 926 m 420 412 q 391 439 407 426 l 330 348 q 263 178 263 247 q 342 68 263 106 q 300 158 300 106 q 367 332 300 231 l 420 412 m 674 763 l 503 508 l 600 401 l 674 486 l 674 763 m 674 860 l 430 498 l 561 357 l 587 387 l 480 507 l 674 797 l 674 860 m 1314 896 l 1320 882 q 1213 706 1263 818 l 1209 699 l 1199 710 q 1314 896 1245 827 m 1133 662 l 1133 344 l 1116 353 l 1116 671 l 1133 662 m 1413 58 l 1378 0 l 603 0 l 595 18 l 1369 18 l 1390 52 l 1387 56 q 1279 258 1300 167 l 1301 252 l 1303 246 l 1328 188 q 1372 111 1348 143 l 1407 66 q 1413 58 1408 64 z "},"æ":{"ha":1398,"x_min":-23,"x_max":1413,"o":"m 1289 926 q 1173 724 1209 823 q 1168 734 1170 730 q 1104 839 1137 815 q 994 863 1072 863 l 932 863 l 801 863 l 801 562 l 843 562 l 843 829 q 917 831 879 831 q 1072 817 1029 831 q 1141 760 1116 803 q 1131 766 1135 764 q 1049 804 1088 796 q 903 811 1011 811 l 861 810 l 861 562 l 997 562 l 1085 685 l 1085 373 l 991 500 l 801 500 l 801 115 l 843 115 l 843 465 l 991 465 l 1008 448 l 861 448 l 861 115 l 870 116 l 977 114 l 1032 117 q 1166 161 1121 126 q 1227 271 1211 197 q 1299 113 1261 169 l 1324 76 q 1337 56 1327 71 l 560 56 l 673 154 l 673 307 l 594 208 l 587 227 l 673 334 l 673 397 l 560 252 q 496 330 540 274 q 437 396 464 370 l 433 401 l 366 296 q 318 163 318 221 q 335 97 318 124 q 414 7 352 69 l 421 0 l 14 0 l 3 18 l 388 18 l 351 56 l -23 56 q 116 154 47 81 q 277 368 185 226 l 345 473 q 283 498 310 492 l 261 503 q 254 505 259 504 l 322 606 q 328 599 327 600 l 345 581 q 371 555 358 566 l 385 543 q 391 538 386 542 l 408 562 q 402 568 403 566 l 377 596 l 349 629 l 345 635 l 353 653 q 360 646 359 648 l 386 618 l 417 586 l 421 582 l 587 835 l 482 926 l 1289 926 m 420 412 q 391 439 407 426 l 330 348 q 263 178 263 247 q 342 68 263 106 q 300 158 300 106 q 367 332 300 231 l 420 412 m 674 763 l 503 508 l 600 401 l 674 486 l 674 763 m 674 860 l 430 498 l 561 357 l 587 387 l 480 507 l 674 797 l 674 860 m 1314 896 l 1320 882 q 1213 706 1263 818 l 1209 699 l 1199 710 q 1314 896 1245 827 m 1133 662 l 1133 344 l 1116 353 l 1116 671 l 1133 662 m 1413 58 l 1378 0 l 603 0 l 595 18 l 1369 18 l 1390 52 l 1387 56 q 1279 258 1300 167 l 1301 252 l 1303 246 l 1328 188 q 1372 111 1348 143 l 1407 66 q 1413 58 1408 64 z "},"Ø":{"ha":868,"x_min":32,"x_max":836,"o":"m 688 934 l 637 846 q 733 692 696 796 q 771 475 771 589 q 674 162 771 281 q 417 44 577 44 q 201 114 296 44 l 158 43 l 94 43 l 158 149 q 32 494 32 272 q 135 813 32 690 q 404 935 238 935 q 593 882 513 935 l 623 934 l 688 934 m 604 682 l 306 183 q 357 127 327 151 l 350 120 q 286 183 308 149 l 598 711 q 583 758 593 730 l 243 183 q 408 101 301 101 q 567 198 513 101 q 621 484 621 296 q 604 682 621 593 m 534 784 q 429 819 492 819 q 243 467 243 819 q 256 315 243 375 l 534 784 m 551 811 q 406 878 498 878 q 180 479 180 878 q 213 242 180 315 l 241 290 l 239 299 q 224 465 224 390 q 423 836 224 836 q 540 792 486 836 l 551 811 m 724 921 l 737 906 l 701 846 q 836 471 836 712 q 722 126 836 260 q 431 -8 609 -8 q 231 58 328 -8 l 188 -16 l 59 -16 l 71 3 l 177 3 l 218 73 q 423 11 332 11 q 708 140 599 11 q 818 475 818 269 q 781 689 818 591 q 680 846 745 787 l 724 921 z "},"ø":{"ha":868,"x_min":32,"x_max":836,"o":"m 688 934 l 637 846 q 733 692 696 796 q 771 475 771 589 q 674 162 771 281 q 417 44 577 44 q 201 114 296 44 l 158 43 l 94 43 l 158 149 q 32 494 32 272 q 135 813 32 690 q 404 935 238 935 q 593 882 513 935 l 623 934 l 688 934 m 604 682 l 306 183 q 357 127 327 151 l 350 120 q 286 183 308 149 l 598 711 q 583 758 593 730 l 243 183 q 408 101 301 101 q 567 198 513 101 q 621 484 621 296 q 604 682 621 593 m 534 784 q 429 819 492 819 q 243 467 243 819 q 256 315 243 375 l 534 784 m 551 811 q 406 878 498 878 q 180 479 180 878 q 213 242 180 315 l 241 290 l 239 299 q 224 465 224 390 q 423 836 224 836 q 540 792 486 836 l 551 811 m 724 921 l 737 906 l 701 846 q 836 471 836 712 q 722 126 836 260 q 431 -8 609 -8 q 231 58 328 -8 l 188 -16 l 59 -16 l 71 3 l 177 3 l 218 73 q 423 11 332 11 q 708 140 599 11 q 818 475 818 269 q 781 689 818 591 q 680 846 745 787 l 724 921 z "},"∞":{"ha":926,"x_min":4,"x_max":922,"o":"m 422 376 q 321 258 367 291 q 214 225 275 225 q 65 292 126 225 q 4 453 4 358 q 72 640 4 565 q 239 715 139 715 q 476 549 373 715 q 490 572 486 565 q 586 687 543 656 q 699 717 630 717 q 858 645 793 717 q 922 467 922 573 q 848 283 922 357 q 667 209 775 209 q 535 253 600 209 q 422 376 471 297 m 500 514 q 622 366 564 412 q 747 321 680 321 q 844 363 805 321 q 884 467 884 405 q 833 572 884 534 q 693 610 783 610 q 500 514 563 610 m 393 418 q 279 562 328 522 q 172 602 231 602 q 78 563 114 602 q 41 461 41 524 q 88 365 41 400 q 216 330 135 330 q 318 350 278 330 q 393 418 357 370 z "},"±":{"ha":815,"x_min":104,"x_max":711,"o":"m 104 181 l 458 181 l 458 416 l 696 416 l 696 500 l 711 486 l 711 397 l 477 397 l 477 181 l 656 181 l 656 96 l 104 96 l 104 181 m 337 779 l 422 779 l 422 538 l 458 538 l 458 741 l 477 730 l 477 538 l 656 538 l 656 453 l 422 453 l 422 227 l 337 227 l 337 397 l 138 397 l 126 416 l 337 416 l 337 453 l 104 453 l 104 538 l 337 538 l 337 779 m 696 144 l 711 129 l 711 41 l 139 41 l 127 60 l 696 60 l 696 144 z "},"≤":{"ha":694,"x_min":58,"x_max":637,"o":"m 637 869 l 637 800 l 243 546 l 637 281 l 637 98 l 58 490 l 58 500 l 637 869 m 58 62 l 637 62 l 637 0 l 58 0 l 58 62 z "},"≥":{"ha":694,"x_min":58,"x_max":637,"o":"m 58 62 l 637 62 l 637 0 l 58 0 l 58 62 m 58 98 l 58 167 l 452 421 l 58 686 l 58 869 l 637 473 l 637 463 l 58 98 z "},"¥":{"ha":833,"x_min":-60,"x_max":894,"o":"m 863 926 l 707 837 l 528 541 l 570 541 l 739 810 l 884 898 l 894 880 l 748 793 l 591 541 l 625 541 l 655 463 l 479 463 l 452 414 l 452 376 l 490 376 l 490 414 l 503 434 l 698 434 l 668 519 l 690 509 l 724 414 l 514 414 l 509 408 l 509 376 l 625 376 l 655 300 l 452 300 l 452 144 l 551 61 l 220 61 l 316 144 l 316 252 l 181 252 l 176 269 l 316 269 l 316 300 l 147 300 l 121 376 l 316 376 l 316 414 l 176 414 l 170 434 l 309 434 l 289 463 l 147 463 l 116 541 l 239 541 l 139 695 l 119 724 l 77 795 q -60 926 22 880 l 282 926 l 199 837 l 427 498 l 446 531 l 247 837 l 307 902 l 320 892 l 269 837 l 457 550 l 637 837 l 551 926 l 863 926 m 724 252 l 509 252 l 509 144 l 625 0 l 252 0 l 245 18 l 591 18 l 490 144 l 490 269 l 703 269 l 673 354 l 691 342 l 724 252 z "},"µ":{"ha":640,"x_min":-6,"x_max":663,"o":"m 663 73 l 663 49 l 520 -14 q 514 -16 517 -16 q 446 64 465 -16 q 439 92 444 73 q 332 0 369 22 q 243 -21 295 -21 q 92 99 134 -21 l 91 70 q 121 -125 91 -3 q 132 -196 132 -170 q 112 -247 132 -227 q 63 -267 92 -267 q 13 -247 33 -267 q -6 -196 -6 -227 q 5 -109 -6 -166 q 45 364 45 104 l 45 635 l 183 635 l 183 237 q 208 95 183 137 q 289 53 232 53 q 431 147 362 53 l 431 635 l 567 635 l 567 172 q 578 84 567 106 q 622 62 589 62 q 663 73 641 62 z "},"∂":{"ha":694,"x_min":39,"x_max":656,"o":"m 196 936 l 210 961 q 459 799 357 905 q 599 573 542 713 q 656 319 656 434 q 569 74 656 170 q 343 -21 481 -21 q 125 73 212 -21 q 39 309 39 167 q 125 537 39 444 q 339 631 212 631 q 423 617 391 631 q 494 566 455 604 q 508 553 498 562 q 387 781 458 692 q 196 936 315 869 m 347 593 q 259 557 298 593 q 203 452 227 526 q 180 307 180 379 q 200 164 180 236 q 250 62 220 93 q 344 16 292 16 q 466 98 417 16 q 514 307 514 181 q 470 517 514 441 q 347 593 425 593 z "},"∑":{"ha":926,"x_min":66,"x_max":865,"o":"m 66 926 l 808 926 l 808 693 l 781 693 q 718 841 768 798 q 555 884 668 884 l 252 884 l 529 373 l 191 -235 l 555 -235 q 745 -186 680 -235 q 838 -19 810 -136 l 865 -19 l 819 -324 l 66 -324 l 413 298 l 66 926 z "},"∏":{"ha":926,"x_min":-10,"x_max":936,"o":"m -10 926 l 936 926 l 936 899 l 905 899 q 829 879 846 899 q 812 788 812 859 l 812 -186 q 829 -277 812 -256 q 901 -297 845 -297 l 935 -297 l 935 -324 l 527 -324 l 527 -297 l 557 -297 q 633 -277 616 -297 q 650 -186 650 -257 l 650 788 q 633 879 650 859 q 557 899 616 899 l 371 899 q 295 879 312 899 q 279 788 279 859 l 279 -186 q 295 -277 279 -256 q 368 -297 312 -297 l 401 -297 l 401 -324 l -6 -324 l -6 -297 l 24 -297 q 99 -277 83 -297 q 116 -186 116 -257 l 116 788 q 99 879 116 859 q 24 899 83 899 l -10 899 l -10 926 z "},"π":{"ha":694,"x_min":-39,"x_max":772,"o":"m 772 654 l 772 561 l 582 561 l 572 536 q 543 407 543 462 l 543 187 q 554 87 543 113 q 599 62 566 62 q 642 69 609 62 q 665 74 649 71 l 665 47 l 485 -14 q 467 -18 471 -18 q 418 26 445 -18 q 396 122 396 62 l 396 334 q 425 455 396 409 l 460 506 l 484 543 q 499 561 487 547 l 268 561 l 264 408 q 252 244 264 356 q 226 69 239 132 q 149 -28 205 -28 q 102 -8 121 -28 q 83 41 83 12 q 100 104 83 70 l 115 133 q 171 323 146 194 q 195 560 195 452 q 77 537 121 560 q -19 447 33 514 l -39 467 l 50 597 q 184 654 90 654 l 772 654 z "},"∫":{"ha":695,"x_min":-26,"x_max":720,"o":"m 429 703 l 429 7 q 420 -155 429 -105 q 387 -248 412 -205 q 175 -360 321 -360 q 32 -316 89 -360 q -26 -205 -26 -271 q 0 -139 -26 -166 q 62 -113 26 -113 q 124 -136 98 -113 q 150 -192 150 -159 q 138 -233 150 -214 q 124 -269 124 -254 q 138 -297 124 -285 q 172 -309 151 -309 q 240 -255 215 -309 q 266 -111 266 -202 l 266 622 q 274 787 266 737 q 307 881 282 838 q 516 993 374 993 q 662 949 604 993 q 720 840 720 905 q 695 772 720 799 q 632 745 669 745 q 570 768 596 745 q 545 825 545 792 q 557 866 545 847 q 570 899 570 886 q 524 941 570 941 q 433 789 446 941 l 430 745 q 429 703 429 728 z "},"ª":{"ha":543,"x_min":33,"x_max":524,"o":"m 92 804 q 40 881 71 846 q 106 903 67 886 q 233 930 171 930 q 366 896 325 930 q 408 783 408 861 l 408 538 l 441 491 l 332 491 q 208 439 278 439 q 130 460 173 439 q 191 448 162 448 q 319 506 263 448 l 319 564 q 248 502 280 519 q 172 485 216 485 q 72 521 111 485 q 33 613 33 557 q 85 705 33 671 q 258 740 122 729 q 329 803 329 745 q 318 848 329 827 q 265 855 294 855 q 136 772 188 855 l 121 781 q 258 866 174 866 q 313 854 289 866 q 222 888 285 888 q 92 804 144 888 m 324 731 q 231 699 293 705 q 125 610 125 689 q 150 551 125 575 q 144 585 144 570 q 250 675 144 664 q 323 692 298 679 l 323 704 l 324 731 m 323 671 q 263 661 294 663 q 157 570 157 651 q 162 543 157 557 q 198 536 183 536 q 288 574 253 536 q 323 671 323 612 m 510 440 l 372 440 l 353 454 l 492 454 l 445 519 l 445 765 q 437 829 445 808 q 404 876 429 851 q 450 828 437 855 q 463 751 463 801 l 463 506 l 510 440 m 469 408 l 469 351 l 33 351 l 33 408 l 469 408 m 509 370 l 524 355 l 524 294 l 67 294 l 56 313 l 509 313 l 509 370 z "},"º":{"ha":562,"x_min":33,"x_max":534,"o":"m 260 930 q 419 868 360 930 q 479 699 479 805 q 419 544 479 602 q 262 486 360 486 q 97 548 161 486 q 33 707 33 610 q 94 870 33 810 q 260 930 156 930 m 193 544 q 258 528 224 528 q 379 715 379 528 q 359 831 379 787 q 302 846 328 846 q 171 660 171 846 q 193 544 171 590 m 185 549 q 157 674 157 597 q 288 860 157 860 q 355 839 326 860 q 260 888 320 888 q 130 701 130 888 q 185 549 130 589 m 116 492 l 121 497 q 262 449 179 449 q 446 517 375 449 q 516 693 516 585 q 500 793 516 746 q 463 853 484 840 l 458 855 l 463 860 q 530 686 530 800 q 460 504 530 572 q 276 435 391 435 q 116 492 183 435 m 479 408 l 479 351 l 42 351 l 42 408 l 479 408 m 518 370 l 534 355 l 534 294 l 77 294 l 65 313 l 518 313 l 518 370 z "},"Ω":{"ha":926,"x_min":-43,"x_max":968,"o":"m 968 190 l 916 0 l 519 0 l 519 85 q 672 208 623 142 q 762 506 762 330 q 679 787 762 679 q 463 895 595 895 q 243 783 322 895 q 164 512 164 670 q 252 214 164 338 q 408 85 303 140 l 408 0 l 9 0 l -43 190 l -15 190 q 33 115 3 137 q 121 90 63 93 l 165 88 l 317 81 l 317 91 q 130 192 195 135 q -18 508 -18 321 q 115 810 -18 678 q 464 941 245 941 q 833 791 701 941 q 943 513 943 667 q 790 187 943 315 q 610 91 728 136 l 610 82 l 774 89 l 819 91 q 895 116 868 94 q 941 190 922 138 l 968 190 z "},"¿":{"ha":603,"x_min":23,"x_max":589,"o":"m 389 533 q 437 431 437 494 q 401 299 437 368 q 293 168 381 262 l 265 138 q 214 35 214 84 q 241 -58 214 -4 l 218 -37 q 196 35 196 -3 q 214 105 196 73 q 280 184 232 136 q 389 318 358 260 q 420 446 420 376 q 369 537 420 508 l 374 544 q 403 618 403 592 q 376 688 403 648 l 381 694 q 420 618 420 658 q 389 533 420 587 m 477 182 q 527 56 527 122 q 459 -85 527 -31 q 283 -139 391 -139 q 97 -79 172 -139 q 23 72 23 -18 q 54 182 23 135 q 161 281 85 230 l 233 329 q 296 391 268 353 q 321 451 323 429 l 319 488 q 325 505 318 498 q 341 511 332 512 q 370 489 357 511 q 382 439 382 467 q 279 241 382 347 q 188 132 211 172 q 164 44 164 92 q 198 -49 164 -14 q 287 -85 232 -85 q 368 -55 334 -85 q 402 16 402 -26 q 346 93 402 60 q 353 98 353 97 l 390 119 q 477 182 429 141 m 271 722 q 333 696 307 722 q 359 635 359 671 q 333 572 359 598 q 271 547 307 547 q 209 572 235 547 q 183 635 183 598 q 209 696 183 671 q 271 722 235 722 m 304 492 q 216 532 245 497 l 220 537 q 300 511 258 515 l 304 492 m 529 180 q 589 41 589 127 q 504 -126 589 -58 q 298 -195 419 -195 q 50 -85 146 -195 l 55 -77 q 290 -176 157 -176 q 491 -112 411 -176 q 570 50 570 -47 q 560 109 570 86 l 532 173 l 529 180 z "},"¡":{"ha":431,"x_min":37,"x_max":393,"o":"m 166 456 l 189 456 q 189 443 189 445 q 227 198 189 322 q 326 1 265 75 q 230 -61 260 -28 q 174 -167 199 -95 q 126 -55 155 -92 q 37 12 98 -17 l 45 23 q 134 212 108 123 q 166 446 159 302 l 166 456 m 393 -33 l 381 -39 q 286 -103 319 -72 q 223 -191 253 -135 l 201 -201 q 361 -27 232 -98 q 269 171 304 52 q 235 408 235 290 l 254 408 l 254 401 q 291 165 262 257 q 387 -24 319 73 l 393 -33 m 178 722 q 240 696 214 722 q 266 635 266 671 q 240 572 266 598 q 178 547 214 547 q 116 572 142 547 q 90 635 90 598 q 116 696 90 671 q 178 722 142 722 m 288 694 q 326 607 326 659 q 292 526 326 561 q 212 492 258 492 q 123 532 157 492 l 127 537 q 207 511 172 511 q 279 541 249 511 q 310 611 310 570 q 283 688 310 649 l 288 694 z "},"¬":{"ha":694,"x_min":45,"x_max":648,"o":"m 475 0 l 475 296 l 45 296 l 45 370 l 648 370 l 648 0 l 475 0 z "},"√":{"ha":926,"x_min":23,"x_max":903,"o":"m 903 1143 l 903 1099 l 743 1099 l 486 0 l 338 0 l 220 493 l 23 493 l 23 538 l 340 538 l 450 70 l 702 1143 l 903 1143 z "},"ƒ":{"ha":833,"x_min":-262,"x_max":933,"o":"m 557 669 l 587 590 l 405 590 l 317 132 q 279 -26 296 18 q 224 -110 262 -70 q 33 -188 151 -188 q -158 -120 -68 -188 q -262 36 -248 -52 q -179 77 -224 50 l -114 116 l -104 121 q -109 59 -109 83 q -70 -68 -109 -18 q 26 -119 -31 -119 q 126 -62 90 -119 q 189 134 163 -6 l 195 164 l 279 590 l 154 590 l 127 669 l 294 669 q 418 920 328 825 q 621 1015 507 1015 q 767 971 701 1015 q 855 863 833 928 q 735 791 795 838 q 605 958 715 958 q 487 882 536 958 q 419 669 438 806 l 463 669 q 614 924 494 924 q 672 900 644 924 q 712 839 700 876 q 703 848 705 846 l 681 873 q 612 908 650 908 q 530 844 565 908 q 479 669 494 781 l 557 669 m 613 659 l 654 542 l 454 542 l 372 119 q 328 -50 349 2 q 265 -144 307 -102 q 50 -225 182 -225 q -111 -188 -52 -225 l -106 -180 q 41 -211 -34 -211 q 255 -130 176 -211 q 313 -41 294 -90 q 355 121 333 8 l 440 560 l 630 560 l 592 669 l 613 659 m 855 926 q 933 839 901 896 q 760 744 812 792 l 755 759 q 911 846 813 812 q 855 919 890 886 l 855 926 m -41 102 q -50 40 -50 71 q -32 -40 -50 -2 q 14 -95 -14 -77 l 19 -98 l 19 -107 q -67 40 -67 -64 q -56 105 -67 78 l -41 102 m 165 560 l 258 560 l 258 542 l 170 542 l 165 560 z "},"≈":{"ha":694,"x_min":35,"x_max":660,"o":"m 631 684 l 660 668 q 564 564 619 602 q 454 526 509 526 q 367 542 420 526 l 323 555 q 192 583 234 583 q 134 571 157 583 q 77 523 112 559 q 63 510 72 519 l 35 526 q 241 669 132 669 q 374 640 283 669 q 494 614 456 614 q 631 684 570 614 m 631 460 l 660 445 q 564 340 619 378 q 454 302 509 302 q 323 332 418 302 q 192 359 236 359 q 134 348 157 359 q 77 300 112 336 q 63 286 72 296 l 35 302 q 241 446 132 446 q 374 417 283 446 q 494 391 455 391 q 631 460 570 391 z "},"∆":{"ha":926,"x_min":-3,"x_max":930,"o":"m 503 945 l 930 0 l -3 0 l 421 945 l 503 945 m 416 787 l 151 195 q 132 134 132 153 q 147 102 132 111 q 199 93 161 93 l 718 93 l 416 787 z "},"«":{"ha":420,"x_min":23,"x_max":406,"o":"m 163 459 l 277 648 l 335 648 l 261 459 l 335 273 l 271 273 l 163 459 m 298 433 l 373 616 l 387 598 l 320 435 l 406 222 l 318 222 l 296 239 l 376 239 l 298 433 m 23 459 l 136 648 l 195 648 l 121 459 l 195 273 l 131 273 l 23 459 m 157 433 l 265 222 l 177 222 l 156 239 l 235 239 l 157 433 z "},"»":{"ha":425,"x_min":31,"x_max":399,"o":"m 205 454 l 95 269 l 31 269 l 104 465 l 31 646 l 95 646 l 205 454 m 62 219 l 54 239 l 118 239 l 140 275 l 149 250 l 130 219 l 62 219 m 344 454 l 233 269 l 170 269 l 243 465 l 170 646 l 233 646 l 344 454 m 399 442 l 269 219 l 199 219 l 192 239 l 256 239 l 377 442 l 270 629 l 302 606 l 399 442 z "},"…":{"ha":1111,"x_min":67,"x_max":1044,"o":"m 155 221 q 217 195 191 221 q 243 133 243 170 q 217 71 243 97 q 155 45 191 45 q 93 71 119 45 q 67 133 67 97 q 93 195 67 170 q 155 221 119 221 m 266 193 q 303 106 303 158 q 269 25 303 60 q 189 -9 235 -9 q 100 31 134 -9 l 105 36 q 184 10 149 10 q 257 40 227 10 q 287 110 287 69 q 260 188 287 149 l 266 193 m 526 221 q 587 195 562 221 q 613 133 613 170 q 587 71 613 97 q 526 45 562 45 q 463 71 489 45 q 437 133 437 97 q 463 195 437 170 q 526 221 489 221 m 636 193 q 674 106 674 158 q 640 25 674 60 q 559 -9 605 -9 q 471 31 505 -9 l 475 36 q 555 10 519 10 q 627 40 597 10 q 658 110 658 69 q 631 188 658 149 l 636 193 m 896 221 q 958 195 932 221 q 983 133 983 170 q 958 71 983 97 q 896 45 932 45 q 833 71 859 45 q 808 133 808 97 q 833 195 808 170 q 896 221 859 221 m 1006 193 q 1044 106 1044 157 q 1010 25 1044 60 q 930 -9 975 -9 q 841 31 876 -9 l 846 36 q 925 10 889 10 q 998 40 967 10 q 1028 110 1028 69 q 1001 188 1028 149 l 1006 193 z "},"À":{"ha":1051,"x_min":0,"x_max":1056,"o":"m 656 926 l 585 846 l 696 550 l 724 565 l 623 832 l 695 915 l 713 907 l 644 828 l 739 575 q 749 583 747 581 l 771 602 q 797 625 791 618 q 851 486 814 547 q 823 488 831 488 q 728 467 758 488 l 851 134 l 953 56 l 610 56 l 704 134 l 629 332 q 514 189 554 257 l 498 193 q 618 342 538 260 l 623 349 l 610 378 q 477 222 530 311 l 465 242 q 374 370 429 298 l 368 378 q 315 190 315 262 q 330 118 315 147 q 400 19 345 88 q 415 0 405 13 l 49 0 l 35 18 l 380 18 l 369 33 q 310 117 324 87 q 296 188 296 147 q 353 394 296 257 l 323 425 q 300 361 314 404 l 278 292 q 260 200 260 237 q 273 137 260 162 q 327 68 286 112 q 339 56 331 64 l 0 56 q 154 191 97 106 q 266 452 210 275 l 269 462 q 165 499 233 492 q 222 615 202 555 q 234 604 232 606 l 264 576 q 302 545 280 561 l 314 575 l 306 582 q 249 630 272 612 l 243 635 l 254 650 q 323 595 290 626 l 415 848 l 343 926 l 656 926 m 488 708 l 414 511 q 420 503 420 505 l 448 472 q 505 396 471 448 l 512 386 q 581 458 541 422 l 488 708 m 458 787 l 350 502 q 439 397 401 449 l 470 354 q 477 345 471 353 q 484 353 483 351 l 493 364 q 500 373 495 367 q 390 505 453 446 l 477 734 l 458 787 m 857 592 q 931 425 871 531 q 914 427 916 427 l 859 431 q 805 435 822 435 q 791 434 802 435 l 905 134 l 1056 0 l 663 0 l 650 18 l 1010 18 l 888 126 l 768 446 q 821 452 791 452 q 902 446 857 452 l 894 460 q 836 605 850 541 l 857 592 m 446 1195 l 539 1065 l 460 1065 l 304 1195 l 446 1195 m 629 1019 l 515 1019 l 496 1036 l 591 1036 l 506 1154 l 535 1147 l 629 1019 z "},"à":{"ha":1051,"x_min":0,"x_max":1056,"o":"m 656 926 l 585 846 l 696 550 l 724 565 l 623 832 l 695 915 l 713 907 l 644 828 l 739 575 q 749 583 747 581 l 771 602 q 797 625 791 618 q 851 486 814 547 q 823 488 831 488 q 728 467 758 488 l 851 134 l 953 56 l 610 56 l 704 134 l 629 332 q 514 189 554 257 l 498 193 q 618 342 538 260 l 623 349 l 610 378 q 477 222 530 311 l 465 242 q 374 370 429 298 l 368 378 q 315 190 315 262 q 330 118 315 147 q 400 19 345 88 q 415 0 405 13 l 49 0 l 35 18 l 380 18 l 369 33 q 310 117 324 87 q 296 188 296 147 q 353 394 296 257 l 323 425 q 300 361 314 404 l 278 292 q 260 200 260 237 q 273 137 260 162 q 327 68 286 112 q 339 56 331 64 l 0 56 q 154 191 97 106 q 266 452 210 275 l 269 462 q 165 499 233 492 q 222 615 202 555 q 234 604 232 606 l 264 576 q 302 545 280 561 l 314 575 l 306 582 q 249 630 272 612 l 243 635 l 254 650 q 323 595 290 626 l 415 848 l 343 926 l 656 926 m 488 708 l 414 511 q 420 503 420 505 l 448 472 q 505 396 471 448 l 512 386 q 581 458 541 422 l 488 708 m 458 787 l 350 502 q 439 397 401 449 l 470 354 q 477 345 471 353 q 484 353 483 351 l 493 364 q 500 373 495 367 q 390 505 453 446 l 477 734 l 458 787 m 857 592 q 931 425 871 531 q 914 427 916 427 l 859 431 q 805 435 822 435 q 791 434 802 435 l 905 134 l 1056 0 l 663 0 l 650 18 l 1010 18 l 888 126 l 768 446 q 821 452 791 452 q 902 446 857 452 l 894 460 q 836 605 850 541 l 857 592 m 446 1195 l 539 1065 l 460 1065 l 304 1195 l 446 1195 m 629 1019 l 515 1019 l 496 1036 l 591 1036 l 506 1154 l 535 1147 l 629 1019 z "},"Ã":{"ha":1051,"x_min":0,"x_max":1056,"o":"m 656 926 l 585 846 l 696 550 l 724 565 l 623 832 l 695 915 l 713 907 l 644 828 l 739 575 q 749 583 747 581 l 771 602 q 797 625 791 618 q 851 486 814 547 q 823 488 831 488 q 728 467 758 488 l 851 134 l 953 56 l 610 56 l 704 134 l 629 332 q 514 189 554 257 l 498 193 q 618 342 538 260 l 623 349 l 610 378 q 477 222 530 311 l 465 242 q 374 370 429 298 l 368 378 q 315 190 315 262 q 330 118 315 147 q 400 19 345 88 q 415 0 405 13 l 49 0 l 35 18 l 380 18 l 369 33 q 310 117 324 87 q 296 188 296 147 q 353 394 296 257 l 323 425 q 300 361 314 404 l 278 292 q 260 200 260 237 q 273 137 260 162 q 327 68 286 112 q 339 56 331 64 l 0 56 q 154 191 97 106 q 266 452 210 275 l 269 462 q 165 499 233 492 q 222 615 202 555 q 234 604 232 606 l 264 576 q 302 545 280 561 l 314 575 l 306 582 q 249 630 272 612 l 243 635 l 254 650 q 323 595 290 626 l 415 848 l 343 926 l 656 926 m 488 708 l 414 511 q 420 503 420 505 l 448 472 q 505 396 471 448 l 512 386 q 581 458 541 422 l 488 708 m 458 787 l 350 502 q 439 397 401 449 l 470 354 q 477 345 471 353 q 484 353 483 351 l 493 364 q 500 373 495 367 q 390 505 453 446 l 477 734 l 458 787 m 857 592 q 931 425 871 531 q 914 427 916 427 l 859 431 q 805 435 822 435 q 791 434 802 435 l 905 134 l 1056 0 l 663 0 l 650 18 l 1010 18 l 888 126 l 768 446 q 821 452 791 452 q 902 446 857 452 l 894 460 q 836 605 850 541 l 857 592 m 697 1195 q 699 1177 699 1182 q 668 1094 699 1128 q 593 1060 637 1060 q 467 1099 545 1060 q 401 1122 421 1122 q 350 1069 357 1122 l 302 1069 q 338 1167 302 1128 q 425 1206 373 1206 q 554 1157 470 1206 q 606 1137 587 1137 q 636 1151 624 1137 q 648 1185 648 1165 q 648 1195 648 1188 l 697 1195 m 735 1176 l 749 1164 q 713 1060 749 1102 q 625 1018 677 1018 q 548 1038 591 1018 l 556 1047 q 622 1033 595 1033 q 734 1168 722 1033 l 735 1176 m 407 1090 l 407 1069 q 387 1019 393 1050 l 333 1019 l 322 1035 l 376 1035 q 407 1090 383 1073 z "},"ã":{"ha":1051,"x_min":0,"x_max":1056,"o":"m 656 926 l 585 846 l 696 550 l 724 565 l 623 832 l 695 915 l 713 907 l 644 828 l 739 575 q 749 583 747 581 l 771 602 q 797 625 791 618 q 851 486 814 547 q 823 488 831 488 q 728 467 758 488 l 851 134 l 953 56 l 610 56 l 704 134 l 629 332 q 514 189 554 257 l 498 193 q 618 342 538 260 l 623 349 l 610 378 q 477 222 530 311 l 465 242 q 374 370 429 298 l 368 378 q 315 190 315 262 q 330 118 315 147 q 400 19 345 88 q 415 0 405 13 l 49 0 l 35 18 l 380 18 l 369 33 q 310 117 324 87 q 296 188 296 147 q 353 394 296 257 l 323 425 q 300 361 314 404 l 278 292 q 260 200 260 237 q 273 137 260 162 q 327 68 286 112 q 339 56 331 64 l 0 56 q 154 191 97 106 q 266 452 210 275 l 269 462 q 165 499 233 492 q 222 615 202 555 q 234 604 232 606 l 264 576 q 302 545 280 561 l 314 575 l 306 582 q 249 630 272 612 l 243 635 l 254 650 q 323 595 290 626 l 415 848 l 343 926 l 656 926 m 488 708 l 414 511 q 420 503 420 505 l 448 472 q 505 396 471 448 l 512 386 q 581 458 541 422 l 488 708 m 458 787 l 350 502 q 439 397 401 449 l 470 354 q 477 345 471 353 q 484 353 483 351 l 493 364 q 500 373 495 367 q 390 505 453 446 l 477 734 l 458 787 m 857 592 q 931 425 871 531 q 914 427 916 427 l 859 431 q 805 435 822 435 q 791 434 802 435 l 905 134 l 1056 0 l 663 0 l 650 18 l 1010 18 l 888 126 l 768 446 q 821 452 791 452 q 902 446 857 452 l 894 460 q 836 605 850 541 l 857 592 m 697 1195 q 699 1177 699 1182 q 668 1094 699 1128 q 593 1060 637 1060 q 467 1099 545 1060 q 401 1122 421 1122 q 350 1069 357 1122 l 302 1069 q 338 1167 302 1128 q 425 1206 373 1206 q 554 1157 470 1206 q 606 1137 587 1137 q 636 1151 624 1137 q 648 1185 648 1165 q 648 1195 648 1188 l 697 1195 m 735 1176 l 749 1164 q 713 1060 749 1102 q 625 1018 677 1018 q 548 1038 591 1018 l 556 1047 q 622 1033 595 1033 q 734 1168 722 1033 l 735 1176 m 407 1090 l 407 1069 q 387 1019 393 1050 l 333 1019 l 322 1035 l 376 1035 q 407 1090 383 1073 z "},"Õ":{"ha":867,"x_min":33,"x_max":834,"o":"m 553 774 l 542 781 q 422 817 477 817 q 244 467 244 817 q 355 127 244 210 l 349 120 q 252 247 281 168 q 223 458 223 325 q 421 835 223 835 q 553 774 511 835 m 408 935 q 672 810 573 935 q 770 476 770 685 q 673 161 770 279 q 412 44 576 44 q 181 127 282 44 q 33 488 33 249 q 134 814 33 693 q 408 935 236 935 m 408 876 q 179 473 179 876 q 405 101 179 101 q 565 200 510 101 q 620 488 620 298 q 567 788 620 703 q 408 876 511 876 m 625 900 q 778 740 722 853 q 834 478 834 627 q 723 125 834 260 q 432 -9 612 -9 q 216 69 317 -9 l 216 73 q 427 11 300 11 q 707 139 597 11 q 816 467 816 267 q 766 726 816 615 q 625 892 716 838 l 625 900 m 604 1195 q 606 1177 606 1182 q 575 1094 606 1128 q 500 1060 544 1060 q 374 1099 452 1060 q 309 1122 328 1122 q 257 1069 264 1122 l 210 1069 q 245 1167 210 1128 q 332 1206 280 1206 q 461 1157 377 1206 q 513 1137 494 1137 q 543 1151 531 1137 q 555 1185 555 1165 q 555 1195 555 1188 l 604 1195 m 642 1176 l 656 1164 q 621 1060 656 1102 q 532 1018 585 1018 q 455 1038 498 1018 l 463 1047 q 529 1033 502 1033 q 642 1168 629 1033 l 642 1176 m 314 1090 l 314 1069 q 294 1019 300 1050 l 240 1019 l 229 1035 l 283 1035 q 314 1090 290 1073 z "},"õ":{"ha":867,"x_min":33,"x_max":834,"o":"m 553 774 l 542 781 q 422 817 477 817 q 244 467 244 817 q 355 127 244 210 l 349 120 q 252 247 281 168 q 223 458 223 325 q 421 835 223 835 q 553 774 511 835 m 408 935 q 672 810 573 935 q 770 476 770 685 q 673 161 770 279 q 412 44 576 44 q 181 127 282 44 q 33 488 33 249 q 134 814 33 693 q 408 935 236 935 m 408 876 q 179 473 179 876 q 405 101 179 101 q 565 200 510 101 q 620 488 620 298 q 567 788 620 703 q 408 876 511 876 m 625 900 q 778 740 722 853 q 834 478 834 627 q 723 125 834 260 q 432 -9 612 -9 q 216 69 317 -9 l 216 73 q 427 11 300 11 q 707 139 597 11 q 816 467 816 267 q 766 726 816 615 q 625 892 716 838 l 625 900 m 604 1195 q 606 1177 606 1182 q 575 1094 606 1128 q 500 1060 544 1060 q 374 1099 452 1060 q 309 1122 328 1122 q 257 1069 264 1122 l 210 1069 q 245 1167 210 1128 q 332 1206 280 1206 q 461 1157 377 1206 q 513 1137 494 1137 q 543 1151 531 1137 q 555 1185 555 1165 q 555 1195 555 1188 l 604 1195 m 642 1176 l 656 1164 q 621 1060 656 1102 q 532 1018 585 1018 q 455 1038 498 1018 l 463 1047 q 529 1033 502 1033 q 642 1168 629 1033 l 642 1176 m 314 1090 l 314 1069 q 294 1019 300 1050 l 240 1019 l 229 1035 l 283 1035 q 314 1090 290 1073 z "},"Œ":{"ha":1323,"x_min":33,"x_max":1337,"o":"m 513 0 l 509 -1 q 425 -12 457 -12 q 216 66 315 -12 l 216 69 q 435 7 302 7 q 497 14 471 7 l 515 18 l 521 18 l 1293 18 l 1316 61 q 1179 254 1218 151 l 1200 245 q 1326 72 1237 159 l 1337 61 l 1302 0 l 513 0 m 553 771 q 422 814 479 814 q 244 464 244 814 q 355 124 244 207 l 349 115 q 252 241 281 163 q 223 454 223 320 q 421 832 223 832 q 553 771 511 832 m 530 56 l 526 54 q 433 41 490 41 q 141 161 250 41 q 33 486 33 281 q 134 810 33 690 q 408 931 236 931 q 505 920 457 931 l 1223 920 l 1212 907 q 1102 712 1142 821 q 1092 734 1095 727 q 1013 840 1055 816 q 859 863 970 863 l 760 861 l 737 860 l 737 555 l 781 555 l 781 825 q 879 829 833 829 q 1005 810 964 829 q 1078 739 1046 792 q 1064 750 1068 746 q 985 801 1010 792 q 889 809 960 809 q 812 806 863 809 l 798 806 l 798 555 l 922 555 l 1009 675 l 1009 382 l 922 496 l 737 496 l 737 115 l 781 115 l 781 464 l 928 464 l 945 446 l 798 446 l 798 115 q 994 134 936 115 q 1085 212 1052 154 l 1121 274 q 1129 288 1123 277 q 1173 163 1147 211 q 1259 56 1200 116 l 530 56 m 614 427 l 614 521 q 604 686 614 628 q 567 785 593 744 q 409 873 510 873 q 179 470 179 873 q 405 98 179 98 q 602 291 553 98 l 603 295 q 614 427 614 349 m 1255 878 l 1251 872 q 1141 686 1168 761 l 1128 700 q 1246 892 1174 805 l 1255 878 m 1056 652 l 1056 353 l 1039 361 l 1039 661 l 1056 652 z "},"œ":{"ha":1323,"x_min":33,"x_max":1337,"o":"m 513 0 l 509 -1 q 425 -12 457 -12 q 216 66 315 -12 l 216 69 q 435 7 302 7 q 497 14 471 7 l 515 18 l 521 18 l 1293 18 l 1316 61 q 1179 254 1218 151 l 1200 245 q 1326 72 1237 159 l 1337 61 l 1302 0 l 513 0 m 553 771 q 422 814 479 814 q 244 464 244 814 q 355 124 244 207 l 349 115 q 252 241 281 163 q 223 454 223 320 q 421 832 223 832 q 553 771 511 832 m 530 56 l 526 54 q 433 41 490 41 q 141 161 250 41 q 33 486 33 281 q 134 810 33 690 q 408 931 236 931 q 505 920 457 931 l 1223 920 l 1212 907 q 1102 712 1142 821 q 1092 734 1095 727 q 1013 840 1055 816 q 859 863 970 863 l 760 861 l 737 860 l 737 555 l 781 555 l 781 825 q 879 829 833 829 q 1005 810 964 829 q 1078 739 1046 792 q 1064 750 1068 746 q 985 801 1010 792 q 889 809 960 809 q 812 806 863 809 l 798 806 l 798 555 l 922 555 l 1009 675 l 1009 382 l 922 496 l 737 496 l 737 115 l 781 115 l 781 464 l 928 464 l 945 446 l 798 446 l 798 115 q 994 134 936 115 q 1085 212 1052 154 l 1121 274 q 1129 288 1123 277 q 1173 163 1147 211 q 1259 56 1200 116 l 530 56 m 614 427 l 614 521 q 604 686 614 628 q 567 785 593 744 q 409 873 510 873 q 179 470 179 873 q 405 98 179 98 q 602 291 553 98 l 603 295 q 614 427 614 349 m 1255 878 l 1251 872 q 1141 686 1168 761 l 1128 700 q 1246 892 1174 805 l 1255 878 m 1056 652 l 1056 353 l 1039 361 l 1039 661 l 1056 652 z "},"­":{"ha":713,"x_min":0,"x_max":713,"o":"m 616 524 l 646 444 l 28 444 l 0 524 l 616 524 m 713 395 l 73 395 l 58 414 l 688 414 l 657 507 l 679 491 l 713 395 z "},"–":{"ha":713,"x_min":0,"x_max":713,"o":"m 616 524 l 646 444 l 28 444 l 0 524 l 616 524 m 713 395 l 73 395 l 58 414 l 688 414 l 657 507 l 679 491 l 713 395 z "},"—":{"ha":991,"x_min":0,"x_max":991,"o":"m 894 524 l 924 444 l 28 444 l 0 524 l 894 524 m 991 395 l 73 395 l 58 414 l 966 414 l 935 507 l 957 491 l 991 395 z "},"“":{"ha":574,"x_min":23,"x_max":548,"o":"m 111 578 l 98 593 q 210 647 154 629 l 223 652 l 220 651 q 172 762 172 702 q 258 893 172 823 l 265 899 l 279 884 l 272 879 q 193 762 193 817 q 256 646 193 705 q 111 578 179 621 m 43 604 q 23 698 23 652 q 224 931 23 867 l 229 922 l 222 916 q 153 776 153 857 q 189 675 153 718 q 176 671 180 672 q 43 604 100 643 m 380 578 l 367 593 q 479 647 422 629 l 492 652 l 489 651 q 440 762 440 703 q 527 893 440 823 l 534 899 l 548 884 l 541 879 q 462 762 462 817 q 524 646 462 706 q 380 578 448 621 m 312 604 q 292 698 292 652 q 492 931 292 867 l 498 922 l 491 916 q 421 776 421 857 q 458 675 421 718 q 445 671 449 672 q 312 604 368 643 z "},"”":{"ha":570,"x_min":23,"x_max":551,"o":"m 473 931 q 494 838 494 884 q 293 604 494 669 l 288 614 l 294 620 q 364 760 364 678 q 328 861 364 818 q 340 865 336 864 q 473 931 418 894 m 541 911 q 551 836 551 871 q 328 558 551 644 l 318 576 l 330 581 q 488 692 443 625 q 532 831 532 760 q 521 920 532 866 l 541 911 m 209 931 q 229 838 229 884 q 28 604 229 669 l 23 614 l 30 620 q 100 760 100 679 q 64 861 100 818 q 77 865 72 864 q 209 931 153 893 m 276 911 q 288 836 288 869 q 63 558 288 644 l 54 576 l 66 581 q 224 692 180 627 q 269 831 269 760 q 257 920 269 866 l 276 911 z "},"‘":{"ha":306,"x_min":23,"x_max":279,"o":"m 111 578 l 98 593 q 210 647 154 629 l 223 652 l 220 651 q 172 762 172 702 q 258 893 172 823 l 265 899 l 279 884 l 272 879 q 193 762 193 817 q 256 646 193 705 q 111 578 179 621 m 43 604 q 23 698 23 652 q 224 931 23 867 l 229 922 l 222 916 q 153 776 153 857 q 189 675 153 718 q 176 671 180 672 q 43 604 100 643 z "},"’":{"ha":306,"x_min":23,"x_max":288,"o":"m 209 931 q 229 838 229 884 q 28 604 229 669 l 23 614 l 30 620 q 100 760 100 679 q 64 861 100 818 q 77 865 72 864 q 209 931 153 893 m 276 911 q 288 836 288 869 q 63 558 288 644 l 54 576 l 66 581 q 224 692 180 627 q 269 831 269 760 q 257 920 269 866 l 276 911 z "},"÷":{"ha":815,"x_min":104,"x_max":711,"o":"m 656 538 l 656 453 l 104 453 l 104 538 l 656 538 m 696 500 l 711 486 l 711 397 l 139 397 l 127 416 l 696 416 l 696 500 m 378 772 q 428 751 407 772 q 448 701 448 730 q 428 651 448 672 q 378 631 407 631 q 328 651 349 631 q 307 701 307 672 q 328 751 307 730 q 378 772 349 772 m 466 745 q 500 676 500 718 q 472 610 500 638 q 404 581 443 581 q 334 616 361 581 l 337 620 q 401 600 372 600 q 458 624 434 600 q 483 680 483 647 q 461 741 483 710 l 466 745 m 378 361 q 428 340 407 361 q 448 290 448 319 q 428 240 448 261 q 378 220 407 220 q 328 240 349 220 q 307 290 307 261 q 328 340 307 319 q 378 361 349 361 m 466 335 q 500 265 500 307 q 472 199 500 227 q 404 170 443 170 q 334 205 360 170 l 337 210 q 401 189 373 189 q 458 213 434 189 q 483 269 483 236 q 461 330 483 299 l 466 335 z "},"◊":{"ha":926,"x_min":102,"x_max":824,"o":"m 463 962 l 824 463 l 463 -36 l 102 463 l 463 962 m 463 839 l 189 463 l 463 87 l 736 463 l 463 839 z "},"ÿ":{"ha":891,"x_min":-33,"x_max":1006,"o":"m -33 926 l 310 926 l 226 838 l 452 498 l 473 532 l 272 838 l 343 906 l 357 895 l 296 838 l 484 549 l 635 788 q 701 944 701 892 q 654 1034 701 982 q 601 1015 627 1015 q 537 1046 561 1015 l 537 1050 q 592 1028 569 1028 q 649 1052 625 1028 q 673 1108 673 1075 q 647 1168 673 1134 q 685 1101 685 1150 q 669 1049 685 1073 q 968 1160 848 1095 l 976 1164 l 980 1159 l 973 1152 q 773 895 852 1025 q 730 825 743 846 l 477 421 l 477 146 l 576 56 l 245 56 l 343 146 l 343 421 l 180 671 l 145 728 q 66 838 97 803 q -25 920 35 872 l -33 926 m 1006 1124 l 1006 1096 l 1000 1089 q 902 981 943 1035 q 780 798 861 926 l 534 412 l 534 146 l 655 0 l 231 0 l 222 18 l 619 18 l 516 146 l 516 416 l 766 811 l 806 873 q 1006 1124 911 1041 m 563 1197 q 609 1178 590 1197 q 628 1132 628 1159 q 609 1086 628 1105 q 563 1067 590 1067 q 517 1086 536 1067 q 498 1132 498 1105 q 517 1178 498 1159 q 563 1197 536 1197 m 413 1168 q 451 1101 451 1150 q 427 1039 451 1064 q 367 1015 402 1015 q 302 1046 327 1015 l 302 1051 q 358 1028 335 1028 q 415 1052 391 1028 q 439 1108 439 1075 q 413 1168 439 1135 m 327 1197 q 373 1178 354 1197 q 392 1132 392 1159 q 373 1086 392 1105 q 327 1067 354 1067 q 281 1086 300 1067 q 262 1132 262 1105 q 281 1178 262 1159 q 327 1197 300 1197 z "},"Ÿ":{"ha":891,"x_min":-33,"x_max":1006,"o":"m -33 926 l 310 926 l 226 838 l 452 498 l 473 532 l 272 838 l 343 906 l 357 895 l 296 838 l 484 549 l 635 788 q 701 944 701 892 q 654 1034 701 982 q 601 1015 627 1015 q 537 1046 561 1015 l 537 1050 q 592 1028 569 1028 q 649 1052 625 1028 q 673 1108 673 1075 q 647 1168 673 1134 q 685 1101 685 1150 q 669 1049 685 1073 q 968 1160 848 1095 l 976 1164 l 980 1159 l 973 1152 q 773 895 852 1025 q 730 825 743 846 l 477 421 l 477 146 l 576 56 l 245 56 l 343 146 l 343 421 l 180 671 l 145 728 q 66 838 97 803 q -25 920 35 872 l -33 926 m 1006 1124 l 1006 1096 l 1000 1089 q 902 981 943 1035 q 780 798 861 926 l 534 412 l 534 146 l 655 0 l 231 0 l 222 18 l 619 18 l 516 146 l 516 416 l 766 811 l 806 873 q 1006 1124 911 1041 m 563 1197 q 609 1178 590 1197 q 628 1132 628 1159 q 609 1086 628 1105 q 563 1067 590 1067 q 517 1086 536 1067 q 498 1132 498 1105 q 517 1178 498 1159 q 563 1197 536 1197 m 413 1168 q 451 1101 451 1150 q 427 1039 451 1064 q 367 1015 402 1015 q 302 1046 327 1015 l 302 1051 q 358 1028 335 1028 q 415 1052 391 1028 q 439 1108 439 1075 q 413 1168 439 1135 m 327 1197 q 373 1178 354 1197 q 392 1132 392 1159 q 373 1086 392 1105 q 327 1067 354 1067 q 281 1086 300 1067 q 262 1132 262 1105 q 281 1178 262 1159 q 327 1197 300 1197 z "},"∕":{"ha":172,"x_min":-210,"x_max":436,"o":"m 391 940 l -146 51 l -210 51 l 328 940 l 391 940 m -197 11 l -125 11 l 424 920 l 436 906 l -115 -7 l -190 -7 l -197 11 z "},"€":{"ha":815,"x_min":-2,"x_max":830,"o":"m 464 854 q 584 796 529 854 l 584 787 q 467 837 522 837 q 302 644 334 837 l 443 644 l 465 582 l 229 582 q 226 499 226 542 q 228 441 226 470 l 273 441 q 271 503 271 466 q 272 527 271 508 q 272 551 272 546 l 510 551 l 482 623 l 501 614 l 533 534 l 292 534 q 292 502 292 527 q 293 441 292 465 l 443 441 l 465 378 l 234 378 q 478 88 276 88 q 697 333 675 88 q 720 361 700 361 q 747 317 747 361 q 717 181 747 252 q 456 32 654 32 q 213 117 309 32 q 92 330 125 195 l 54 330 l 47 348 l 87 348 q 81 378 84 363 l 22 378 l -2 441 l 74 441 q 73 490 73 465 q 74 534 73 512 l 54 534 l 47 551 l 76 551 q 80 582 77 567 l 22 582 l -2 644 l 94 644 q 218 858 131 777 q 448 948 314 948 q 585 920 500 948 q 705 891 669 891 q 770 911 741 891 l 781 905 l 773 892 q 667 679 704 772 l 661 663 l 652 668 q 588 822 638 762 q 442 892 530 892 q 236 644 275 892 l 281 644 q 464 854 317 854 m 447 117 l 447 110 q 335 201 380 122 q 284 348 299 263 l 510 348 l 482 419 l 501 411 l 533 330 l 308 330 q 447 117 345 158 m 805 321 q 479 -22 783 -22 q 268 47 366 -22 l 268 53 q 477 -4 355 -4 q 654 46 576 -4 q 763 191 734 99 q 784 315 777 239 l 785 330 l 805 321 m 830 872 l 823 859 q 705 629 746 727 l 686 638 l 694 655 q 753 773 718 710 l 814 882 l 830 872 z "},"‹":{"ha":279,"x_min":23,"x_max":265,"o":"m 23 459 l 136 648 l 195 648 l 121 459 l 195 273 l 131 273 l 23 459 m 157 433 l 232 616 l 246 598 l 180 435 l 265 222 l 177 222 l 156 239 l 235 239 l 157 433 z "},"›":{"ha":287,"x_min":31,"x_max":260,"o":"m 205 454 l 95 269 l 31 269 l 104 465 l 31 646 l 95 646 l 205 454 m 260 442 l 130 219 l 62 219 l 54 239 l 118 239 l 239 442 l 132 629 l 164 606 l 260 442 z "},"‡":{"ha":817,"x_min":46,"x_max":770,"o":"m 492 478 l 492 688 l 629 688 l 648 669 l 509 669 l 509 478 l 612 478 l 721 589 l 721 304 l 607 421 l 451 421 l 451 33 l 538 -59 l 205 -59 l 315 33 l 315 363 l 182 363 l 88 265 l 73 279 l 178 382 l 315 382 l 315 421 l 160 421 l 46 304 l 46 589 l 155 478 l 315 478 l 315 669 l 182 669 l 88 575 l 73 589 l 178 688 l 315 688 l 315 727 l 160 727 l 46 614 l 46 898 l 155 784 l 315 784 l 315 949 l 220 1037 l 543 1037 l 451 945 l 451 784 l 492 784 l 492 937 l 569 1012 l 581 998 l 511 930 l 511 784 l 612 784 l 721 898 l 721 614 l 607 727 l 451 727 l 451 478 l 492 478 m 770 875 l 770 581 l 752 592 l 752 884 l 770 875 m 770 555 l 770 271 l 752 282 l 752 566 l 770 555 m 648 363 l 509 363 l 509 27 l 629 -120 l 245 -120 l 229 -102 l 591 -102 l 492 20 l 492 382 l 629 382 l 648 363 z "},"∙":{"ha":248,"x_min":0,"x_max":248,"o":"m 92 589 q 158 562 131 589 q 184 496 184 535 q 157 431 184 458 q 92 404 130 404 q 27 431 54 404 q 0 496 0 458 q 27 562 0 534 q 92 589 54 589 m 208 559 q 248 467 248 522 q 212 383 248 419 q 128 347 176 347 q 35 389 71 347 l 39 394 q 123 368 86 368 q 199 398 167 368 q 231 472 231 429 q 203 553 231 512 l 208 559 z "},"‚":{"ha":363,"x_min":23,"x_max":288,"o":"m 209 206 q 229 113 229 159 q 28 -121 229 -56 l 23 -111 l 30 -105 q 100 35 100 -47 q 64 136 100 93 q 77 140 72 138 q 209 206 151 168 m 276 186 q 288 111 288 144 q 63 -168 288 -81 l 54 -149 l 66 -144 q 224 -33 180 -99 q 269 106 269 35 q 257 195 269 140 l 276 186 z "},"„":{"ha":570,"x_min":23,"x_max":551,"o":"m 473 206 q 494 113 494 159 q 293 -121 494 -57 l 288 -111 l 294 -105 q 364 35 364 -47 q 328 136 364 93 q 340 140 336 138 q 473 206 418 169 m 541 186 q 551 111 551 145 q 328 -168 551 -82 l 318 -149 l 330 -144 q 488 -33 443 -100 q 532 106 532 35 q 521 195 532 141 l 541 186 m 209 206 q 229 113 229 159 q 28 -121 229 -56 l 23 -111 l 30 -105 q 100 35 100 -47 q 64 136 100 93 q 77 140 72 138 q 209 206 153 168 m 276 186 q 288 111 288 144 q 63 -168 288 -81 l 54 -149 l 66 -144 q 224 -33 180 -99 q 269 106 269 35 q 257 195 269 140 l 276 186 z "},"‰":{"ha":1304,"x_min":23,"x_max":1285,"o":"m 690 924 l 204 50 l 145 50 l 629 924 l 690 924 m 716 909 l 727 890 l 238 -1 l 173 -1 l 162 17 l 229 17 l 716 909 m 253 848 q 218 861 235 861 q 170 832 183 861 q 157 725 157 802 q 203 552 157 600 l 194 552 q 152 613 163 576 q 140 727 140 651 q 155 844 140 812 q 213 876 171 876 q 258 848 240 876 l 253 848 m 198 953 q 327 885 277 953 q 377 710 377 818 q 332 546 377 604 q 204 488 286 488 q 71 551 119 488 q 23 726 23 614 q 71 891 23 829 q 198 953 119 953 m 199 898 q 130 857 151 898 q 109 720 109 815 q 204 535 109 535 q 292 716 292 535 q 199 898 292 898 m 322 920 l 332 920 q 406 832 380 889 q 433 705 433 776 q 381 527 433 596 q 250 458 330 458 q 193 475 216 458 l 203 475 q 238 469 221 469 q 365 535 315 469 q 416 704 416 602 q 322 920 416 831 m 671 361 q 635 375 653 375 q 578 300 578 375 l 575 216 l 577 182 q 621 66 585 103 l 612 66 q 569 128 581 92 q 557 241 557 165 q 573 358 557 327 q 631 390 589 390 q 676 361 658 390 l 671 361 m 616 467 q 745 399 694 467 q 795 225 795 332 q 750 60 795 119 q 622 2 705 2 q 489 65 538 2 q 441 240 441 129 q 489 405 441 343 q 616 467 536 467 m 617 412 q 548 371 569 412 q 527 235 527 330 q 622 50 527 50 q 710 230 710 50 q 617 412 710 412 m 740 435 l 750 435 q 824 347 798 404 q 850 220 850 290 q 800 42 850 111 q 667 -27 749 -27 q 610 -11 633 -27 l 621 -11 q 657 -17 637 -17 q 784 50 734 -17 q 834 218 834 116 q 740 435 834 345 m 1106 361 q 1070 375 1088 375 q 1013 300 1013 375 l 1010 216 l 1012 182 q 1055 66 1019 103 l 1047 66 q 1004 128 1015 92 q 992 241 992 165 q 1007 358 992 327 q 1065 390 1023 390 q 1111 361 1093 390 l 1106 361 m 1050 467 q 1179 399 1129 467 q 1230 225 1230 332 q 1184 60 1230 119 q 1057 2 1139 2 q 924 65 972 2 q 876 240 876 129 q 923 405 876 343 q 1050 467 971 467 m 1052 412 q 983 371 1004 412 q 962 235 962 330 q 1057 50 962 50 q 1145 230 1145 50 q 1052 412 1145 412 m 1175 435 l 1185 435 q 1259 347 1232 404 q 1285 220 1285 290 q 1234 41 1285 110 q 1102 -27 1183 -27 q 1045 -11 1068 -27 l 1055 -11 q 1092 -17 1072 -17 q 1219 50 1168 -17 q 1269 218 1269 116 q 1175 435 1269 345 z "},"Â":{"ha":1051,"x_min":0,"x_max":1056,"o":"m 656 926 l 585 846 l 696 550 l 724 565 l 623 832 l 695 915 l 713 907 l 644 828 l 739 575 q 749 583 747 581 l 771 602 q 797 625 791 618 q 851 486 814 547 q 823 488 831 488 q 728 467 758 488 l 851 134 l 953 56 l 610 56 l 704 134 l 629 332 q 514 189 554 257 l 498 193 q 618 342 538 260 l 623 349 l 610 378 q 477 222 530 311 l 465 242 q 374 370 429 298 l 368 378 q 315 190 315 262 q 330 118 315 147 q 400 19 345 88 q 415 0 405 13 l 49 0 l 35 18 l 380 18 l 369 33 q 310 117 324 87 q 296 188 296 147 q 353 394 296 257 l 323 425 q 300 361 314 404 l 278 292 q 260 200 260 237 q 273 137 260 162 q 327 68 286 112 q 339 56 331 64 l 0 56 q 154 191 97 106 q 266 452 210 275 l 269 462 q 165 499 233 492 q 222 615 202 555 q 234 604 232 606 l 264 576 q 302 545 280 561 l 314 575 l 306 582 q 249 630 272 612 l 243 635 l 254 650 q 323 595 290 626 l 415 848 l 343 926 l 656 926 m 488 708 l 414 511 q 420 503 420 505 l 448 472 q 505 396 471 448 l 512 386 q 581 458 541 422 l 488 708 m 458 787 l 350 502 q 439 397 401 449 l 470 354 q 477 345 471 353 q 484 353 483 351 l 493 364 q 500 373 495 367 q 390 505 453 446 l 477 734 l 458 787 m 857 592 q 931 425 871 531 q 914 427 916 427 l 859 431 q 805 435 822 435 q 791 434 802 435 l 905 134 l 1056 0 l 663 0 l 650 18 l 1010 18 l 888 126 l 768 446 q 821 452 791 452 q 902 446 857 452 l 894 460 q 836 605 850 541 l 857 592 m 506 1111 l 425 1016 l 366 1016 l 353 1030 l 418 1030 l 496 1122 l 479 1141 l 410 1063 l 339 1063 l 453 1198 l 541 1198 l 657 1063 l 549 1063 l 506 1111 m 749 1016 l 593 1016 l 580 1030 l 715 1030 l 598 1167 l 623 1162 l 749 1016 z "},"â":{"ha":1051,"x_min":0,"x_max":1056,"o":"m 656 926 l 585 846 l 696 550 l 724 565 l 623 832 l 695 915 l 713 907 l 644 828 l 739 575 q 749 583 747 581 l 771 602 q 797 625 791 618 q 851 486 814 547 q 823 488 831 488 q 728 467 758 488 l 851 134 l 953 56 l 610 56 l 704 134 l 629 332 q 514 189 554 257 l 498 193 q 618 342 538 260 l 623 349 l 610 378 q 477 222 530 311 l 465 242 q 374 370 429 298 l 368 378 q 315 190 315 262 q 330 118 315 147 q 400 19 345 88 q 415 0 405 13 l 49 0 l 35 18 l 380 18 l 369 33 q 310 117 324 87 q 296 188 296 147 q 353 394 296 257 l 323 425 q 300 361 314 404 l 278 292 q 260 200 260 237 q 273 137 260 162 q 327 68 286 112 q 339 56 331 64 l 0 56 q 154 191 97 106 q 266 452 210 275 l 269 462 q 165 499 233 492 q 222 615 202 555 q 234 604 232 606 l 264 576 q 302 545 280 561 l 314 575 l 306 582 q 249 630 272 612 l 243 635 l 254 650 q 323 595 290 626 l 415 848 l 343 926 l 656 926 m 488 708 l 414 511 q 420 503 420 505 l 448 472 q 505 396 471 448 l 512 386 q 581 458 541 422 l 488 708 m 458 787 l 350 502 q 439 397 401 449 l 470 354 q 477 345 471 353 q 484 353 483 351 l 493 364 q 500 373 495 367 q 390 505 453 446 l 477 734 l 458 787 m 857 592 q 931 425 871 531 q 914 427 916 427 l 859 431 q 805 435 822 435 q 791 434 802 435 l 905 134 l 1056 0 l 663 0 l 650 18 l 1010 18 l 888 126 l 768 446 q 821 452 791 452 q 902 446 857 452 l 894 460 q 836 605 850 541 l 857 592 m 506 1111 l 425 1016 l 366 1016 l 353 1030 l 418 1030 l 496 1122 l 479 1141 l 410 1063 l 339 1063 l 453 1198 l 541 1198 l 657 1063 l 549 1063 l 506 1111 m 749 1016 l 593 1016 l 580 1030 l 715 1030 l 598 1167 l 623 1162 l 749 1016 z "},"Ê":{"ha":863,"x_min":0,"x_max":877,"o":"m 763 926 l 752 913 q 642 718 683 828 q 632 741 635 734 q 552 846 595 823 q 399 870 509 870 q 277 867 348 870 l 277 555 l 320 555 l 320 831 q 418 836 372 836 q 545 817 505 836 q 618 746 586 799 q 604 756 608 753 q 525 808 549 800 q 429 816 500 816 q 351 813 407 816 l 337 812 l 337 555 l 462 555 l 549 675 l 549 382 l 462 496 l 277 496 l 277 115 l 320 115 l 320 464 l 467 464 l 485 446 l 337 446 l 337 115 q 534 135 475 115 q 625 212 592 155 l 661 274 q 669 289 663 278 q 713 170 687 214 q 800 65 739 125 l 39 65 l 142 144 l 142 446 q 39 411 85 439 l 30 425 q 142 464 71 455 l 142 496 q 126 497 131 497 q 0 446 57 497 q 142 555 31 555 l 142 844 l 39 926 l 763 926 m 795 878 l 791 872 q 680 686 708 761 l 669 700 q 786 892 714 805 l 795 878 m 596 652 l 596 353 l 579 361 l 579 661 l 596 652 m 877 61 l 842 0 l 101 0 l 90 18 l 833 18 l 856 61 q 718 254 758 151 l 740 245 q 866 72 777 159 l 877 61 m 412 1111 l 330 1016 l 271 1016 l 259 1030 l 324 1030 l 402 1122 l 385 1141 l 316 1063 l 245 1063 l 359 1198 l 447 1198 l 564 1063 l 454 1063 l 412 1111 m 655 1016 l 498 1016 l 486 1030 l 621 1030 l 504 1167 l 529 1162 l 655 1016 z "},"ê":{"ha":863,"x_min":0,"x_max":877,"o":"m 763 926 l 752 913 q 642 718 683 828 q 632 741 635 734 q 552 846 595 823 q 399 870 509 870 q 277 867 348 870 l 277 555 l 320 555 l 320 831 q 418 836 372 836 q 545 817 505 836 q 618 746 586 799 q 604 756 608 753 q 525 808 549 800 q 429 816 500 816 q 351 813 407 816 l 337 812 l 337 555 l 462 555 l 549 675 l 549 382 l 462 496 l 277 496 l 277 115 l 320 115 l 320 464 l 467 464 l 485 446 l 337 446 l 337 115 q 534 135 475 115 q 625 212 592 155 l 661 274 q 669 289 663 278 q 713 170 687 214 q 800 65 739 125 l 39 65 l 142 144 l 142 446 q 39 411 85 439 l 30 425 q 142 464 71 455 l 142 496 q 126 497 131 497 q 0 446 57 497 q 142 555 31 555 l 142 844 l 39 926 l 763 926 m 795 878 l 791 872 q 680 686 708 761 l 669 700 q 786 892 714 805 l 795 878 m 596 652 l 596 353 l 579 361 l 579 661 l 596 652 m 877 61 l 842 0 l 101 0 l 90 18 l 833 18 l 856 61 q 718 254 758 151 l 740 245 q 866 72 777 159 l 877 61 m 412 1111 l 330 1016 l 271 1016 l 259 1030 l 324 1030 l 402 1122 l 385 1141 l 316 1063 l 245 1063 l 359 1198 l 447 1198 l 564 1063 l 454 1063 l 412 1111 m 655 1016 l 498 1016 l 486 1030 l 621 1030 l 504 1167 l 529 1162 l 655 1016 z "},"Á":{"ha":1051,"x_min":0,"x_max":1056,"o":"m 656 926 l 585 846 l 696 550 l 724 565 l 623 832 l 695 915 l 713 907 l 644 828 l 739 575 q 749 583 747 581 l 771 602 q 797 625 791 618 q 851 486 814 547 q 823 488 831 488 q 728 467 758 488 l 851 134 l 953 56 l 610 56 l 704 134 l 629 332 q 514 189 554 257 l 498 193 q 618 342 538 260 l 623 349 l 610 378 q 477 222 530 311 l 465 242 q 374 370 429 298 l 368 378 q 315 190 315 262 q 330 118 315 147 q 400 19 345 88 q 415 0 405 13 l 49 0 l 35 18 l 380 18 l 369 33 q 310 117 324 87 q 296 188 296 147 q 353 394 296 257 l 323 425 q 300 361 314 404 l 278 292 q 260 200 260 237 q 273 137 260 162 q 327 68 286 112 q 339 56 331 64 l 0 56 q 154 191 97 106 q 266 452 210 275 l 269 462 q 165 499 233 492 q 222 615 202 555 q 234 604 232 606 l 264 576 q 302 545 280 561 l 314 575 l 306 582 q 249 630 272 612 l 243 635 l 254 650 q 323 595 290 626 l 415 848 l 343 926 l 656 926 m 488 708 l 414 511 q 420 503 420 505 l 448 472 q 505 396 471 448 l 512 386 q 581 458 541 422 l 488 708 m 458 787 l 350 502 q 439 397 401 449 l 470 354 q 477 345 471 353 q 484 353 483 351 l 493 364 q 500 373 495 367 q 390 505 453 446 l 477 734 l 458 787 m 857 592 q 931 425 871 531 q 914 427 916 427 l 859 431 q 805 435 822 435 q 791 434 802 435 l 905 134 l 1056 0 l 663 0 l 650 18 l 1010 18 l 888 126 l 768 446 q 821 452 791 452 q 902 446 857 452 l 894 460 q 836 605 850 541 l 857 592 m 718 1196 l 552 1062 l 480 1062 l 579 1196 l 718 1196 m 509 1005 l 494 1024 l 577 1024 l 744 1159 l 757 1143 l 587 1005 l 509 1005 z "},"á":{"ha":1051,"x_min":0,"x_max":1056,"o":"m 656 926 l 585 846 l 696 550 l 724 565 l 623 832 l 695 915 l 713 907 l 644 828 l 739 575 q 749 583 747 581 l 771 602 q 797 625 791 618 q 851 486 814 547 q 823 488 831 488 q 728 467 758 488 l 851 134 l 953 56 l 610 56 l 704 134 l 629 332 q 514 189 554 257 l 498 193 q 618 342 538 260 l 623 349 l 610 378 q 477 222 530 311 l 465 242 q 374 370 429 298 l 368 378 q 315 190 315 262 q 330 118 315 147 q 400 19 345 88 q 415 0 405 13 l 49 0 l 35 18 l 380 18 l 369 33 q 310 117 324 87 q 296 188 296 147 q 353 394 296 257 l 323 425 q 300 361 314 404 l 278 292 q 260 200 260 237 q 273 137 260 162 q 327 68 286 112 q 339 56 331 64 l 0 56 q 154 191 97 106 q 266 452 210 275 l 269 462 q 165 499 233 492 q 222 615 202 555 q 234 604 232 606 l 264 576 q 302 545 280 561 l 314 575 l 306 582 q 249 630 272 612 l 243 635 l 254 650 q 323 595 290 626 l 415 848 l 343 926 l 656 926 m 488 708 l 414 511 q 420 503 420 505 l 448 472 q 505 396 471 448 l 512 386 q 581 458 541 422 l 488 708 m 458 787 l 350 502 q 439 397 401 449 l 470 354 q 477 345 471 353 q 484 353 483 351 l 493 364 q 500 373 495 367 q 390 505 453 446 l 477 734 l 458 787 m 857 592 q 931 425 871 531 q 914 427 916 427 l 859 431 q 805 435 822 435 q 791 434 802 435 l 905 134 l 1056 0 l 663 0 l 650 18 l 1010 18 l 888 126 l 768 446 q 821 452 791 452 q 902 446 857 452 l 894 460 q 836 605 850 541 l 857 592 m 718 1196 l 552 1062 l 480 1062 l 579 1196 l 718 1196 m 509 1005 l 494 1024 l 577 1024 l 744 1159 l 757 1143 l 587 1005 l 509 1005 z "},"Ë":{"ha":863,"x_min":0,"x_max":877,"o":"m 763 926 l 752 913 q 642 718 683 828 q 632 741 635 734 q 552 846 595 823 q 399 870 509 870 q 277 867 348 870 l 277 555 l 320 555 l 320 831 q 418 836 372 836 q 545 817 505 836 q 618 746 586 799 q 604 756 608 753 q 525 808 549 800 q 429 816 500 816 q 351 813 407 816 l 337 812 l 337 555 l 462 555 l 549 675 l 549 382 l 462 496 l 277 496 l 277 115 l 320 115 l 320 464 l 467 464 l 485 446 l 337 446 l 337 115 q 534 135 475 115 q 625 212 592 155 l 661 274 q 669 289 663 278 q 713 170 687 214 q 800 65 739 125 l 39 65 l 142 144 l 142 446 q 39 411 85 439 l 30 425 q 142 464 71 455 l 142 496 q 126 497 131 497 q 0 446 57 497 q 142 555 31 555 l 142 844 l 39 926 l 763 926 m 795 878 l 791 872 q 680 686 708 761 l 669 700 q 786 892 714 805 l 795 878 m 596 652 l 596 353 l 579 361 l 579 661 l 596 652 m 877 61 l 842 0 l 101 0 l 90 18 l 833 18 l 856 61 q 718 254 758 151 l 740 245 q 866 72 777 159 l 877 61 m 521 1197 q 567 1178 548 1197 q 586 1132 586 1159 q 567 1086 586 1105 q 521 1067 548 1067 q 475 1086 494 1067 q 456 1132 456 1105 q 475 1178 456 1159 q 521 1197 494 1197 m 606 1168 q 643 1101 643 1151 q 619 1039 643 1064 q 559 1015 595 1015 q 495 1046 519 1015 l 495 1051 q 551 1028 528 1028 q 607 1052 584 1028 q 631 1108 631 1075 q 606 1168 631 1134 m 372 1168 q 409 1101 409 1150 q 385 1039 409 1064 q 325 1015 361 1015 q 261 1046 285 1015 l 261 1051 q 317 1028 294 1028 q 373 1052 349 1028 q 397 1108 397 1075 q 372 1168 397 1134 m 286 1197 q 332 1178 313 1197 q 351 1132 351 1159 q 332 1086 351 1105 q 286 1067 313 1067 q 239 1086 258 1067 q 220 1132 220 1105 q 239 1178 220 1159 q 286 1197 258 1197 z "},"ë":{"ha":863,"x_min":0,"x_max":877,"o":"m 763 926 l 752 913 q 642 718 683 828 q 632 741 635 734 q 552 846 595 823 q 399 870 509 870 q 277 867 348 870 l 277 555 l 320 555 l 320 831 q 418 836 372 836 q 545 817 505 836 q 618 746 586 799 q 604 756 608 753 q 525 808 549 800 q 429 816 500 816 q 351 813 407 816 l 337 812 l 337 555 l 462 555 l 549 675 l 549 382 l 462 496 l 277 496 l 277 115 l 320 115 l 320 464 l 467 464 l 485 446 l 337 446 l 337 115 q 534 135 475 115 q 625 212 592 155 l 661 274 q 669 289 663 278 q 713 170 687 214 q 800 65 739 125 l 39 65 l 142 144 l 142 446 q 39 411 85 439 l 30 425 q 142 464 71 455 l 142 496 q 126 497 131 497 q 0 446 57 497 q 142 555 31 555 l 142 844 l 39 926 l 763 926 m 795 878 l 791 872 q 680 686 708 761 l 669 700 q 786 892 714 805 l 795 878 m 596 652 l 596 353 l 579 361 l 579 661 l 596 652 m 877 61 l 842 0 l 101 0 l 90 18 l 833 18 l 856 61 q 718 254 758 151 l 740 245 q 866 72 777 159 l 877 61 m 521 1197 q 567 1178 548 1197 q 586 1132 586 1159 q 567 1086 586 1105 q 521 1067 548 1067 q 475 1086 494 1067 q 456 1132 456 1105 q 475 1178 456 1159 q 521 1197 494 1197 m 606 1168 q 643 1101 643 1151 q 619 1039 643 1064 q 559 1015 595 1015 q 495 1046 519 1015 l 495 1051 q 551 1028 528 1028 q 607 1052 584 1028 q 631 1108 631 1075 q 606 1168 631 1134 m 372 1168 q 409 1101 409 1150 q 385 1039 409 1064 q 325 1015 361 1015 q 261 1046 285 1015 l 261 1051 q 317 1028 294 1028 q 373 1052 349 1028 q 397 1108 397 1075 q 372 1168 397 1134 m 286 1197 q 332 1178 313 1197 q 351 1132 351 1159 q 332 1086 351 1105 q 286 1067 313 1067 q 239 1086 258 1067 q 220 1132 220 1105 q 239 1178 220 1159 q 286 1197 258 1197 z "},"È":{"ha":863,"x_min":0,"x_max":877,"o":"m 763 926 l 752 913 q 642 718 683 828 q 632 741 635 734 q 552 846 595 823 q 399 870 509 870 q 277 867 348 870 l 277 555 l 320 555 l 320 831 q 418 836 372 836 q 545 817 505 836 q 618 746 586 799 q 604 756 608 753 q 525 808 549 800 q 429 816 500 816 q 351 813 407 816 l 337 812 l 337 555 l 462 555 l 549 675 l 549 382 l 462 496 l 277 496 l 277 115 l 320 115 l 320 464 l 467 464 l 485 446 l 337 446 l 337 115 q 534 135 475 115 q 625 212 592 155 l 661 274 q 669 289 663 278 q 713 170 687 214 q 800 65 739 125 l 39 65 l 142 144 l 142 446 q 39 411 85 439 l 30 425 q 142 464 71 455 l 142 496 q 126 497 131 497 q 0 446 57 497 q 142 555 31 555 l 142 844 l 39 926 l 763 926 m 795 878 l 791 872 q 680 686 708 761 l 669 700 q 786 892 714 805 l 795 878 m 596 652 l 596 353 l 579 361 l 579 661 l 596 652 m 877 61 l 842 0 l 101 0 l 90 18 l 833 18 l 856 61 q 718 254 758 151 l 740 245 q 866 72 777 159 l 877 61 m 305 1195 l 399 1065 l 319 1065 l 164 1195 l 305 1195 m 489 1019 l 375 1019 l 356 1036 l 450 1036 l 366 1154 l 395 1147 l 489 1019 z "},"è":{"ha":863,"x_min":0,"x_max":877,"o":"m 763 926 l 752 913 q 642 718 683 828 q 632 741 635 734 q 552 846 595 823 q 399 870 509 870 q 277 867 348 870 l 277 555 l 320 555 l 320 831 q 418 836 372 836 q 545 817 505 836 q 618 746 586 799 q 604 756 608 753 q 525 808 549 800 q 429 816 500 816 q 351 813 407 816 l 337 812 l 337 555 l 462 555 l 549 675 l 549 382 l 462 496 l 277 496 l 277 115 l 320 115 l 320 464 l 467 464 l 485 446 l 337 446 l 337 115 q 534 135 475 115 q 625 212 592 155 l 661 274 q 669 289 663 278 q 713 170 687 214 q 800 65 739 125 l 39 65 l 142 144 l 142 446 q 39 411 85 439 l 30 425 q 142 464 71 455 l 142 496 q 126 497 131 497 q 0 446 57 497 q 142 555 31 555 l 142 844 l 39 926 l 763 926 m 795 878 l 791 872 q 680 686 708 761 l 669 700 q 786 892 714 805 l 795 878 m 596 652 l 596 353 l 579 361 l 579 661 l 596 652 m 877 61 l 842 0 l 101 0 l 90 18 l 833 18 l 856 61 q 718 254 758 151 l 740 245 q 866 72 777 159 l 877 61 m 305 1195 l 399 1065 l 319 1065 l 164 1195 l 305 1195 m 489 1019 l 375 1019 l 356 1036 l 450 1036 l 366 1154 l 395 1147 l 489 1019 z "},"Í":{"ha":425,"x_min":28,"x_max":444,"o":"m 28 926 l 349 926 l 258 833 l 258 127 l 344 56 l 28 56 l 122 134 l 122 841 l 28 926 m 380 887 l 311 819 l 311 127 l 425 0 l 72 0 l 55 18 l 385 18 l 292 121 l 292 825 l 368 901 l 380 887 m 404 1196 l 239 1062 l 167 1062 l 266 1196 l 404 1196 m 196 1005 l 180 1024 l 264 1024 l 431 1159 l 444 1143 l 273 1005 l 196 1005 z "},"í":{"ha":425,"x_min":28,"x_max":444,"o":"m 28 926 l 349 926 l 258 833 l 258 127 l 344 56 l 28 56 l 122 134 l 122 841 l 28 926 m 380 887 l 311 819 l 311 127 l 425 0 l 72 0 l 55 18 l 385 18 l 292 121 l 292 825 l 368 901 l 380 887 m 404 1196 l 239 1062 l 167 1062 l 266 1196 l 404 1196 m 196 1005 l 180 1024 l 264 1024 l 431 1159 l 444 1143 l 273 1005 l 196 1005 z "},"Î":{"ha":425,"x_min":26,"x_max":436,"o":"m 28 926 l 350 926 l 259 833 l 259 127 l 345 56 l 28 56 l 123 134 l 123 841 l 28 926 m 380 887 l 311 819 l 311 127 l 425 0 l 73 0 l 56 18 l 385 18 l 292 121 l 292 825 l 369 901 l 380 887 m 193 1111 l 111 1016 l 52 1016 l 40 1030 l 105 1030 l 183 1122 l 165 1141 l 97 1063 l 26 1063 l 140 1198 l 228 1198 l 345 1063 l 235 1063 l 193 1111 m 436 1016 l 279 1016 l 267 1030 l 402 1030 l 285 1167 l 310 1162 l 436 1016 z "},"î":{"ha":425,"x_min":26,"x_max":436,"o":"m 28 926 l 350 926 l 259 833 l 259 127 l 345 56 l 28 56 l 123 134 l 123 841 l 28 926 m 380 887 l 311 819 l 311 127 l 425 0 l 73 0 l 56 18 l 385 18 l 292 121 l 292 825 l 369 901 l 380 887 m 193 1111 l 111 1016 l 52 1016 l 40 1030 l 105 1030 l 183 1122 l 165 1141 l 97 1063 l 26 1063 l 140 1198 l 228 1198 l 345 1063 l 235 1063 l 193 1111 m 436 1016 l 279 1016 l 267 1030 l 402 1030 l 285 1167 l 310 1162 l 436 1016 z "},"Ï":{"ha":425,"x_min":10,"x_max":425,"o":"m 28 926 l 349 926 l 258 833 l 258 127 l 344 56 l 28 56 l 122 134 l 122 841 l 28 926 m 380 887 l 311 819 l 311 127 l 425 0 l 72 0 l 55 18 l 385 18 l 292 121 l 292 825 l 368 901 l 380 887 m 293 1197 q 339 1178 320 1197 q 358 1132 358 1159 q 339 1086 358 1105 q 293 1067 320 1067 q 247 1086 266 1067 q 228 1132 228 1105 q 247 1178 228 1159 q 293 1197 266 1197 m 377 1168 q 415 1101 415 1151 q 391 1039 415 1064 q 331 1015 366 1015 q 267 1046 291 1015 l 267 1051 q 322 1028 299 1028 q 379 1052 355 1028 q 403 1108 403 1075 q 377 1168 403 1135 m 161 1168 q 199 1101 199 1150 q 175 1039 199 1064 q 115 1015 151 1015 q 52 1046 75 1015 l 52 1051 q 106 1028 83 1028 q 163 1052 140 1028 q 187 1108 187 1075 q 161 1168 187 1135 m 75 1197 q 121 1178 102 1197 q 140 1132 140 1159 q 121 1086 140 1105 q 75 1067 102 1067 q 29 1086 48 1067 q 10 1132 10 1105 q 29 1178 10 1159 q 75 1197 48 1197 z "},"ï":{"ha":425,"x_min":10,"x_max":425,"o":"m 28 926 l 349 926 l 258 833 l 258 127 l 344 56 l 28 56 l 122 134 l 122 841 l 28 926 m 380 887 l 311 819 l 311 127 l 425 0 l 72 0 l 55 18 l 385 18 l 292 121 l 292 825 l 368 901 l 380 887 m 293 1197 q 339 1178 320 1197 q 358 1132 358 1159 q 339 1086 358 1105 q 293 1067 320 1067 q 247 1086 266 1067 q 228 1132 228 1105 q 247 1178 228 1159 q 293 1197 266 1197 m 377 1168 q 415 1101 415 1151 q 391 1039 415 1064 q 331 1015 366 1015 q 267 1046 291 1015 l 267 1051 q 322 1028 299 1028 q 379 1052 355 1028 q 403 1108 403 1075 q 377 1168 403 1135 m 161 1168 q 199 1101 199 1150 q 175 1039 199 1064 q 115 1015 151 1015 q 52 1046 75 1015 l 52 1051 q 106 1028 83 1028 q 163 1052 140 1028 q 187 1108 187 1075 q 161 1168 187 1135 m 75 1197 q 121 1178 102 1197 q 140 1132 140 1159 q 121 1086 140 1105 q 75 1067 102 1067 q 29 1086 48 1067 q 10 1132 10 1105 q 29 1178 10 1159 q 75 1197 48 1197 z "},"Ì":{"ha":425,"x_min":-9,"x_max":425,"o":"m 28 926 l 349 926 l 258 833 l 258 127 l 344 56 l 28 56 l 122 134 l 122 841 l 28 926 m 380 887 l 311 819 l 311 127 l 425 0 l 72 0 l 55 18 l 385 18 l 292 121 l 292 825 l 368 901 l 380 887 m 132 1195 l 226 1065 l 146 1065 l -9 1195 l 132 1195 m 316 1019 l 202 1019 l 183 1036 l 277 1036 l 193 1154 l 222 1147 l 316 1019 z "},"ì":{"ha":425,"x_min":-9,"x_max":425,"o":"m 28 926 l 349 926 l 258 833 l 258 127 l 344 56 l 28 56 l 122 134 l 122 841 l 28 926 m 380 887 l 311 819 l 311 127 l 425 0 l 72 0 l 55 18 l 385 18 l 292 121 l 292 825 l 368 901 l 380 887 m 132 1195 l 226 1065 l 146 1065 l -9 1195 l 132 1195 m 316 1019 l 202 1019 l 183 1036 l 277 1036 l 193 1154 l 222 1147 l 316 1019 z "},"Ó":{"ha":867,"x_min":33,"x_max":834,"o":"m 553 774 l 542 781 q 422 817 477 817 q 244 467 244 817 q 355 127 244 210 l 349 120 q 252 247 281 168 q 223 458 223 325 q 421 835 223 835 q 553 774 511 835 m 408 935 q 672 810 573 935 q 770 476 770 685 q 673 161 770 279 q 412 44 576 44 q 181 127 282 44 q 33 488 33 249 q 134 814 33 693 q 408 935 236 935 m 408 876 q 179 473 179 876 q 405 101 179 101 q 565 200 510 101 q 620 488 620 298 q 567 788 620 703 q 408 876 511 876 m 625 900 q 778 740 722 853 q 834 478 834 627 q 723 125 834 260 q 432 -9 612 -9 q 216 69 317 -9 l 216 73 q 427 11 300 11 q 707 139 597 11 q 816 467 816 267 q 766 726 816 615 q 625 892 716 838 l 625 900 m 625 1196 l 460 1062 l 388 1062 l 487 1196 l 625 1196 m 417 1005 l 401 1024 l 485 1024 l 652 1159 l 665 1143 l 494 1005 l 417 1005 z "},"ó":{"ha":867,"x_min":33,"x_max":834,"o":"m 553 774 l 542 781 q 422 817 477 817 q 244 467 244 817 q 355 127 244 210 l 349 120 q 252 247 281 168 q 223 458 223 325 q 421 835 223 835 q 553 774 511 835 m 408 935 q 672 810 573 935 q 770 476 770 685 q 673 161 770 279 q 412 44 576 44 q 181 127 282 44 q 33 488 33 249 q 134 814 33 693 q 408 935 236 935 m 408 876 q 179 473 179 876 q 405 101 179 101 q 565 200 510 101 q 620 488 620 298 q 567 788 620 703 q 408 876 511 876 m 625 900 q 778 740 722 853 q 834 478 834 627 q 723 125 834 260 q 432 -9 612 -9 q 216 69 317 -9 l 216 73 q 427 11 300 11 q 707 139 597 11 q 816 467 816 267 q 766 726 816 615 q 625 892 716 838 l 625 900 m 625 1196 l 460 1062 l 388 1062 l 487 1196 l 625 1196 m 417 1005 l 401 1024 l 485 1024 l 652 1159 l 665 1143 l 494 1005 l 417 1005 z "},"Ô":{"ha":867,"x_min":33,"x_max":834,"o":"m 553 774 l 542 781 q 422 817 477 817 q 244 467 244 817 q 355 127 244 210 l 349 120 q 252 247 281 168 q 223 458 223 325 q 421 835 223 835 q 553 774 511 835 m 408 935 q 672 810 573 935 q 770 476 770 685 q 673 161 770 279 q 412 44 576 44 q 181 127 282 44 q 33 488 33 249 q 134 814 33 693 q 408 935 236 935 m 408 876 q 179 473 179 876 q 405 101 179 101 q 565 200 510 101 q 620 488 620 298 q 567 788 620 703 q 408 876 511 876 m 625 900 q 778 740 722 853 q 834 478 834 627 q 723 125 834 260 q 432 -9 612 -9 q 216 69 317 -9 l 216 73 q 427 11 300 11 q 707 139 597 11 q 816 467 816 267 q 766 726 816 615 q 625 892 716 838 l 625 900 m 414 1111 l 332 1016 l 273 1016 l 261 1030 l 326 1030 l 404 1122 l 387 1141 l 318 1063 l 247 1063 l 361 1198 l 448 1198 l 565 1063 l 456 1063 l 414 1111 m 657 1016 l 500 1016 l 488 1030 l 623 1030 l 506 1167 l 531 1162 l 657 1016 z "},"ô":{"ha":867,"x_min":33,"x_max":834,"o":"m 553 774 l 542 781 q 422 817 477 817 q 244 467 244 817 q 355 127 244 210 l 349 120 q 252 247 281 168 q 223 458 223 325 q 421 835 223 835 q 553 774 511 835 m 408 935 q 672 810 573 935 q 770 476 770 685 q 673 161 770 279 q 412 44 576 44 q 181 127 282 44 q 33 488 33 249 q 134 814 33 693 q 408 935 236 935 m 408 876 q 179 473 179 876 q 405 101 179 101 q 565 200 510 101 q 620 488 620 298 q 567 788 620 703 q 408 876 511 876 m 625 900 q 778 740 722 853 q 834 478 834 627 q 723 125 834 260 q 432 -9 612 -9 q 216 69 317 -9 l 216 73 q 427 11 300 11 q 707 139 597 11 q 816 467 816 267 q 766 726 816 615 q 625 892 716 838 l 625 900 m 414 1111 l 332 1016 l 273 1016 l 261 1030 l 326 1030 l 404 1122 l 387 1141 l 318 1063 l 247 1063 l 361 1198 l 448 1198 l 565 1063 l 456 1063 l 414 1111 m 657 1016 l 500 1016 l 488 1030 l 623 1030 l 506 1167 l 531 1162 l 657 1016 z "},"Ò":{"ha":867,"x_min":33,"x_max":834,"o":"m 553 774 l 542 781 q 422 817 477 817 q 244 467 244 817 q 355 127 244 210 l 349 120 q 252 247 281 168 q 223 458 223 325 q 421 835 223 835 q 553 774 511 835 m 408 935 q 672 810 573 935 q 770 476 770 685 q 673 161 770 279 q 412 44 576 44 q 181 127 282 44 q 33 488 33 249 q 134 814 33 693 q 408 935 236 935 m 408 876 q 179 473 179 876 q 405 101 179 101 q 565 200 510 101 q 620 488 620 298 q 567 788 620 703 q 408 876 511 876 m 625 900 q 778 740 722 853 q 834 478 834 627 q 723 125 834 260 q 432 -9 612 -9 q 216 69 317 -9 l 216 73 q 427 11 300 11 q 707 139 597 11 q 816 467 816 267 q 766 726 816 615 q 625 892 716 838 l 625 900 m 353 1195 l 447 1065 l 368 1065 l 212 1195 l 353 1195 m 537 1019 l 423 1019 l 404 1036 l 498 1036 l 414 1154 l 443 1147 l 537 1019 z "},"ò":{"ha":867,"x_min":33,"x_max":834,"o":"m 553 774 l 542 781 q 422 817 477 817 q 244 467 244 817 q 355 127 244 210 l 349 120 q 252 247 281 168 q 223 458 223 325 q 421 835 223 835 q 553 774 511 835 m 408 935 q 672 810 573 935 q 770 476 770 685 q 673 161 770 279 q 412 44 576 44 q 181 127 282 44 q 33 488 33 249 q 134 814 33 693 q 408 935 236 935 m 408 876 q 179 473 179 876 q 405 101 179 101 q 565 200 510 101 q 620 488 620 298 q 567 788 620 703 q 408 876 511 876 m 625 900 q 778 740 722 853 q 834 478 834 627 q 723 125 834 260 q 432 -9 612 -9 q 216 69 317 -9 l 216 73 q 427 11 300 11 q 707 139 597 11 q 816 467 816 267 q 766 726 816 615 q 625 892 716 838 l 625 900 m 353 1195 l 447 1065 l 368 1065 l 212 1195 l 353 1195 m 537 1019 l 423 1019 l 404 1036 l 498 1036 l 414 1154 l 443 1147 l 537 1019 z "},"Ú":{"ha":844,"x_min":23,"x_max":829,"o":"m 806 926 l 685 829 l 685 391 q 677 217 685 270 q 646 130 669 164 q 420 43 588 43 q 172 130 242 43 q 115 393 115 199 l 115 843 l 23 926 l 343 926 l 251 836 l 251 392 l 252 288 q 294 144 252 186 q 436 102 336 102 q 587 166 546 102 q 621 390 621 218 l 623 829 l 517 926 l 806 926 m 829 880 l 737 803 l 737 382 q 705 112 737 175 q 445 -16 638 -16 q 194 68 278 -16 l 199 65 l 223 52 q 437 3 307 3 q 686 121 625 3 q 718 377 718 184 l 718 811 l 819 894 l 829 880 m 372 889 l 305 822 l 305 318 l 304 271 l 326 185 q 385 123 341 159 l 386 117 q 307 184 329 140 q 286 320 286 228 l 286 829 l 362 903 l 372 889 m 650 1196 l 485 1062 l 413 1062 l 513 1196 l 650 1196 m 443 1005 l 427 1024 l 510 1024 l 677 1159 l 690 1143 l 519 1005 l 443 1005 z "},"ú":{"ha":844,"x_min":23,"x_max":829,"o":"m 806 926 l 685 829 l 685 391 q 677 217 685 270 q 646 130 669 164 q 420 43 588 43 q 172 130 242 43 q 115 393 115 199 l 115 843 l 23 926 l 343 926 l 251 836 l 251 392 l 252 288 q 294 144 252 186 q 436 102 336 102 q 587 166 546 102 q 621 390 621 218 l 623 829 l 517 926 l 806 926 m 829 880 l 737 803 l 737 382 q 705 112 737 175 q 445 -16 638 -16 q 194 68 278 -16 l 199 65 l 223 52 q 437 3 307 3 q 686 121 625 3 q 718 377 718 184 l 718 811 l 819 894 l 829 880 m 372 889 l 305 822 l 305 318 l 304 271 l 326 185 q 385 123 341 159 l 386 117 q 307 184 329 140 q 286 320 286 228 l 286 829 l 362 903 l 372 889 m 650 1196 l 485 1062 l 413 1062 l 513 1196 l 650 1196 m 443 1005 l 427 1024 l 510 1024 l 677 1159 l 690 1143 l 519 1005 l 443 1005 z "},"Û":{"ha":844,"x_min":23,"x_max":829,"o":"m 806 926 l 685 829 l 685 391 q 677 217 685 270 q 646 130 669 164 q 420 43 588 43 q 172 130 242 43 q 115 393 115 199 l 115 843 l 23 926 l 343 926 l 251 836 l 251 392 l 252 288 q 294 144 252 186 q 436 102 336 102 q 587 166 546 102 q 621 390 621 218 l 623 829 l 517 926 l 806 926 m 829 880 l 737 803 l 737 382 q 705 112 737 175 q 445 -16 638 -16 q 194 68 278 -16 l 199 65 l 223 52 q 437 3 307 3 q 686 121 625 3 q 718 377 718 184 l 718 811 l 819 894 l 829 880 m 372 889 l 305 822 l 305 318 l 304 271 l 326 185 q 385 123 341 159 l 386 117 q 307 184 329 140 q 286 320 286 228 l 286 829 l 362 903 l 372 889 m 439 1111 l 357 1016 l 298 1016 l 286 1030 l 351 1030 l 429 1122 l 412 1141 l 344 1063 l 272 1063 l 387 1198 l 474 1198 l 591 1063 l 481 1063 l 439 1111 m 683 1016 l 526 1016 l 513 1030 l 648 1030 l 531 1167 l 557 1162 l 683 1016 z "},"û":{"ha":844,"x_min":23,"x_max":829,"o":"m 806 926 l 685 829 l 685 391 q 677 217 685 270 q 646 130 669 164 q 420 43 588 43 q 172 130 242 43 q 115 393 115 199 l 115 843 l 23 926 l 343 926 l 251 836 l 251 392 l 252 288 q 294 144 252 186 q 436 102 336 102 q 587 166 546 102 q 621 390 621 218 l 623 829 l 517 926 l 806 926 m 829 880 l 737 803 l 737 382 q 705 112 737 175 q 445 -16 638 -16 q 194 68 278 -16 l 199 65 l 223 52 q 437 3 307 3 q 686 121 625 3 q 718 377 718 184 l 718 811 l 819 894 l 829 880 m 372 889 l 305 822 l 305 318 l 304 271 l 326 185 q 385 123 341 159 l 386 117 q 307 184 329 140 q 286 320 286 228 l 286 829 l 362 903 l 372 889 m 439 1111 l 357 1016 l 298 1016 l 286 1030 l 351 1030 l 429 1122 l 412 1141 l 344 1063 l 272 1063 l 387 1198 l 474 1198 l 591 1063 l 481 1063 l 439 1111 m 683 1016 l 526 1016 l 513 1030 l 648 1030 l 531 1167 l 557 1162 l 683 1016 z "},"Ù":{"ha":844,"x_min":23,"x_max":829,"o":"m 806 926 l 685 829 l 685 391 q 677 217 685 270 q 646 130 669 164 q 420 43 588 43 q 172 130 242 43 q 115 393 115 199 l 115 843 l 23 926 l 343 926 l 251 836 l 251 392 l 252 288 q 294 144 252 186 q 436 102 336 102 q 587 166 546 102 q 621 390 621 218 l 623 829 l 517 926 l 806 926 m 829 880 l 737 803 l 737 382 q 705 112 737 175 q 445 -16 638 -16 q 194 68 278 -16 l 199 65 l 223 52 q 437 3 307 3 q 686 121 625 3 q 718 377 718 184 l 718 811 l 819 894 l 829 880 m 372 889 l 305 822 l 305 318 l 304 271 l 326 185 q 385 123 341 159 l 386 117 q 307 184 329 140 q 286 320 286 228 l 286 829 l 362 903 l 372 889 m 378 1195 l 472 1065 l 393 1065 l 237 1195 l 378 1195 m 562 1019 l 449 1019 l 429 1036 l 524 1036 l 439 1154 l 468 1147 l 562 1019 z "},"ù":{"ha":844,"x_min":23,"x_max":829,"o":"m 806 926 l 685 829 l 685 391 q 677 217 685 270 q 646 130 669 164 q 420 43 588 43 q 172 130 242 43 q 115 393 115 199 l 115 843 l 23 926 l 343 926 l 251 836 l 251 392 l 252 288 q 294 144 252 186 q 436 102 336 102 q 587 166 546 102 q 621 390 621 218 l 623 829 l 517 926 l 806 926 m 829 880 l 737 803 l 737 382 q 705 112 737 175 q 445 -16 638 -16 q 194 68 278 -16 l 199 65 l 223 52 q 437 3 307 3 q 686 121 625 3 q 718 377 718 184 l 718 811 l 819 894 l 829 880 m 372 889 l 305 822 l 305 318 l 304 271 l 326 185 q 385 123 341 159 l 386 117 q 307 184 329 140 q 286 320 286 228 l 286 829 l 362 903 l 372 889 m 378 1195 l 472 1065 l 393 1065 l 237 1195 l 378 1195 m 562 1019 l 449 1019 l 429 1036 l 524 1036 l 439 1154 l 468 1147 l 562 1019 z "},"ˆ":{"ha":694,"x_min":142,"x_max":552,"o":"m 309 1111 l 227 1016 l 168 1016 l 156 1030 l 221 1030 l 299 1122 l 281 1141 l 213 1063 l 142 1063 l 256 1198 l 344 1198 l 460 1063 l 351 1063 l 309 1111 m 552 1016 l 395 1016 l 382 1030 l 518 1030 l 401 1167 l 426 1162 l 552 1016 z "},"˜":{"ha":694,"x_min":124,"x_max":571,"o":"m 519 1195 q 520 1177 520 1183 q 489 1094 520 1128 q 415 1060 458 1060 q 288 1099 367 1060 q 224 1122 243 1122 q 172 1069 179 1122 l 124 1069 q 160 1167 124 1128 q 248 1206 195 1206 q 376 1157 292 1206 q 427 1137 408 1137 q 458 1151 446 1137 q 470 1185 470 1165 q 469 1195 470 1190 l 519 1195 m 557 1176 l 571 1164 q 535 1060 571 1102 q 447 1018 500 1018 q 370 1038 413 1018 l 378 1047 q 444 1033 416 1033 q 556 1168 544 1033 l 557 1176 m 229 1090 l 229 1069 q 210 1019 215 1050 l 155 1019 l 144 1035 l 198 1035 q 229 1090 205 1073 z "},"ˉ":{"ha":694,"x_min":66,"x_max":627,"o":"m 573 1150 l 573 1084 l 66 1084 l 66 1150 l 573 1150 m 612 1113 l 627 1097 l 627 1028 l 101 1028 l 90 1047 l 612 1047 l 612 1113 z "},"˘":{"ha":694,"x_min":127,"x_max":567,"o":"m 128 1214 l 176 1214 q 200 1162 183 1176 q 323 1130 239 1130 q 428 1150 393 1130 q 467 1214 463 1171 l 513 1214 q 513 1205 513 1207 q 459 1098 513 1141 q 324 1055 406 1055 q 183 1098 239 1055 q 127 1206 127 1140 q 128 1214 127 1207 m 207 1049 l 214 1059 q 350 1022 273 1022 q 488 1065 435 1022 q 553 1191 540 1109 l 567 1180 q 501 1053 560 1101 q 349 1006 442 1006 q 207 1049 262 1006 z "},"˙":{"ha":694,"x_min":253,"x_max":442,"o":"m 404 1168 q 442 1101 442 1150 q 418 1039 442 1064 q 358 1015 393 1015 q 294 1046 318 1015 l 294 1051 q 349 1028 326 1028 q 406 1052 382 1028 q 430 1108 430 1075 q 404 1168 430 1135 m 318 1197 q 364 1178 345 1197 q 383 1132 383 1159 q 364 1086 383 1105 q 318 1067 345 1067 q 272 1086 291 1067 q 253 1132 253 1105 q 272 1178 253 1159 q 318 1197 291 1197 z "},"˚":{"ha":694,"x_min":221,"x_max":473,"o":"m 412 1213 q 473 1112 473 1181 q 440 1027 473 1063 q 359 992 406 992 q 268 1032 304 992 l 273 1037 q 352 1004 312 1004 q 427 1036 395 1004 q 459 1112 459 1068 q 404 1207 459 1168 l 412 1213 m 318 1234 q 387 1205 359 1234 q 416 1137 416 1177 q 387 1068 416 1096 q 318 1040 359 1040 q 250 1068 278 1040 q 221 1137 221 1096 q 250 1205 221 1177 q 318 1234 278 1234 m 319 1180 q 288 1167 300 1180 q 275 1137 275 1154 q 288 1105 275 1118 q 319 1093 300 1093 q 350 1105 337 1093 q 363 1137 363 1118 q 350 1167 363 1154 q 319 1180 337 1180 z "},"¸":{"ha":694,"x_min":208,"x_max":491,"o":"m 373 -50 q 383 -49 380 -49 q 426 -72 410 -49 q 443 -133 443 -96 q 407 -231 443 -192 q 314 -270 370 -270 q 208 -203 247 -270 l 214 -200 q 280 -153 254 -174 q 322 -216 280 -216 q 356 -190 341 -216 q 370 -129 370 -164 q 332 -83 370 -83 q 298 -103 312 -83 l 286 -92 q 317 10 307 -39 l 387 10 l 373 -50 m 414 -12 l 429 -27 l 422 -52 l 406 -42 l 414 -12 m 446 -68 q 491 -174 491 -104 q 451 -269 491 -228 q 359 -311 412 -311 q 271 -281 300 -311 l 271 -275 q 351 -296 308 -296 q 435 -253 397 -296 q 473 -157 473 -210 q 439 -72 473 -111 l 446 -68 m 322 -122 q 353 -99 328 -99 l 353 -106 q 332 -132 340 -113 l 322 -122 m 325 -185 l 341 -193 l 328 -201 l 325 -185 z "},"˝":{"ha":694,"x_min":174,"x_max":633,"o":"m 399 1196 l 245 1062 l 174 1062 l 261 1196 l 399 1196 m 208 1005 l 191 1024 l 274 1024 l 322 1065 l 336 1050 l 285 1005 l 208 1005 m 589 1196 l 435 1062 l 363 1062 l 450 1196 l 589 1196 m 397 1005 l 380 1024 l 463 1024 l 618 1159 l 633 1143 l 474 1005 l 397 1005 z "},"˛":{"ha":694,"x_min":206,"x_max":452,"o":"m 417 12 q 323 -71 364 -20 q 282 -156 282 -122 q 312 -181 282 -182 q 401 -113 353 -179 l 410 -113 q 395 -215 399 -152 l 395 -222 q 291 -250 338 -250 q 231 -223 256 -250 q 206 -160 206 -197 q 328 12 206 -78 l 417 12 m 444 -35 l 435 -41 q 342 -149 363 -94 l 324 -155 q 439 -22 342 -87 l 444 -35 m 452 -157 l 439 -259 q 355 -282 397 -282 q 286 -264 317 -282 l 286 -259 q 344 -268 315 -268 q 425 -239 389 -268 l 439 -142 l 452 -157 z "},"ˇ":{"ha":694,"x_min":171,"x_max":525,"o":"m 349 1120 l 418 1198 l 490 1198 l 375 1063 l 288 1063 l 171 1198 l 280 1198 l 349 1120 m 525 1153 l 408 1013 l 349 1013 l 333 1030 l 398 1030 l 511 1168 l 525 1153 z "},"Š":{"ha":770,"x_min":-14,"x_max":757,"o":"m 665 918 q 608 819 629 871 q 553 694 567 718 l 550 690 q 546 702 547 698 q 515 787 527 763 q 478 832 503 810 q 338 887 416 887 q 217 847 265 887 q 169 745 169 806 q 340 590 169 631 l 455 562 q 700 304 700 503 q 616 117 700 193 q 409 41 532 41 q 236 65 332 41 l 157 85 q 77 96 109 96 q -8 70 36 96 l -14 79 q 104 321 71 206 l 117 317 q 202 152 131 211 q 389 93 273 93 q 533 135 479 93 q 587 248 587 177 q 512 384 587 330 q 292 454 458 422 q 106 538 164 479 q 49 700 49 596 q 126 874 49 807 q 326 941 203 941 q 511 912 406 941 q 585 899 561 899 q 657 922 618 899 l 665 918 m 707 890 l 701 880 q 653 790 673 833 q 600 679 606 690 l 596 674 l 580 681 l 583 687 q 640 804 602 732 l 686 893 l 689 899 l 707 890 m 509 755 q 349 834 434 834 q 263 804 297 834 q 229 728 229 774 q 298 625 229 678 l 303 622 l 300 616 q 210 732 210 656 q 248 819 210 785 q 347 852 286 852 q 449 827 406 852 q 513 758 493 802 l 509 755 m 665 486 q 757 294 757 416 q 656 75 757 165 q 412 -15 556 -15 q 280 0 339 -15 l 172 26 q 90 36 134 36 q 19 20 52 36 l 11 40 q 83 56 46 56 q 176 44 123 56 l 280 19 q 412 4 342 4 q 643 91 547 4 q 738 300 738 177 q 665 481 738 404 l 665 486 m 182 290 q 316 117 207 168 l 316 112 q 163 287 190 149 l 182 290 m 97 510 l 120 497 q 251 431 142 457 l 360 404 q 508 356 471 376 q 561 295 545 336 l 556 292 q 490 344 526 328 q 353 384 454 360 q 157 443 207 418 q 97 510 106 467 m 387 1120 l 456 1198 l 527 1198 l 413 1063 l 326 1063 l 209 1198 l 317 1198 l 387 1120 m 562 1153 l 445 1013 l 386 1013 l 371 1030 l 436 1030 l 549 1168 l 562 1153 z "},"š":{"ha":770,"x_min":-14,"x_max":757,"o":"m 665 918 q 608 819 629 871 q 553 694 567 718 l 550 690 q 546 702 547 698 q 515 787 527 763 q 478 832 503 810 q 338 887 416 887 q 217 847 265 887 q 169 745 169 806 q 340 590 169 631 l 455 562 q 700 304 700 503 q 616 117 700 193 q 409 41 532 41 q 236 65 332 41 l 157 85 q 77 96 109 96 q -8 70 36 96 l -14 79 q 104 321 71 206 l 117 317 q 202 152 131 211 q 389 93 273 93 q 533 135 479 93 q 587 248 587 177 q 512 384 587 330 q 292 454 458 422 q 106 538 164 479 q 49 700 49 596 q 126 874 49 807 q 326 941 203 941 q 511 912 406 941 q 585 899 561 899 q 657 922 618 899 l 665 918 m 707 890 l 701 880 q 653 790 673 833 q 600 679 606 690 l 596 674 l 580 681 l 583 687 q 640 804 602 732 l 686 893 l 689 899 l 707 890 m 509 755 q 349 834 434 834 q 263 804 297 834 q 229 728 229 774 q 298 625 229 678 l 303 622 l 300 616 q 210 732 210 656 q 248 819 210 785 q 347 852 286 852 q 449 827 406 852 q 513 758 493 802 l 509 755 m 665 486 q 757 294 757 416 q 656 75 757 165 q 412 -15 556 -15 q 280 0 339 -15 l 172 26 q 90 36 134 36 q 19 20 52 36 l 11 40 q 83 56 46 56 q 176 44 123 56 l 280 19 q 412 4 342 4 q 643 91 547 4 q 738 300 738 177 q 665 481 738 404 l 665 486 m 182 290 q 316 117 207 168 l 316 112 q 163 287 190 149 l 182 290 m 97 510 l 120 497 q 251 431 142 457 l 360 404 q 508 356 471 376 q 561 295 545 336 l 556 292 q 490 344 526 328 q 353 384 454 360 q 157 443 207 418 q 97 510 106 467 m 387 1120 l 456 1198 l 527 1198 l 413 1063 l 326 1063 l 209 1198 l 317 1198 l 387 1120 m 562 1153 l 445 1013 l 386 1013 l 371 1030 l 436 1030 l 549 1168 l 562 1153 z "},"¦":{"ha":694,"x_min":296,"x_max":399,"o":"m 296 926 l 399 926 l 399 449 l 296 449 l 296 926 m 296 213 l 399 213 l 399 -231 l 296 -231 l 296 213 z "},"Ð":{"ha":839,"x_min":12,"x_max":807,"o":"m 47 926 l 328 926 q 643 820 540 926 q 746 494 746 713 q 643 163 746 270 q 326 56 541 56 l 27 56 l 121 127 l 121 446 l 68 446 l 61 463 l 121 463 l 121 494 l 36 494 l 12 556 l 121 556 l 121 850 l 47 926 m 254 867 l 254 556 l 292 556 l 292 823 q 359 829 317 829 q 507 777 449 829 q 353 810 429 810 q 309 807 332 810 l 309 556 l 416 556 l 438 494 l 254 494 l 254 108 l 292 108 l 292 463 l 484 463 l 456 534 l 475 526 l 507 446 l 309 446 l 309 108 q 327 107 323 107 q 530 210 469 107 q 597 496 597 319 q 529 777 597 676 q 282 867 467 867 l 254 867 m 663 838 q 807 492 807 745 q 690 121 807 242 q 333 0 574 0 l 70 0 l 60 18 l 328 18 q 677 134 565 18 q 790 492 790 250 q 763 687 790 613 q 663 838 736 761 z "},"ð":{"ha":839,"x_min":12,"x_max":807,"o":"m 47 926 l 328 926 q 643 820 540 926 q 746 494 746 713 q 643 163 746 270 q 326 56 541 56 l 27 56 l 121 127 l 121 446 l 68 446 l 61 463 l 121 463 l 121 494 l 36 494 l 12 556 l 121 556 l 121 850 l 47 926 m 254 867 l 254 556 l 292 556 l 292 823 q 359 829 317 829 q 507 777 449 829 q 353 810 429 810 q 309 807 332 810 l 309 556 l 416 556 l 438 494 l 254 494 l 254 108 l 292 108 l 292 463 l 484 463 l 456 534 l 475 526 l 507 446 l 309 446 l 309 108 q 327 107 323 107 q 530 210 469 107 q 597 496 597 319 q 529 777 597 676 q 282 867 467 867 l 254 867 m 663 838 q 807 492 807 745 q 690 121 807 242 q 333 0 574 0 l 70 0 l 60 18 l 328 18 q 677 134 565 18 q 790 492 790 250 q 763 687 790 613 q 663 838 736 761 z "},"Ý":{"ha":891,"x_min":-33,"x_max":1006,"o":"m 976 1164 l 980 1159 l 973 1152 q 773 895 852 1025 q 730 825 743 846 l 477 421 l 477 146 l 576 56 l 245 56 l 343 146 l 343 421 l 180 671 l 145 728 q 66 838 97 803 q -25 920 35 872 l -33 926 l 310 926 l 226 838 l 452 498 l 473 532 l 272 838 l 343 906 l 357 895 l 296 838 l 484 549 l 635 788 q 701 944 701 892 q 644 1043 701 987 q 968 1160 841 1090 l 976 1164 m 1006 1124 l 1006 1096 l 1000 1089 q 902 981 943 1035 q 780 798 861 926 l 534 412 l 534 146 l 655 0 l 231 0 l 222 18 l 619 18 l 516 146 l 516 416 l 766 811 l 806 873 q 1006 1124 911 1041 m 637 1196 l 471 1062 l 399 1062 l 499 1196 l 637 1196 m 429 1005 l 414 1024 l 497 1024 l 663 1159 l 676 1143 l 506 1005 l 429 1005 z "},"ý":{"ha":891,"x_min":-33,"x_max":1006,"o":"m 976 1164 l 980 1159 l 973 1152 q 773 895 852 1025 q 730 825 743 846 l 477 421 l 477 146 l 576 56 l 245 56 l 343 146 l 343 421 l 180 671 l 145 728 q 66 838 97 803 q -25 920 35 872 l -33 926 l 310 926 l 226 838 l 452 498 l 473 532 l 272 838 l 343 906 l 357 895 l 296 838 l 484 549 l 635 788 q 701 944 701 892 q 644 1043 701 987 q 968 1160 841 1090 l 976 1164 m 1006 1124 l 1006 1096 l 1000 1089 q 902 981 943 1035 q 780 798 861 926 l 534 412 l 534 146 l 655 0 l 231 0 l 222 18 l 619 18 l 516 146 l 516 416 l 766 811 l 806 873 q 1006 1124 911 1041 m 637 1196 l 471 1062 l 399 1062 l 499 1196 l 637 1196 m 429 1005 l 414 1024 l 497 1024 l 663 1159 l 676 1143 l 506 1005 l 429 1005 z "},"Þ":{"ha":803,"x_min":5,"x_max":789,"o":"m 378 926 l 287 833 l 287 741 l 322 741 l 322 825 l 399 901 l 410 887 l 341 819 l 341 741 l 370 741 q 633 687 555 741 q 732 500 732 620 q 694 374 732 428 q 588 297 656 321 q 370 273 519 273 l 287 273 l 287 130 l 367 56 l 54 56 l 149 135 l 149 222 q 137 222 140 222 q 43 201 88 222 l 37 214 q 119 239 83 239 l 143 239 l 149 240 l 149 273 q 127 275 133 275 q 12 240 54 275 l 5 250 q 138 326 47 326 l 149 326 l 149 841 l 54 926 l 378 926 m 287 671 l 287 331 l 296 331 l 313 330 q 322 331 315 330 l 322 633 l 397 633 q 506 618 474 633 q 562 555 538 603 q 505 603 539 589 q 411 617 471 617 l 341 617 l 341 331 q 524 370 466 331 q 582 494 582 410 q 531 631 582 589 q 364 673 479 673 q 287 671 333 673 m 698 668 q 764 596 739 648 q 789 480 789 545 q 682 269 789 333 q 399 220 598 220 q 341 221 365 220 l 341 126 l 448 0 l 108 0 l 90 18 l 409 18 l 322 119 l 322 239 q 441 235 378 235 q 693 296 612 235 q 774 487 774 357 q 758 578 774 540 q 698 668 741 617 z "},"þ":{"ha":803,"x_min":5,"x_max":789,"o":"m 378 926 l 287 833 l 287 741 l 322 741 l 322 825 l 399 901 l 410 887 l 341 819 l 341 741 l 370 741 q 633 687 555 741 q 732 500 732 620 q 694 374 732 428 q 588 297 656 321 q 370 273 519 273 l 287 273 l 287 130 l 367 56 l 54 56 l 149 135 l 149 222 q 137 222 140 222 q 43 201 88 222 l 37 214 q 119 239 83 239 l 143 239 l 149 240 l 149 273 q 127 275 133 275 q 12 240 54 275 l 5 250 q 138 326 47 326 l 149 326 l 149 841 l 54 926 l 378 926 m 287 671 l 287 331 l 296 331 l 313 330 q 322 331 315 330 l 322 633 l 397 633 q 506 618 474 633 q 562 555 538 603 q 505 603 539 589 q 411 617 471 617 l 341 617 l 341 331 q 524 370 466 331 q 582 494 582 410 q 531 631 582 589 q 364 673 479 673 q 287 671 333 673 m 698 668 q 764 596 739 648 q 789 480 789 545 q 682 269 789 333 q 399 220 598 220 q 341 221 365 220 l 341 126 l 448 0 l 108 0 l 90 18 l 409 18 l 322 119 l 322 239 q 441 235 378 235 q 693 296 612 235 q 774 487 774 357 q 758 578 774 540 q 698 668 741 617 z "},"×":{"ha":815,"x_min":133,"x_max":682,"o":"m 133 665 l 193 725 l 376 542 l 391 556 l 250 696 l 272 701 l 404 570 l 555 720 l 615 661 l 437 481 l 610 309 l 550 248 l 416 382 l 243 210 l 222 215 l 402 395 l 376 422 l 198 243 l 138 304 l 317 481 l 133 665 m 504 470 l 675 299 l 613 237 l 591 237 l 650 297 l 477 470 l 657 650 l 597 710 l 620 710 l 682 648 l 504 470 z "},"¹":{"ha":509,"x_min":106,"x_max":416,"o":"m 296 926 l 296 471 l 337 426 l 168 426 l 220 471 l 220 805 q 172 793 196 793 q 116 831 142 793 l 121 829 l 146 813 q 172 808 153 808 q 220 821 193 808 l 220 854 q 155 833 193 833 q 106 867 106 833 q 126 888 106 888 q 143 873 142 888 q 142 867 143 871 l 142 864 l 146 859 q 153 857 149 857 q 207 877 180 857 q 247 926 234 897 l 296 926 m 325 910 l 340 903 l 340 456 l 416 370 l 191 370 l 182 385 l 388 385 l 325 456 l 325 910 z "},"²":{"ha":509,"x_min":43,"x_max":471,"o":"m 426 542 l 426 426 l 43 426 q 207 627 71 547 q 311 707 284 673 q 338 796 338 742 q 309 875 338 846 q 231 904 280 904 q 155 880 184 904 q 126 817 126 856 q 144 766 126 786 q 190 746 162 746 q 241 770 218 746 l 248 767 q 218 715 242 734 q 160 696 195 696 q 83 725 113 696 q 52 800 52 755 q 101 898 52 859 q 226 937 151 937 q 361 892 306 937 q 417 783 417 848 q 283 625 417 694 l 220 593 q 120 506 151 557 l 110 489 l 108 486 l 143 486 q 261 585 176 541 l 318 613 q 449 773 449 679 q 379 901 449 846 l 381 903 q 465 772 465 865 q 330 602 465 667 l 273 574 q 165 490 189 533 l 163 486 l 278 486 q 383 497 357 486 q 417 542 410 507 l 426 542 m 471 514 l 471 370 l 83 370 l 68 385 l 456 385 l 456 523 l 471 514 m 333 793 l 330 798 q 236 862 300 862 q 190 846 208 862 q 172 806 172 830 q 197 758 172 775 l 200 756 l 200 751 q 157 806 157 760 q 179 858 157 838 q 235 878 201 878 q 305 853 277 878 q 333 793 333 829 m 282 743 l 280 736 q 176 659 255 659 q 90 707 117 659 q 170 670 131 670 q 268 749 252 670 l 282 743 z "},"³":{"ha":509,"x_min":39,"x_max":475,"o":"m 130 595 q 125 552 125 574 q 230 448 125 448 q 340 564 340 448 q 308 657 340 620 q 225 694 275 694 q 188 690 216 694 l 184 689 l 202 730 q 224 730 215 730 q 296 754 268 730 q 323 817 323 779 q 293 881 323 854 q 219 907 262 907 q 152 886 178 907 q 126 833 126 865 q 166 788 126 788 q 188 797 176 788 l 195 793 q 134 759 169 759 q 80 780 102 759 q 58 831 58 801 q 109 906 58 876 q 233 937 159 937 q 353 904 307 937 q 400 819 400 871 q 374 753 400 783 q 309 717 347 724 q 299 711 299 715 q 308 705 299 707 q 427 563 427 671 q 375 455 427 493 q 227 416 322 416 q 39 550 68 416 l 43 551 q 130 595 96 568 m 176 579 q 174 567 175 571 q 171 538 171 545 q 216 460 171 490 l 217 455 q 155 539 155 469 q 161 583 155 555 l 176 579 m 317 625 q 241 651 283 651 q 201 646 228 651 l 194 661 q 237 666 218 666 q 317 625 294 666 m 414 654 q 475 533 475 599 q 415 407 475 455 q 259 359 356 359 q 166 375 210 359 q 102 414 121 391 l 99 419 l 103 417 l 136 397 q 253 372 176 372 q 401 418 343 372 q 458 536 458 464 q 433 621 458 587 l 415 646 q 412 650 414 647 l 414 654 m 382 903 l 387 902 q 431 861 412 892 q 450 799 450 831 q 365 688 450 722 l 350 695 q 433 800 433 723 q 385 899 433 852 q 382 903 384 901 m 313 825 q 309 831 310 829 q 228 877 276 877 q 168 825 168 877 q 180 802 168 812 l 176 798 q 152 831 152 807 q 173 874 152 857 q 225 892 194 892 q 316 830 296 892 l 313 825 m 228 769 q 153 728 200 728 q 81 762 119 728 l 80 765 l 84 762 l 98 752 q 147 738 117 738 q 214 778 191 738 l 228 769 z "},"½":{"ha":1191,"x_min":106,"x_max":1152,"o":"m 296 926 l 296 471 l 337 426 l 168 426 l 220 471 l 220 805 q 172 793 196 793 q 116 831 142 793 l 121 829 l 146 813 q 172 808 153 808 q 220 821 193 808 l 220 854 q 155 833 193 833 q 106 867 106 833 q 126 888 106 888 q 143 873 142 888 q 142 867 143 871 l 142 864 l 146 859 q 153 857 149 857 q 207 877 180 857 q 247 926 234 897 l 296 926 m 325 910 l 340 903 l 340 456 l 416 370 l 191 370 l 182 385 l 388 385 l 325 456 l 325 910 m 901 940 l 363 51 l 300 51 l 836 940 l 901 940 m 312 11 l 384 11 l 933 920 l 945 906 l 394 -7 l 319 -7 l 312 11 m 1107 172 l 1107 56 l 724 56 q 888 257 751 176 q 992 337 965 302 q 1019 426 1019 372 q 990 505 1019 475 q 912 534 961 534 q 836 510 865 534 q 807 447 807 486 q 825 396 807 416 q 871 376 843 376 q 922 400 899 376 l 928 397 q 899 346 923 365 q 841 326 876 326 q 764 356 795 326 q 733 430 733 385 q 782 528 733 489 q 907 567 831 567 q 1042 522 987 567 q 1098 412 1098 477 q 964 254 1098 323 l 901 222 q 801 136 832 186 l 791 119 l 789 116 l 824 116 q 942 214 857 171 l 999 243 q 1130 403 1130 309 q 1060 530 1130 475 l 1062 533 q 1146 402 1146 495 q 1011 231 1146 297 l 954 204 q 846 120 870 163 l 844 116 l 959 116 q 1064 126 1038 116 q 1098 172 1090 137 l 1107 172 m 1152 144 l 1152 0 l 764 0 l 749 14 l 1137 14 l 1137 153 l 1152 144 m 1014 422 l 1011 428 q 917 491 981 491 q 871 475 889 491 q 853 435 853 460 q 881 386 853 403 l 881 381 q 838 436 838 390 q 860 487 838 467 q 916 507 882 507 q 986 483 958 507 q 1014 422 1014 458 m 963 372 l 961 366 q 857 288 936 288 q 771 336 798 288 q 850 300 812 300 q 948 379 932 300 l 963 372 z "},"¼":{"ha":1191,"x_min":106,"x_max":1173,"o":"m 296 926 l 296 471 l 337 426 l 168 426 l 220 471 l 220 805 q 172 793 196 793 q 116 831 142 793 l 121 829 l 146 813 q 172 808 153 808 q 220 821 193 808 l 220 854 q 155 833 193 833 q 106 867 106 833 q 126 888 106 888 q 143 873 142 888 q 142 867 143 871 l 142 864 l 146 859 q 153 857 149 857 q 207 877 180 857 q 247 926 234 897 l 296 926 m 325 910 l 340 903 l 340 456 l 416 370 l 191 370 l 182 385 l 388 385 l 325 456 l 325 910 m 901 940 l 363 51 l 300 51 l 836 940 l 901 940 m 312 11 l 384 11 l 933 920 l 945 906 l 394 -7 l 319 -7 l 312 11 m 954 555 l 954 552 q 890 399 941 485 q 766 233 839 313 l 766 223 l 793 223 q 908 368 868 303 q 984 538 947 433 l 998 531 l 998 526 q 941 397 985 478 q 861 277 897 316 l 813 227 l 809 222 l 946 222 l 946 374 q 1016 437 994 401 l 1023 437 l 1023 222 l 1057 222 l 1057 421 l 1073 413 l 1073 222 q 1128 177 1128 222 q 1100 148 1128 148 q 1074 168 1074 148 q 1076 178 1074 175 l 1080 182 q 1080 184 1080 183 q 1059 195 1080 195 l 1052 195 l 1023 195 l 1023 101 l 1075 56 l 895 56 l 946 98 l 946 134 l 745 134 l 736 149 l 946 149 l 946 195 l 704 195 l 704 208 q 812 384 771 289 q 852 555 852 478 l 954 555 m 1135 207 q 1173 161 1173 195 q 1162 132 1173 144 q 1137 119 1151 119 q 1101 131 1123 119 l 1099 137 q 1126 130 1115 130 q 1160 163 1160 130 q 1135 207 1160 184 m 1147 0 l 931 0 l 917 14 l 1120 14 l 1057 85 l 1057 146 l 1073 139 l 1073 85 l 1147 0 z "},"¾":{"ha":1191,"x_min":39,"x_max":1173,"o":"m 130 595 q 125 552 125 574 q 230 448 125 448 q 340 564 340 448 q 308 657 340 620 q 225 694 275 694 q 188 690 216 694 l 184 689 l 202 730 q 224 730 215 730 q 296 754 268 730 q 323 817 323 779 q 293 881 323 854 q 219 907 262 907 q 152 886 178 907 q 126 833 126 865 q 166 788 126 788 q 188 797 176 788 l 195 793 q 134 759 169 759 q 80 780 102 759 q 58 831 58 801 q 109 906 58 876 q 233 937 159 937 q 353 904 307 937 q 400 819 400 871 q 374 753 400 783 q 309 717 347 724 q 299 711 299 715 q 308 705 299 707 q 427 563 427 671 q 375 455 427 493 q 227 416 322 416 q 39 550 68 416 l 43 551 q 130 595 96 568 m 176 579 q 174 567 175 571 q 171 538 171 545 q 216 460 171 490 l 217 455 q 155 539 155 469 q 161 583 155 555 l 176 579 m 317 625 q 241 651 283 651 q 201 646 228 651 l 194 661 q 237 666 218 666 q 317 625 294 666 m 414 654 q 475 533 475 599 q 415 407 475 455 q 259 359 356 359 q 166 375 210 359 q 102 414 121 391 l 99 419 l 103 417 l 136 397 q 253 372 176 372 q 401 418 343 372 q 458 536 458 464 q 433 621 458 587 l 415 646 q 412 650 414 647 l 414 654 m 382 903 l 387 902 q 431 861 412 892 q 450 799 450 831 q 365 688 450 722 l 350 695 q 433 800 433 723 q 385 899 433 852 q 382 903 384 901 m 313 825 q 309 831 310 829 q 228 877 276 877 q 168 825 168 877 q 180 802 168 812 l 176 798 q 152 831 152 807 q 173 874 152 857 q 225 892 194 892 q 316 830 296 892 l 313 825 m 228 769 q 153 728 200 728 q 81 762 119 728 l 80 765 l 84 762 l 98 752 q 147 738 117 738 q 214 778 191 738 l 228 769 m 901 940 l 364 51 l 300 51 l 837 940 l 901 940 m 312 11 l 384 11 l 934 920 l 945 906 l 394 -7 l 319 -7 l 312 11 m 954 555 l 954 552 q 890 399 941 485 q 766 233 840 313 l 766 223 l 793 223 q 908 368 868 302 q 984 538 947 433 l 998 531 l 998 526 q 940 395 985 479 q 861 277 895 312 l 814 227 l 810 222 l 946 222 l 946 374 q 1016 437 994 401 l 1023 437 l 1023 222 l 1058 222 l 1058 421 l 1074 413 l 1074 222 q 1128 177 1128 222 q 1101 148 1128 148 q 1074 168 1074 148 q 1077 178 1074 175 l 1080 182 q 1081 184 1081 183 q 1060 195 1081 195 l 1053 195 l 1023 195 l 1023 101 l 1076 56 l 895 56 l 946 98 l 946 134 l 745 134 l 737 149 l 946 149 l 946 195 l 705 195 l 705 208 q 812 384 772 289 q 852 555 852 478 l 954 555 m 1136 207 q 1173 161 1173 195 q 1162 132 1173 144 q 1137 119 1152 119 q 1101 131 1123 119 l 1099 137 q 1126 130 1116 130 q 1160 163 1160 130 q 1136 207 1160 184 m 1148 0 l 932 0 l 918 14 l 1121 14 l 1058 85 l 1058 146 l 1074 139 l 1074 85 l 1148 0 z "},"¤":{"ha":815,"x_min":48,"x_max":767,"o":"m 528 555 q 397 598 452 598 q 264 433 264 598 q 329 278 264 316 l 323 271 q 243 429 243 313 q 395 616 243 616 q 528 555 485 616 m 225 236 l 113 124 l 54 184 l 158 289 q 100 454 100 357 q 149 616 100 551 l 48 716 l 109 777 l 213 672 q 248 689 230 682 l 177 759 l 199 764 l 267 696 q 382 715 323 715 q 542 673 473 715 l 641 772 l 701 711 l 603 614 q 652 451 652 538 q 600 284 652 354 l 702 182 l 642 123 l 576 189 q 406 142 505 142 q 250 182 328 142 l 159 91 l 137 96 l 239 198 l 243 193 q 401 162 328 162 q 561 204 486 162 l 534 230 q 386 195 465 195 q 225 236 300 195 m 383 657 q 200 447 200 657 q 379 252 200 252 q 548 461 548 252 q 508 610 548 563 q 383 657 469 657 m 665 275 l 767 173 l 705 111 l 683 111 l 742 171 l 641 273 q 703 456 703 352 q 685 565 703 536 l 659 606 q 654 614 658 608 l 743 701 l 683 761 l 705 761 l 767 699 l 678 610 q 721 452 721 554 q 710 361 721 396 q 665 275 699 327 z "}}}
